SplineFontDB: 3.2
FontName: D-DIN-PRO-Condensed-Medium
FullName: D-DIN-PRO-Condensed-Medium
FamilyName: D-DIN-PRO-Condensed
Weight: Medium
Copyright: Copyright (c) CyberFei. All rights reserved
Version: 1.1.0
ItalicAngle: 0
UnderlinePosition: -150
UnderlineWidth: 50
Ascent: 831
Descent: 169
InvalidEm: 0
sfntRevision: 0x00010000
LayerCount: 2
Layer: 0 0 "Back" 1
Layer: 1 0 "Fore" 0
XUID: [1021 868 -1451673819 22850]
StyleMap: 0x0040
FSType: 4
OS2Version: 3
OS2_WeightWidthSlopeOnly: 0
OS2_UseTypoMetrics: 0
CreationTime: 1462909513
ModificationTime: 1778060077
PfmFamily: 17
TTFWeight: 500
TTFWidth: 3
LineGap: 86
VLineGap: 0
Panose: 2 11 5 6 3 2 2 3 2 4
OS2TypoAscent: 831
OS2TypoAOffset: 0
OS2TypoDescent: -169
OS2TypoDOffset: 0
OS2TypoLinegap: 86
OS2WinAscent: 902
OS2WinAOffset: 0
OS2WinDescent: 184
OS2WinDOffset: 0
HheadAscent: 831
HheadAOffset: 0
HheadDescent: -169
HheadDOffset: 0
OS2SubXSize: 650
OS2SubYSize: 600
OS2SubXOff: 0
OS2SubYOff: 75
OS2SupXSize: 650
OS2SupYSize: 600
OS2SupXOff: 0
OS2SupYOff: 350
OS2StrikeYSize: 50
OS2StrikeYPos: 310
OS2CapHeight: 690
OS2XHeight: 517
OS2Vendor: 'MONO'
OS2CodePages: 00000001.00000000
OS2UnicodeRanges: 8000006f.4000000a.00000000.00000000
Lookup: 1 0 0 "'rtla' Right to Left Alternates lookup 0" { "'rtla' Right to Left Alternates lookup 0 subtable"  } ['rtla' ('DFLT' <'dflt' > ) ]
Lookup: 1 0 0 "'sups' Superscript lookup 1" { "'sups' Superscript lookup 1 subtable" ("superior") } ['sups' ('DFLT' <'dflt' > ) ]
Lookup: 4 0 0 "'frac' Diagonal Fractions lookup 2" { "'frac' Diagonal Fractions lookup 2 subtable"  } ['frac' ('DFLT' <'dflt' > ) ]
Lookup: 4 0 0 "'dlig' Discretionary Ligatures in Latin lookup 3" { "'dlig' Discretionary Ligatures in Latin lookup 3 subtable"  } ['dlig' ('latn' <'dflt' > ) ]
Lookup: 4 0 1 "'liga' Standard Ligatures in Latin lookup 4" { "'liga' Standard Ligatures in Latin lookup 4 subtable"  } ['liga' ('latn' <'dflt' > ) ]

StartChar: .notdef
Encoding: 65536 -1 0
Width: 596
GlyphClass: 1
Flags: MW
HStem: 0.275391 50.6992<150.388 453.613 150.388 504.312> 639.875 50.7002<150.388 453.613 150.388 150.388>
VStem: 99.6875 50.7002<50.9746 50.9746 50.9746 639.875> 453.613 50.6992<50.9746 639.875 639.875 639.875>
LayerCount: 2
Fore
SplineSet
99.6875 690.575195312 m 1
 504.3125 690.575195312 l 1
 504.3125 0.275390625 l 1
 99.6875 0.275390625 l 1
 99.6875 690.575195312 l 1
150.387695312 50.974609375 m 1
 453.61328125 50.974609375 l 1
 453.61328125 639.875 l 1
 150.387695312 639.875 l 1
 150.387695312 50.974609375 l 1
EndSplineSet
EndChar

StartChar: exclam
Encoding: 33 33 3
Width: 209
GlyphClass: 2
Flags: MW
HStem: 0.275391 112.125<62.6377 156.238 62.6377 156.238> 670.575 20G<58.4854 160.408 160.408 160.408>
VStem: 62.6377 93.6006<0.275391 112.4 0.275391 112.4> 72.6328 72.6172<191.375 191.375>
LayerCount: 2
Fore
SplineSet
160.408203125 690.575195312 m 1xd0
 145.25 191.375 l 1
 72.6328125 191.375 l 1
 58.4853515625 690.575195312 l 1
 160.408203125 690.575195312 l 1xd0
62.6376953125 112.400390625 m 1xe0
 156.23828125 112.400390625 l 1
 156.23828125 0.275390625 l 1
 62.6376953125 0.275390625 l 1
 62.6376953125 112.400390625 l 1xe0
EndSplineSet
EndChar

StartChar: quotedbl
Encoding: 34 34 4
Width: 283
GlyphClass: 2
Flags: MW
HStem: 446.825 243.75<41.1875 125.038 41.1875 125.038 41.1875 167.938 167.938 251.788>
VStem: 41.1875 83.8506<446.825 690.575 446.825 690.575> 167.938 83.8506<446.825 690.575 446.825 690.575>
LayerCount: 2
Fore
SplineSet
41.1875 690.575195312 m 1
 125.038085938 690.575195312 l 1
 125.038085938 446.825195312 l 1
 41.1875 446.825195312 l 1
 41.1875 690.575195312 l 1
167.9375 690.575195312 m 1
 251.788085938 690.575195312 l 1
 251.788085938 446.825195312 l 1
 167.9375 446.825195312 l 1
 167.9375 690.575195312 l 1
EndSplineSet
EndChar

StartChar: numbersign
Encoding: 35 35 5
Width: 461
GlyphClass: 2
Flags: MW
HStem: 0.275391 21G<63.5488 144.585 63.5488 63.5488 241.974 323.01 241.974 241.974> 217.7 76.0498<20.7129 87.9238 20.7129 95.7393 177.75 266.349 20.7129 168.96 356.175 430.213> 415.625 76.0498<41.1875 109.376 41.1875 118.133 41.1875 191.387 199.208 287.801 377.634 449.713> 670.575 20G<139.583 221.634 221.634 221.634 318.008 400.059 400.059 400.059>
LayerCount: 2
Fore
SplineSet
449.712890625 491.674804688 m 1
 449.712890625 415.625 l 1
 369.811523438 415.625 l 1
 356.174804688 293.75 l 1
 430.212890625 293.75 l 1
 430.212890625 217.700195312 l 1
 347.384765625 217.700195312 l 1
 323.009765625 0.275390625 l 1
 241.973632812 0.275390625 l 1
 266.348632812 217.700195312 l 1
 168.959960938 217.700195312 l 1
 144.584960938 0.275390625 l 1
 63.548828125 0.275390625 l 1
 87.923828125 217.700195312 l 1
 20.712890625 217.700195312 l 1
 20.712890625 293.75 l 1
 95.7392578125 293.75 l 1
 109.375976562 415.625 l 1
 41.1875 415.625 l 1
 41.1875 491.674804688 l 1
 118.1328125 491.674804688 l 1
 139.583007812 690.575195312 l 1
 221.633789062 690.575195312 l 1
 199.208007812 491.674804688 l 1
 296.557617188 491.674804688 l 1
 318.0078125 690.575195312 l 1
 400.05859375 690.575195312 l 1
 377.633789062 491.674804688 l 1
 449.712890625 491.674804688 l 1
274.1640625 293.75 m 1
 287.80078125 415.625 l 1
 191.38671875 415.625 l 1
 177.75 293.75 l 1
 274.1640625 293.75 l 1
EndSplineSet
EndChar

StartChar: dollar
Encoding: 36 36 6
Width: 373
GlyphClass: 2
Flags: MW
VStem: 28.5127 82.876<475.832 512.161> 156.238 69.2256<-69.9268 26.4521 26.4521 26.4521 106.709 279.664> 263.488 82.875<184.64 215.666>
LayerCount: 2
Fore
SplineSet
225.462890625 382.393554688 m 1
 314.961914062 342.825195312 346.36328125 283.40625 346.36328125 201.125 c 0
 346.36328125 168.154296875 343.69921875 50.19140625 225.463867188 27.9462890625 c 1
 225.463867188 -69.9267578125 l 1
 156.23828125 -69.9267578125 l 1
 156.23828125 26.4521484375 l 1
 87.7021484375 34.6923828125 31.10546875 78.642578125 26.5703125 198.836914062 c 2
 26.2265625 207.948242188 l 1
 110.9296875 207.948242188 l 1
 112.473632812 179.225585938 115.412109375 124.57421875 156.23828125 105.40625 c 1
 156.23828125 314.421875 l 1
 150.764648438 316.909179688 l 2
 67.162109375 352.403320312 28.5126953125 398.412109375 28.5126953125 486.797851562 c 0
 28.5126953125 537.5234375 40.365234375 578.408203125 65.130859375 608.405273438 c 0
 88.12890625 636.263671875 118.856445312 653.251953125 156.23828125 659.220703125 c 1
 156.23828125 751.999023438 l 1
 225.462890625 751.999023438 l 1
 225.462890625 657.924804688 l 1
 296.13671875 643.359375 333.756835938 584.049804688 339.522460938 487.328125 c 2
 340.076171875 478.024414062 l 1
 261.834960938 478.024414062 l 1
 260.903320312 505.048828125 259.192382812 554.654296875 225.462890625 574.672851562 c 1
 225.462890625 382.393554688 l 1
156.23828125 579.3671875 m 1
 144.168945312 574.77734375 111.388671875 558.998046875 111.388671875 496.547851562 c 0
 111.388671875 455.116210938 124.662109375 430.923828125 156.23828125 411.81640625 c 1
 156.23828125 579.3671875 l 1
263.48828125 192.349609375 m 0
 263.48828125 238.982421875 250.194335938 261.638671875 225.463867188 279.6640625 c 1
 225.463867188 106.708984375 l 1
 250.327148438 119.134765625 263.48828125 146.09765625 263.48828125 192.349609375 c 0
66.5390625 681.799804688 m 1024
EndSplineSet
EndChar

StartChar: percent
Encoding: 37 37 7
Width: 685
GlyphClass: 2
Flags: MW
HStem: -7.52441 78<544.608 555.671 544.608 594.264> 0.275391 21G<183.733 263.812 183.733 183.733> 257.675 78<139.007 150.07 139.007 188.663> 354.201 78<544.417 555.875> 619.401 77.999<138.81 150.275>
VStem: 33.3887 84.8271<390.275 566.75> 170.864 84.8232<390.276 566.75> 438.99 84.8271<125.076 301.551> 576.467 84.8232<125.075 125.076 125.076 301.55 301.55 301.551>
LayerCount: 2
Fore
SplineSet
144.538085938 257.674804688 m 0x3f80
 56.302734375 257.674804688 33.388671875 319.563476562 33.388671875 390.275390625 c 2
 33.388671875 566.75 l 2
 33.388671875 615.688476562 44.2587890625 697.400390625 144.538085938 697.400390625 c 0
 231.362304688 697.400390625 255.6875 638.390625 255.6875 566.75 c 2
 255.6875 390.275390625 l 2
 255.6875 319.5859375 232.787109375 257.674804688 144.538085938 257.674804688 c 0x3f80
431.841796875 690.575195312 m 1
 511.918945312 690.575195312 l 1
 263.811523438 0.275390625 l 1
 183.733398438 0.275390625 l 1x7f80
 431.841796875 690.575195312 l 1
144.540039062 335.674804688 m 0
 155.599609375 335.674804688 170.864257812 335.682617188 170.864257812 390.276367188 c 2
 170.864257812 566.750976562 l 2
 170.864257812 619.099609375 156.009765625 619.401367188 144.540039062 619.401367188 c 0
 133.079101562 619.401367188 118.215820312 619.110351562 118.215820312 566.75 c 2
 118.215820312 390.275390625 l 2
 118.215820312 335.6875 133.473632812 335.674804688 144.540039062 335.674804688 c 0
550.139648438 -7.5244140625 m 0xbf80
 461.905273438 -7.5244140625 438.990234375 54.3642578125 438.990234375 125.076171875 c 2
 438.990234375 301.55078125 l 2
 438.990234375 350.489257812 449.860351562 432.201171875 550.139648438 432.201171875 c 0
 636.96484375 432.201171875 661.290039062 373.192382812 661.290039062 301.55078125 c 2
 661.290039062 125.076171875 l 2
 661.290039062 54.3876953125 638.388671875 -7.5244140625 550.139648438 -7.5244140625 c 0xbf80
550.141601562 70.4755859375 m 0
 561.201171875 70.4755859375 576.466796875 70.482421875 576.466796875 125.075195312 c 2
 576.466796875 301.549804688 l 2
 576.466796875 353.900390625 561.609375 354.201171875 550.141601562 354.201171875 c 0
 538.69140625 354.201171875 523.817382812 353.923828125 523.817382812 301.55078125 c 2
 523.817382812 125.076171875 l 2
 523.817382812 70.48828125 539.075195312 70.4755859375 550.141601562 70.4755859375 c 0
EndSplineSet
EndChar

StartChar: ampersand
Encoding: 38 38 8
Width: 518
GlyphClass: 2
Flags: MW
HStem: -9.47559 84.8252<196.864 226.688 196.864 239.147> -0.699219 83.8496<417.184 476.038 456.538 476.038 456.538 476.038> 622.326 77.998<216.312 253.718 213.105 257.079>
VStem: 49.9609 88.7227<142.665 177.547 142.665 184.836> 92.8613 88.7227<544.94 576.959 543.279 578.07> 285.909 87.751<540.784 569.847>
LayerCount: 2
Fore
SplineSet
373.66015625 556.999023438 m 0xac
 373.66015625 492.328125 341.278320312 439.033203125 273.388671875 365.682617188 c 1
 354.240234375 228.061523438 l 1
 403.959960938 310.928710938 l 1
 471.381835938 267.229492188 l 1
 400.446289062 150.3359375 l 1
 425.104492188 108.064453125 l 2
 438.44921875 85.380859375 446.0625 83.150390625 456.538085938 83.150390625 c 2
 476.038085938 83.150390625 l 1
 476.038085938 -0.69921875 l 1
 435.083984375 -0.69921875 l 2x6c
 399.284179688 -0.69921875 381.904296875 11.6796875 361.225585938 47.4912109375 c 2
 348.724609375 68.1181640625 l 1
 318.8515625 27.7421875 276.235351562 -9.4755859375 202.059570312 -9.4755859375 c 0
 155.9609375 -9.4755859375 118.309570312 5.3271484375 90.78515625 35.291015625 c 0
 63.3759765625 65.1298828125 49.9609375 104.584960938 49.9609375 152.374023438 c 0xb4
 49.9609375 217.297851562 79.728515625 278.266601562 166.745117188 375.624023438 c 0
 166.1015625 376.657226562 127.258789062 440.458984375 109.161132812 482.875 c 0
 98.3779296875 508.147460938 92.861328125 532.880859375 92.861328125 557 c 0
 92.861328125 599.139648438 105.96484375 634.185546875 132.482421875 660.703125 c 0
 158.907226562 687.127929688 192.951171875 700.32421875 233.259765625 700.32421875 c 0
 274.17578125 700.32421875 308.420898438 687.155273438 334.567382812 660.661132812 c 0
 360.745117188 634.1328125 373.66015625 599.109375 373.66015625 556.999023438 c 0xac
234.234375 622.326171875 m 0
 198.390625 622.326171875 181.583984375 594.967773438 181.583984375 558.950195312 c 0
 181.583984375 527.607421875 199.317382812 491.619140625 227.74609375 443.271484375 c 1
 271.860351562 495.235351562 285.909179688 522.616210938 285.909179688 558.951171875 c 0
 285.909179688 580.7421875 279.923828125 622.326171875 234.234375 622.326171875 c 0
212.284179688 299.389648438 m 1
 157.971679688 237.631835938 138.68359375 198.819335938 138.68359375 156.275390625 c 0
 138.68359375 129.053710938 145.3125 109.330078125 157.409179688 95.826171875 c 0
 169.559570312 82.2626953125 185.818359375 75.349609375 207.909179688 75.349609375 c 0xb4
 245.465820312 75.349609375 272.405273438 98.7470703125 302.891601562 144.823242188 c 1
 212.284179688 299.389648438 l 1
EndSplineSet
EndChar

StartChar: quotesingle
Encoding: 39 39 9
Width: 156
GlyphClass: 2
Flags: MW
HStem: 446.825 243.75<41.1875 125.038 41.1875 125.038>
VStem: 41.1875 83.8506<446.825 690.575 446.825 690.575>
LayerCount: 2
Fore
SplineSet
41.1875 690.575195312 m 1
 125.038085938 690.575195312 l 1
 125.038085938 446.825195312 l 1
 41.1875 446.825195312 l 1
 41.1875 690.575195312 l 1
EndSplineSet
EndChar

StartChar: parenleft
Encoding: 40 40 10
Width: 263
GlyphClass: 2
Flags: MW
VStem: 49.9629 84.8262<284.822 392.762>
LayerCount: 2
Fore
SplineSet
49.962890625 328.848632812 m 0
 49.962890625 456.67578125 77.6015625 595.791015625 150.864257812 739.32421875 c 1
 227.266601562 739.32421875 l 1
 203.481445312 685.805664062 134.7890625 531.24609375 134.7890625 328.848632812 c 0
 134.7890625 240.795898438 148.62109375 93.666015625 221.772460938 -69.2626953125 c 2
 227.322265625 -81.625 l 1
 150.838867188 -81.625 l 1
 128.12890625 -36.669921875 49.962890625 118.990234375 49.962890625 328.848632812 c 0
EndSplineSet
Substitution2: "'rtla' Right to Left Alternates lookup 0 subtable" parenright
EndChar

StartChar: parenright
Encoding: 41 41 11
Width: 263
GlyphClass: 2
Flags: MW
VStem: 137.713 84.8262<252.722 375.517>
LayerCount: 2
Fore
SplineSet
137.712890625 328.850585938 m 0
 137.712890625 422.18359375 122.350585938 565.8125 50.7158203125 726.994140625 c 2
 45.2353515625 739.326171875 l 1
 121.637695312 739.326171875 l 1
 144.515625 694.50390625 222.5390625 540.525390625 222.5390625 328.850585938 c 0
 222.5390625 176.59375 182.66796875 39.140625 121.663085938 -81.6240234375 c 1
 45.1787109375 -81.6240234375 l 1
 68.3505859375 -30.0146484375 137.712890625 124.475585938 137.712890625 328.850585938 c 0
EndSplineSet
Substitution2: "'rtla' Right to Left Alternates lookup 0 subtable" parenleft
EndChar

StartChar: asterisk
Encoding: 42 42 12
Width: 350
GlyphClass: 2
Flags: MW
HStem: 399.05 291.525<146.488 212.788 146.488 212.788>
VStem: 146.488 66.2998<399.05 493.03 602.445 690.575>
LayerCount: 2
Fore
SplineSet
212.788085938 399.049804688 m 1
 146.48828125 399.049804688 l 1
 146.48828125 493.030273438 l 1
 78.0263671875 453.39453125 l 1
 46.6787109375 506.548828125 l 1
 117.227539062 547.25 l 1
 46.7626953125 587.903320312 l 1
 77.9423828125 642.12890625 l 1
 146.48828125 602.4453125 l 1
 146.48828125 690.575195312 l 1
 212.788085938 690.575195312 l 1
 212.788085938 601.469726562 l 1
 281.395507812 641.190429688 l 1
 311.475585938 587.8671875 l 1
 241.157226562 547.298828125 l 1
 312.622070312 506.590820312 l 1
 281.249023438 453.39453125 l 1
 212.788085938 493.030273438 l 1
 212.788085938 399.049804688 l 1
EndSplineSet
EndChar

StartChar: plus
Encoding: 43 43 13
Width: 420
GlyphClass: 2
Flags: MW
HStem: 237.2 81.8994<40.2129 174.763 40.2129 174.763 255.688 390.238 40.2129 255.688>
VStem: 174.763 80.9248<103.625 237.2 103.625 237.2 319.1 452.675>
LayerCount: 2
Fore
SplineSet
255.6875 319.099609375 m 1
 390.23828125 319.099609375 l 1
 390.23828125 237.200195312 l 1
 255.6875 237.200195312 l 1
 255.6875 103.625 l 1
 174.762695312 103.625 l 1
 174.762695312 237.200195312 l 1
 40.212890625 237.200195312 l 1
 40.212890625 319.099609375 l 1
 174.762695312 319.099609375 l 1
 174.762695312 452.674804688 l 1
 255.6875 452.674804688 l 1
 255.6875 319.099609375 l 1
EndSplineSet
EndChar

StartChar: comma
Encoding: 44 44 14
Width: 156
GlyphClass: 2
Flags: MW
HStem: -147.654 256.154<41.1875 125.038>
VStem: 41.1875 83.8506<-74.9023 108.5 -74.9023 108.5 -74.9023 108.5>
LayerCount: 2
Fore
SplineSet
41.1875 108.5 m 1
 125.038085938 108.5 l 1
 125.038085938 -74.90234375 l 1
 41.1875 -147.654296875 l 1
 41.1875 108.5 l 1
EndSplineSet
EndChar

StartChar: hyphen
Encoding: 45 45 15
Width: 376
GlyphClass: 2
Flags: MW
HStem: 307.4 80.9248<49.9629 335.638 49.9629 335.638>
VStem: 49.9629 285.675<307.4 388.325 307.4 388.325>
LayerCount: 2
Fore
SplineSet
49.962890625 388.325195312 m 1
 335.637695312 388.325195312 l 1
 335.637695312 307.400390625 l 1
 49.962890625 307.400390625 l 1
 49.962890625 388.325195312 l 1
EndSplineSet
EndChar

StartChar: period
Encoding: 46 46 16
Width: 165
GlyphClass: 2
Flags: MW
HStem: 0.275391 104.324<41.1875 134.788 41.1875 134.788>
VStem: 41.1875 93.6006<0.275391 104.6 0.275391 104.6>
LayerCount: 2
Fore
SplineSet
41.1875 104.599609375 m 1
 134.788085938 104.599609375 l 1
 134.788085938 0.275390625 l 1
 41.1875 0.275390625 l 1
 41.1875 104.599609375 l 1
EndSplineSet
EndChar

StartChar: slash
Encoding: 47 47 17
Width: 299
GlyphClass: 2
Flags: MW
HStem: 670.575 20G<179.177 260.408 260.408 260.408>
VStem: 48.167 212.241
LayerCount: 2
Fore
SplineSet
179.176757812 690.575195312 m 1
 260.408203125 690.575195312 l 1
 129.399414062 -9.474609375 l 1
 48.1669921875 -9.474609375 l 1
 179.176757812 690.575195312 l 1
EndSplineSet
EndChar

StartChar: zero
Encoding: 48 48 18
Width: 403
GlyphClass: 2
Flags: MW
HStem: -8.5 80.9248<193.947 219.933 193.947 278.327> 618.423 80.9268<193.948 219.934>
VStem: 51.9131 88.7246<178.7 189.424 189.424 501.424> 272.264 88.7246<189.424 501.424 501.424 513.125>
LayerCount: 2
Fore
SplineSet
206.9375 -8.5 m 0
 124.3203125 -8.5 51.9130859375 33.0458984375 51.9130859375 178.700195312 c 2
 51.9130859375 513.125 l 2
 51.9130859375 575.0234375 63.544921875 699.349609375 206.9375 699.349609375 c 0
 288.981445312 699.349609375 360.98828125 658.063476562 360.98828125 513.125 c 2
 360.98828125 178.700195312 l 2
 360.98828125 117.009765625 349.716796875 -8.5 206.9375 -8.5 c 0
272.263671875 189.423828125 m 2
 272.263671875 501.423828125 l 2
 272.263671875 546.985351562 266.625 578.237304688 257.318359375 594.592773438 c 0
 248.4921875 610.10546875 232.9296875 618.422851562 206.938476562 618.422851562 c 0
 180.95703125 618.422851562 165.16015625 610.096679688 156.014648438 594.495117188 c 0
 146.44140625 578.165039062 140.637695312 546.97265625 140.637695312 501.423828125 c 2
 140.637695312 189.423828125 l 2
 140.637695312 143.874023438 146.44140625 112.682617188 156.013671875 96.353515625 c 0
 165.159179688 80.751953125 180.956054688 72.4248046875 206.9375 72.4248046875 c 0
 232.928710938 72.4248046875 248.491210938 80.7431640625 257.317382812 96.2548828125 c 0
 266.624023438 112.611328125 272.263671875 143.862304688 272.263671875 189.423828125 c 2
EndSplineSet
EndChar

StartChar: one
Encoding: 49 49 19
Width: 278
GlyphClass: 2
Flags: MW
HStem: 0.275391 21G<138.688 221.562 138.688 138.688> 670.575 20G<144.435 221.562 221.562 221.562>
VStem: 138.688 82.875<0.275391 580.893 580.893 580.893>
LayerCount: 2
Fore
SplineSet
39.23828125 502.892578125 m 1
 39.23828125 608.068359375 l 1
 144.434570312 690.575195312 l 1
 221.5625 690.575195312 l 1
 221.5625 0.275390625 l 1
 138.6875 0.275390625 l 1
 138.6875 580.892578125 l 1
 39.23828125 502.892578125 l 1
EndSplineSet
Substitution2: "'sups' Superscript lookup 1 subtable" uni00B9
EndChar

StartChar: two
Encoding: 50 50 20
Width: 393
GlyphClass: 2
Flags: MW
HStem: 0.275391 80.9248<152.733 352.213 152.733 352.213> 618.428 80.9238<188.344 209.077>
VStem: 47.0381 87.75<491.677 539.452 491.677 546.277 491.677 569.249> 266.413 88.7246<511.178 538.478 538.478 547.251 487.044 576.489>
LayerCount: 2
Fore
SplineSet
198.163085938 618.427734375 m 0
 178.524414062 618.427734375 134.788085938 610.45703125 134.788085938 539.452148438 c 2
 134.788085938 491.676757812 l 1
 47.0380859375 491.676757812 l 1
 47.0380859375 546.27734375 l 2
 47.0380859375 592.219726562 60.7138671875 629.885742188 88.609375 657.780273438 c 0
 116.532226562 685.703125 154.529296875 699.3515625 201.087890625 699.3515625 c 0
 247.646484375 699.3515625 285.643554688 685.703125 313.56640625 657.780273438 c 0
 341.43359375 629.913085938 355.137695312 592.579101562 355.137695312 547.250976562 c 2
 355.137695312 511.17578125 l 2
 355.137695312 462.913085938 345.225585938 422.645507812 309.127929688 358.61328125 c 2
 152.733398438 81.2001953125 l 1
 352.212890625 81.2001953125 l 1
 352.212890625 0.275390625 l 1
 47.0380859375 0.275390625 l 1
 47.0380859375 67.90234375 l 1
 48.162109375 69.8984375 l 1
 48.162109375 69.8984375 234.38671875 400.42578125 234.461914062 400.555664062 c 0
 261.774414062 447.151367188 266.413085938 480.377929688 266.413085938 511.177734375 c 2
 266.413085938 538.477539062 l 2
 266.413085938 614.5 219.990234375 618.427734375 198.163085938 618.427734375 c 0
EndSplineSet
Substitution2: "'sups' Superscript lookup 1 subtable" uni00B2
EndChar

StartChar: three
Encoding: 51 51 21
Width: 405
GlyphClass: 2
Flags: MW
HStem: -8.5 80.9238<178.575 211.789 170.049 228.208> 318.124 80.9248<163.062 200.113 163.062 200.113> 618.424 80.9238<188.993 229.163 180.489 230.283>
VStem: 47.0381 87.75<141.649 147.499 147.499 193.324 139.909 193.324> 274.213 88.7246<153.349 156.275 156.275 227.45 130.512 228.424 130.512 244.135>
LayerCount: 2
Fore
SplineSet
298.985351562 362.033203125 m 1
 337.036132812 339.865234375 362.9375 307.120117188 362.9375 227.450195312 c 2
 362.9375 156.275390625 l 2
 362.9375 104.749023438 349.491210938 63.7109375 321.48046875 34.650390625 c 0
 293.424804688 5.5419921875 253.376953125 -8.5 203.038085938 -8.5 c 0
 154.111328125 -8.5 115.162109375 4.298828125 87.7158203125 31.041015625 c 0
 60.3115234375 57.7421875 47.0380859375 95.1572265625 47.0380859375 141.649414062 c 2
 47.0380859375 193.32421875 l 1
 134.788085938 193.32421875 l 1
 134.788085938 147.499023438 l 2
 134.788085938 132.319335938 136.0859375 72.423828125 204.012695312 72.423828125 c 0
 219.564453125 72.423828125 274.212890625 73.2041015625 274.212890625 153.348632812 c 2
 274.212890625 228.423828125 l 2
 274.212890625 259.845703125 267.819335938 282.296875 256.579101562 296.627929688 c 0
 245.767578125 310.4140625 227.803710938 318.124023438 200.11328125 318.124023438 c 2
 163.0625 318.124023438 l 1
 163.0625 399.048828125 l 1
 200.11328125 399.048828125 l 2
 227.206054688 399.048828125 244.478515625 406.481445312 254.599609375 419.532226562 c 0
 265.211914062 433.21484375 271.288085938 454.71484375 271.288085938 484.848632812 c 2
 271.288085938 537.499023438 l 2
 271.288085938 578.1640625 257.528320312 618.423828125 203.038085938 618.423828125 c 0
 174.948242188 618.423828125 136.73828125 606.768554688 136.73828125 543.348632812 c 2
 136.73828125 495.57421875 l 1
 48.98828125 495.57421875 l 1
 48.98828125 544.32421875 l 2
 48.98828125 592.063476562 62.2099609375 630.540039062 89.544921875 658.224609375 c 0
 116.96484375 685.99609375 155.990234375 699.34765625 204.98828125 699.34765625 c 0
 253.336914062 699.34765625 291.875 686.15625 318.96875 658.7109375 c 0
 346.002929688 631.327148438 359.038085938 593.008789062 359.038085938 545.297851562 c 2
 359.038085938 487.7734375 l 2
 359.038085938 416.775390625 334.846679688 383.413085938 298.985351562 362.033203125 c 1
EndSplineSet
Substitution2: "'sups' Superscript lookup 1 subtable" uni00B3
EndChar

StartChar: four
Encoding: 52 52 22
Width: 416
GlyphClass: 2
Flags: MW
HStem: 0.275391 21G<241.062 329.788 241.062 241.062> 135.8 80.9248<126.137 241.062 126.137 241.062 329.788 389.263> 670.575 20G<179.922 269.461 269.461 269.461>
VStem: 241.062 88.7256<0.275391 135.8 0.275391 135.8 216.725 393.2>
LayerCount: 2
Fore
SplineSet
329.788085938 216.724609375 m 1
 389.262695312 216.724609375 l 1
 389.262695312 135.799804688 l 1
 329.788085938 135.799804688 l 1
 329.788085938 0.275390625 l 1
 241.0625 0.275390625 l 1
 241.0625 135.799804688 l 1
 36.3125 135.799804688 l 1
 36.3125 209.237304688 l 1
 179.921875 690.575195312 l 1
 269.4609375 690.575195312 l 1
 126.13671875 216.724609375 l 1
 241.0625 216.724609375 l 1
 241.0625 393.200195312 l 1
 329.788085938 393.200195312 l 1
 329.788085938 216.724609375 l 1
EndSplineSet
EndChar

StartChar: five
Encoding: 53 53 23
Width: 399
GlyphClass: 2
Flags: MW
HStem: -8.5 80.9248<187.302 219.917 187.084 273.136> 368.825 80.9248<200.995 220.28> 606.725 83.8506<143.563 350.264 143.563 143.563>
VStem: 51.9131 84.8252<151.4 152.375 152.375 177.725 117.64 177.725> 59.7139 83.8496<427.991 606.725 427.991 690.575> 267.388 88.7256<160.175 163.1 163.1 281.075 281.075 282.05>
LayerCount: 2
Fore
SplineSet
203.038085938 -8.5 m 0xec
 171.565429688 -8.5 51.9130859375 -4.9091796875 51.9130859375 151.400390625 c 2
 51.9130859375 177.724609375 l 1
 136.73828125 177.724609375 l 1
 136.73828125 152.375 l 2xf4
 136.73828125 82.9052734375 172.10546875 72.4248046875 202.0625 72.4248046875 c 0
 237.770507812 72.4248046875 267.387695312 87.2216796875 267.387695312 160.174804688 c 2
 267.387695312 281.075195312 l 2
 267.387695312 355.489257812 237.522460938 368.825195312 203.038085938 368.825195312 c 0
 173.870117188 368.825195312 152.392578125 355.305664062 136.6953125 325.720703125 c 2
 134.216796875 321.049804688 l 1
 59.7138671875 321.049804688 l 1
 59.7138671875 690.575195312 l 1
 350.263671875 690.575195312 l 1
 350.263671875 606.724609375 l 1
 143.563476562 606.724609375 l 1
 143.563476562 427.991210938 l 1
 161.493164062 440.66015625 185.302734375 449.75 216.6875 449.75 c 0
 289.830078125 449.75 356.11328125 413.490234375 356.11328125 282.049804688 c 2
 356.11328125 163.099609375 l 2
 356.11328125 103.831054688 343.234375 -8.5 203.038085938 -8.5 c 0xec
EndSplineSet
EndChar

StartChar: six
Encoding: 54 54 24
Width: 396
GlyphClass: 2
Flags: MW
HStem: -8.5 80.9238<179.372 217.118 176.291 226.078> 339.574 79.9512<206.107 231.017> 670.575 20G<202.079 292.222 292.222 292.222>
VStem: 47.0361 88.7256<156.274 253.774 253.774 262.549> 269.338 88.7236<153.349 154.325 154.325 258.649 258.649 264.5>
LayerCount: 2
Fore
SplineSet
214.736328125 419.525390625 m 0
 300.551757812 419.525390625 358.061523438 363.418945312 358.061523438 264.5 c 2
 358.061523438 154.325195312 l 2
 358.061523438 105.227539062 344.145507812 65.1845703125 315.626953125 35.6220703125 c 0
 287.15625 6.109375 249.1171875 -8.5 203.038085938 -8.5 c 0
 155.705078125 -8.5 117.1171875 6.240234375 88.912109375 36.1865234375 c 0
 60.7470703125 66.0908203125 47.0361328125 106.577148438 47.0361328125 156.274414062 c 2
 47.0361328125 253.774414062 l 2
 47.0361328125 304.567382812 53.2548828125 336.263671875 78.91796875 397.569335938 c 2
 202.079101562 690.575195312 l 1
 292.221679688 690.575195312 l 1
 177.754882812 414.340820312 l 1
 185.140625 416.532226562 197.477539062 419.525390625 214.736328125 419.525390625 c 0
203.036132812 72.423828125 m 0
 231.19921875 72.423828125 269.337890625 85.03515625 269.337890625 153.348632812 c 2
 269.337890625 258.649414062 l 2
 269.337890625 293.045898438 258.99609375 339.57421875 203.038085938 339.57421875 c 0
 176.892578125 339.57421875 135.76171875 329.012695312 135.76171875 262.548828125 c 2
 135.76171875 154.32421875 l 2
 135.76171875 112.754882812 149.544921875 72.423828125 203.036132812 72.423828125 c 0
EndSplineSet
EndChar

StartChar: seven
Encoding: 55 55 25
Width: 362
GlyphClass: 2
Flags: MW
HStem: 0.275391 21G<67.4258 156.934 67.4258 67.4258> 609.65 80.9248<31.4375 249.751 31.4375 340.513>
VStem: 31.4375 309.075<617.141 690.575 617.141 690.575 617.141 690.575>
LayerCount: 2
Fore
SplineSet
340.512695312 690.575195312 m 1
 340.512695312 617.140625 l 1
 156.93359375 0.275390625 l 1
 67.42578125 0.275390625 l 1
 249.750976562 609.650390625 l 1
 31.4375 609.650390625 l 1
 31.4375 690.575195312 l 1
 340.512695312 690.575195312 l 1
EndSplineSet
EndChar

StartChar: eight
Encoding: 56 56 26
Width: 403
GlyphClass: 2
Flags: MW
HStem: -8.5 77.999<193.258 222.033 193.258 229.933> 322.999 77.0273<193.258 218.049 177.732 222.254> 621.35 78.001<194.914 217.037>
VStem: 51.9121 82.877<158.227 160.174 160.174 232.327 232.327 233.299 145.158 261.667> 278.113 82.874<160.174 232.326 132.778 233.299 132.778 272.393>
LayerCount: 2
Fore
SplineSet
205.962890625 -8.5 m 0
 111.275390625 -8.5 51.912109375 52.646484375 51.912109375 158.2265625 c 2
 51.912109375 232.327148438 l 2
 51.912109375 291.005859375 71.54296875 335.19921875 111.256835938 362.1484375 c 1
 93.7587890625 374.662109375 55.8115234375 410.081054688 55.8115234375 481.926757812 c 2
 55.8115234375 544.327148438 l 2
 55.8115234375 590.25 69.3017578125 628.165039062 96.7802734375 656.6875 c 0
 124.2890625 685.240234375 161.197265625 699.350585938 205.961914062 699.350585938 c 0
 251.340820312 699.350585938 288.581054688 685.26953125 316.118164062 656.686523438 c 0
 343.596679688 628.163085938 357.086914062 590.248046875 357.086914062 544.326171875 c 2
 357.086914062 481.92578125 l 2
 357.086914062 455.916992188 351.317382812 396.22265625 301.899414062 361.97265625 c 1
 341.440429688 335.005859375 360.987304688 290.877929688 360.987304688 232.326171875 c 2
 360.987304688 158.225585938 l 2
 360.987304688 107.331054688 347.689453125 66.234375 320.162109375 36.2666015625 c 0
 292.555664062 6.212890625 253.903320312 -8.5 205.962890625 -8.5 c 0
138.6875 481.924804688 m 2
 138.6875 446.3984375 149.501953125 400.026367188 205.961914062 400.026367188 c 0
 230.13671875 400.026367188 246.374023438 407.326171875 257.051757812 421.015625 c 0
 268.166992188 435.267578125 274.213867188 455.265625 274.213867188 481.924804688 c 2
 274.213867188 544.325195312 l 2
 274.213867188 569.500976562 267.829101562 588.09765625 255.969726562 601.369140625 c 0
 244.185546875 614.555664062 228.109375 621.349609375 205.963867188 621.349609375 c 0
 183.864257812 621.349609375 168.036132812 614.448242188 156.57421875 601.030273438 c 0
 144.899414062 587.362304688 138.6875 568.8359375 138.6875 544.325195312 c 2
 138.6875 481.924804688 l 2
205.963867188 69.4990234375 m 0
 238.102539062 69.4990234375 278.11328125 80.7529296875 278.11328125 160.173828125 c 2
 278.11328125 233.298828125 l 2
 278.11328125 311.486328125 238.544921875 322.999023438 205.963867188 322.999023438 c 0
 180.552734375 322.999023438 163.6015625 315.127929688 152.569335938 300.233398438 c 0
 141.063476562 284.701171875 134.7890625 262.647460938 134.7890625 233.298828125 c 2
 134.7890625 160.173828125 l 2
 134.7890625 130.141601562 141.091796875 107.758789062 152.569335938 92.2646484375 c 0
 163.6015625 77.3701171875 180.552734375 69.4990234375 205.963867188 69.4990234375 c 0
EndSplineSet
EndChar

StartChar: nine
Encoding: 57 57 27
Width: 396
GlyphClass: 2
Flags: MW
HStem: 0.275391 21G<112.835 203.02 112.835 112.835> 271.324 79.9502<175.471 198.591> 618.424 80.9258<187.288 226.702 179.703 230.386>
VStem: 47.0371 88.7266<426.35 432.199 432.199 536.525 536.525 537.499> 269.338 88.7246<428.299 437.075 437.075 534.575>
LayerCount: 2
Fore
SplineSet
190.36328125 271.32421875 m 0
 104.546875 271.32421875 47.037109375 327.4296875 47.037109375 426.349609375 c 2
 47.037109375 536.525390625 l 2
 47.037109375 586.237304688 60.9267578125 626.473632812 89.5087890625 655.752929688 c 0
 118.016601562 684.956054688 156.368164062 699.349609375 203.037109375 699.349609375 c 0
 250.3671875 699.349609375 288.8203125 684.608398438 316.712890625 654.624023438 c 0
 344.537109375 624.712890625 358.0625 584.248046875 358.0625 534.575195312 c 2
 358.0625 437.075195312 l 2
 358.0625 386.280273438 351.842773438 354.58203125 326.181640625 293.280273438 c 2
 203.01953125 0.275390625 l 1
 112.834960938 0.275390625 l 1
 228.290039062 276.610351562 l 1
 219.466796875 274.0390625 206.819335938 271.32421875 190.36328125 271.32421875 c 0
203.038085938 351.274414062 m 0
 231.172851562 351.274414062 269.337890625 363.260742188 269.337890625 428.298828125 c 2
 269.337890625 536.524414062 l 2
 269.337890625 574.120117188 257.734375 618.423828125 203.038085938 618.423828125 c 0
 171.537109375 618.423828125 135.763671875 603.82421875 135.763671875 537.499023438 c 2
 135.763671875 432.19921875 l 2
 135.763671875 394.302734375 147.903320312 351.274414062 203.038085938 351.274414062 c 0
EndSplineSet
EndChar

StartChar: colon
Encoding: 58 58 28
Width: 165
GlyphClass: 2
Flags: MW
HStem: 0.275391 104.324<41.1875 134.788 41.1875 134.788> 329.825 104.325<41.1875 134.788 41.1875 134.788>
VStem: 41.1875 93.6006<0.275391 104.6 0.275391 104.6 329.825 434.15>
LayerCount: 2
Fore
SplineSet
41.1875 104.599609375 m 1
 134.788085938 104.599609375 l 1
 134.788085938 0.275390625 l 1
 41.1875 0.275390625 l 1
 41.1875 104.599609375 l 1
41.1875 434.150390625 m 1
 134.788085938 434.150390625 l 1
 134.788085938 329.825195312 l 1
 41.1875 329.825195312 l 1
 41.1875 434.150390625 l 1
EndSplineSet
EndChar

StartChar: semicolon
Encoding: 59 59 29
Width: 165
GlyphClass: 2
Flags: MW
HStem: 329.825 104.325<41.1875 134.788 41.1875 134.788>
VStem: 41.1875 93.6006<329.825 434.15 329.825 434.15> 48.9883 83.8496<-74.9023 108.5 -74.9023 108.5 -74.9023 108.5>
LayerCount: 2
Fore
SplineSet
48.98828125 108.5 m 1xa0
 132.837890625 108.5 l 1
 132.837890625 -74.90234375 l 1
 48.98828125 -147.654296875 l 1
 48.98828125 108.5 l 1xa0
41.1875 434.150390625 m 1xc0
 134.788085938 434.150390625 l 1
 134.788085938 329.825195312 l 1
 41.1875 329.825195312 l 1
 41.1875 434.150390625 l 1xc0
EndSplineSet
EndChar

StartChar: less
Encoding: 60 60 30
Width: 420
GlyphClass: 2
Flags: W
LayerCount: 2
Fore
SplineSet
40.212890625 241.049804688 m 1
 40.212890625 315.250976562 l 1
 390.23828125 457.9296875 l 1
 390.23828125 373.625 l 1
 153.387695312 278.150390625 l 1
 390.23828125 182.67578125 l 1
 390.23828125 98.3701171875 l 1
 40.212890625 241.049804688 l 1
EndSplineSet
Substitution2: "'rtla' Right to Left Alternates lookup 0 subtable" greater
EndChar

StartChar: equal
Encoding: 61 61 31
Width: 420
GlyphClass: 2
Flags: MW
HStem: 145.55 81.9004<40.2129 390.238 40.2129 390.238> 327.875 80.9248<40.2129 390.238 40.2129 390.238>
LayerCount: 2
Fore
SplineSet
40.212890625 408.799804688 m 1
 390.23828125 408.799804688 l 1
 390.23828125 327.875 l 1
 40.212890625 327.875 l 1
 40.212890625 408.799804688 l 1
40.212890625 227.450195312 m 1
 390.23828125 227.450195312 l 1
 390.23828125 145.549804688 l 1
 40.212890625 145.549804688 l 1
 40.212890625 227.450195312 l 1
EndSplineSet
EndChar

StartChar: greater
Encoding: 62 62 32
Width: 420
GlyphClass: 2
Flags: W
LayerCount: 2
Fore
SplineSet
40.212890625 373.625 m 1
 40.212890625 457.9296875 l 1
 390.23828125 315.250976562 l 1
 390.23828125 241.049804688 l 1
 40.212890625 98.3701171875 l 1
 40.212890625 182.67578125 l 1
 277.063476562 278.150390625 l 1
 40.212890625 373.625 l 1
EndSplineSet
Substitution2: "'rtla' Right to Left Alternates lookup 0 subtable" less
EndChar

StartChar: question
Encoding: 63 63 33
Width: 364
GlyphClass: 2
Flags: MW
HStem: 0.273438 112.125<136.738 230.338 136.738 230.338> 619.399 80.9258<171.518 197.408>
VStem: 30.4629 88.7246<499.475 508.25 499.475 539.377> 136.738 93.5996<0.273438 112.398 0.273438 112.398> 247.888 88.7256<517.62 559.678 511.638 572.92>
LayerCount: 2
Fore
SplineSet
30.462890625 508.25 m 2
 30.462890625 570.50390625 41.0927734375 700.325195312 183.538085938 700.325195312 c 0
 232.08203125 700.325195312 270.668945312 685.640625 297.364257812 655.431640625 c 0
 323.837890625 625.474609375 336.61328125 584.78125 336.61328125 534.575195312 c 0
 336.61328125 488.700195312 327.193359375 458.962890625 287.603515625 389.6875 c 2
 251.541992188 329.260742188 l 2
 233.165039062 298.25 228.387695312 281.999023438 228.387695312 244.025390625 c 2
 228.387695312 173.825195312 l 1
 139.663085938 173.825195312 l 1
 139.663085938 248.900390625 l 2
 139.663085938 295.12109375 147.409179688 318.794921875 175.033203125 366.502929688 c 2
 215.961914062 434.71875 l 2
 242.411132812 479.262695312 247.887695312 500.665039062 247.887695312 534.57421875 c 0
 247.887695312 611.265625 210.303710938 619.399414062 184.512695312 619.399414062 c 0
 158.522460938 619.399414062 142.958984375 611.081054688 134.1328125 595.569335938 c 0
 124.736328125 579.053710938 119.1875 549.8359375 119.1875 508.25 c 2
 119.1875 499.474609375 l 1
 30.462890625 499.474609375 l 1
 30.462890625 508.25 l 2
136.73828125 112.3984375 m 1
 230.337890625 112.3984375 l 1
 230.337890625 0.2734375 l 1
 136.73828125 0.2734375 l 1
 136.73828125 112.3984375 l 1
EndSplineSet
EndChar

StartChar: at
Encoding: 64 64 34
Width: 727
GlyphClass: 2
Flags: MW
HStem: -124.525 77.0254<329.072 412.956 329.072 422.189> 54.875 76.0498<545.679 562.706 545.679 572.915> 425.375 78<355.369 360.657 325.295 376.338> 615.501 77.0244<329.041 404.304>
VStem: 49.9619 81.9014<211.85 212.826 212.826 362 362 362.001> 228.387 84.8242<208.925 209.9 209.9 351.275> 420.46 83.8525<210.875 350.3 350.3 363.464> 604.738 80.9229<212.826 219.65 219.65 369.801 369.801 370.775>
LayerCount: 2
Fore
SplineSet
366.838867188 -124.525390625 m 0
 176.234375 -124.525390625 49.9619140625 1.625 49.9619140625 211.849609375 c 2
 49.9619140625 362 l 2
 49.9619140625 559.647460938 171.897460938 692.525390625 366.836914062 692.525390625 c 0
 556.875 692.525390625 685.661132812 562.706054688 685.661132812 370.775390625 c 2
 685.661132812 219.650390625 l 2
 685.661132812 167.149414062 674.609375 126.108398438 650.987304688 97.5498046875 c 0
 627.370117188 68.9970703125 593.744140625 54.875 552.0859375 54.875 c 0
 526.737304688 54.875 476.622070312 61.2392578125 447.899414062 107.604492188 c 1
 425.279296875 68.5146484375 391.166992188 54.875 347.336914062 54.875 c 0
 279.2734375 54.875 228.38671875 93.4794921875 228.38671875 208.924804688 c 2
 228.38671875 352.25 l 2
 228.38671875 399.3984375 236.903320312 436.500976562 255.295898438 463.029296875 c 0
 274.208007812 490.3046875 305.203125 503.375 345.38671875 503.375 c 0
 375.926757812 503.375 401.333007812 493.842773438 420.462890625 475.018554688 c 1
 420.462890625 495.575195312 l 1
 504.3125 495.575195312 l 1
 504.3125 190.400390625 l 2
 504.3125 169.654296875 509.3359375 155.181640625 518.094726562 145.625976562 c 0
 527.138671875 135.759765625 538.295898438 130.924804688 553.0625 130.924804688 c 0
 572.348632812 130.924804688 584.28125 137.310546875 591.90234375 149.661132812 c 0
 599.997070312 162.78125 604.73828125 183.778320312 604.73828125 212.826171875 c 2
 604.73828125 369.80078125 l 2
 604.73828125 446.1484375 583.39453125 505.572265625 541.362304688 549.471679688 c 0
 499.40234375 593.296875 441.76953125 615.500976562 366.837890625 615.500976562 c 0
 291.243164062 615.500976562 234.01953125 593.1328125 193.400390625 549.104492188 c 0
 152.705078125 504.991210938 131.86328125 443.073242188 131.86328125 362.000976562 c 2
 131.86328125 212.826171875 l 2
 131.86328125 129.764648438 152.73828125 66.166015625 193.482421875 20.7568359375 c 0
 234.127929688 -24.54296875 291.305664062 -47.5 366.837890625 -47.5 c 0
 459.073242188 -47.5 502.544921875 -20.052734375 539.94921875 5.8427734375 c 1
 580.650390625 -57.7529296875 l 1
 539.412109375 -85.830078125 477.5390625 -124.525390625 366.838867188 -124.525390625 c 0
420.459960938 210.875 m 2
 420.459960938 350.299804688 l 2
 420.459960938 376.62890625 415.630859375 395.626953125 407.354492188 407.765625 c 0
 399.641601562 419.078125 386.815429688 425.375 365.860351562 425.375 c 0
 344.876953125 425.375 332.549804688 419.0859375 325.494140625 407.998046875 c 0
 317.72265625 395.784179688 313.2109375 376.986328125 313.2109375 351.275390625 c 2
 313.2109375 209.900390625 l 2
 313.2109375 182.868164062 317.907226562 163.26953125 325.955078125 150.782226562 c 0
 333.435546875 139.173828125 345.696289062 132.875 365.862304688 132.875 c 0
 387.384765625 132.875 400.171875 139.530273438 407.625976562 151.611328125 c 0
 415.819335938 164.889648438 420.459960938 184.537109375 420.459960938 210.875 c 2
EndSplineSet
EndChar

StartChar: A
Encoding: 65 65 35
Width: 460
GlyphClass: 2
Flags: MW
HStem: 0.275391 21G<7.27539 7.27539 7.27539 99.7158 368.76 368.76 368.76 462.176> 171.875 78.9746<162.596 305.88 162.596 325.859 142.616 305.88> 670.575 20G<195.357 274.094 274.094 274.094>
LayerCount: 2
Fore
SplineSet
7.275390625 0.275390625 m 1
 195.357421875 690.575195312 l 1
 274.09375 690.575195312 l 1
 462.17578125 0.275390625 l 1
 368.759765625 0.275390625 l 1
 325.859375 171.875 l 1
 142.616210938 171.875 l 1
 99.7158203125 0.275390625 l 1
 7.275390625 0.275390625 l 1
162.595703125 250.849609375 m 1
 305.879882812 250.849609375 l 1
 234.23828125 538.262695312 l 1
 162.595703125 250.849609375 l 1
EndSplineSet
EndChar

StartChar: B
Encoding: 66 66 36
Width: 469
GlyphClass: 2
Flags: MW
HStem: 0.276367 80.9248<148.438 235.213 235.213 241.062> 317.151 80.9248<148.438 234.238 234.238 235.213 148.438 234.238> 609.651 80.9248<148.438 235.213 148.438 148.438>
VStem: 59.7129 88.7246<81.2012 317.151 398.076 609.651> 337.588 88.7246<178.265 236.029 107.78 247.854>
LayerCount: 2
Fore
SplineSet
240.087890625 690.576171875 m 2
 337.069335938 690.576171875 419.48828125 654.946289062 419.48828125 506.299804688 c 0
 419.48828125 436.163085938 394.803710938 385.939453125 345.264648438 359.0390625 c 1
 399.748046875 334.379882812 426.3125 277.758789062 426.3125 194.299804688 c 0
 426.3125 21.2607421875 315.959960938 0.2763671875 241.0625 0.2763671875 c 2
 59.712890625 0.2763671875 l 1
 59.712890625 690.576171875 l 1
 240.087890625 690.576171875 l 2
234.23828125 398.076171875 m 2
 287.615234375 398.076171875 330.762695312 420.076171875 330.762695312 502.401367188 c 0
 330.762695312 543.028320312 322.450195312 570.326171875 308.240234375 585.650390625 c 0
 294 601.006835938 270.314453125 609.651367188 235.212890625 609.651367188 c 2
 148.4375 609.651367188 l 1
 148.4375 398.076171875 l 1
 234.23828125 398.076171875 l 2
337.587890625 199.17578125 m 0
 337.587890625 296.533203125 287.056640625 317.151367188 235.212890625 317.151367188 c 2
 148.4375 317.151367188 l 1
 148.4375 81.201171875 l 1
 235.212890625 81.201171875 l 2
 272.772460938 81.201171875 298.037109375 91.15625 313.329101562 109.279296875 c 0
 328.905273438 127.741210938 337.587890625 157.353515625 337.587890625 199.17578125 c 0
EndSplineSet
EndChar

StartChar: C
Encoding: 67 67 37
Width: 477
GlyphClass: 2
Flags: MW
HStem: -7.52539 81.9004<220.74 260.911 220.74 272.208> 617.45 81.8994<215.436 260.559>
VStem: 51.9131 88.7256<205.025 479> 345.389 86.7754<196.25 213.8 162.072 213.8>
LayerCount: 2
Fore
SplineSet
140.638671875 204.049804688 m 2
 140.638671875 93.03125 196.516601562 74.375 244.963867188 74.375 c 0
 276.857421875 74.375 300.772460938 84.26171875 318.419921875 103.673828125 c 0
 335.813476562 122.806640625 345.388671875 153.223632812 345.388671875 196.25 c 2
 345.388671875 213.799804688 l 1
 432.1640625 213.799804688 l 1
 432.1640625 195.275390625 l 2
 432.1640625 128.868164062 415.197265625 77.5986328125 379.7734375 43.2158203125 c 0
 344.8359375 9.306640625 299.452148438 -7.525390625 244.963867188 -7.525390625 c 0
 187.857421875 -7.525390625 140.768554688 10.3076171875 105.154296875 46.263671875 c 0
 69.1787109375 82.5849609375 51.9130859375 136.04296875 51.9130859375 205.025390625 c 2
 51.9130859375 485.825195312 l 2
 51.9130859375 555.420898438 68.9833984375 609.184570312 104.63671875 645.530273438 c 0
 139.936523438 681.516601562 186.8828125 699.349609375 243.98828125 699.349609375 c 0
 299.123046875 699.349609375 345.138671875 682.360351562 380.71875 648.149414062 c 0
 416.806640625 613.44921875 434.11328125 561.671875 434.11328125 494.599609375 c 2
 434.11328125 477.049804688 l 1
 345.388671875 477.049804688 l 1
 345.388671875 492.650390625 l 2
 345.388671875 537.686523438 335.591796875 569.04296875 317.981445312 588.096679688 c 0
 299.95703125 607.599609375 276.154296875 617.450195312 244.963867188 617.450195312 c 0
 178.11328125 617.450195312 140.638671875 579.646484375 140.638671875 479 c 2
 140.638671875 204.049804688 l 2
EndSplineSet
EndChar

StartChar: D
Encoding: 68 68 38
Width: 476
GlyphClass: 2
Flags: MW
HStem: 0.275391 80.9248<148.438 243.013 148.438 243.013> 609.65 80.9248<148.438 243.013 148.438 148.438>
VStem: 59.7129 88.7246<81.2002 609.65 81.2002 690.575 81.2002 690.575> 344.413 88.7246<211.85 212.825 212.825 471.2 471.2 478.025>
LayerCount: 2
Fore
SplineSet
59.712890625 690.575195312 m 1
 243.012695312 690.575195312 l 2
 299.47265625 690.575195312 345.930664062 672.899414062 380.90234375 637.2421875 c 0
 416.249023438 601.202148438 433.137695312 547.600585938 433.137695312 478.025390625 c 2
 433.137695312 212.825195312 l 2
 433.137695312 143.875 416.2265625 90.4580078125 380.931640625 54.125 c 0
 345.967773438 18.1328125 299.494140625 0.275390625 243.012695312 0.275390625 c 2
 59.712890625 0.275390625 l 1
 59.712890625 690.575195312 l 1
344.413085938 471.200195312 m 2
 344.413085938 582.888671875 294.823242188 609.650390625 243.012695312 609.650390625 c 2
 148.4375 609.650390625 l 1
 148.4375 81.2001953125 l 1
 243.012695312 81.2001953125 l 2
 292.462890625 81.2001953125 344.413085938 106.313476562 344.413085938 211.849609375 c 2
 344.413085938 471.200195312 l 2
EndSplineSet
EndChar

StartChar: E
Encoding: 69 69 39
Width: 403
GlyphClass: 2
Flags: MW
HStem: 0.275391 80.9248<147.463 376.588 147.463 376.588> 310.325 81.8994<147.463 344.413 147.463 344.413> 609.65 80.9248<147.463 376.588 147.463 147.463>
VStem: 59.7129 87.75<81.2002 81.2002 81.2002 310.325 392.225 609.65>
LayerCount: 2
Fore
SplineSet
147.462890625 81.2001953125 m 1
 376.587890625 81.2001953125 l 1
 376.587890625 0.275390625 l 1
 59.712890625 0.275390625 l 1
 59.712890625 690.575195312 l 1
 376.587890625 690.575195312 l 1
 376.587890625 609.650390625 l 1
 147.462890625 609.650390625 l 1
 147.462890625 392.224609375 l 1
 344.413085938 392.224609375 l 1
 344.413085938 310.325195312 l 1
 147.462890625 310.325195312 l 1
 147.462890625 81.2001953125 l 1
EndSplineSet
EndChar

StartChar: F
Encoding: 70 70 40
Width: 398
GlyphClass: 2
Flags: MW
HStem: 0.275391 21G<59.7129 148.438 59.7129 59.7129> 307.4 81.8994<148.438 345.388 148.438 345.388> 609.65 80.9248<148.438 376.588 148.438 148.438>
VStem: 59.7129 88.7246<0.275391 307.4 0.275391 389.3 389.3 609.65>
LayerCount: 2
Fore
SplineSet
148.4375 307.400390625 m 1
 148.4375 0.275390625 l 1
 59.712890625 0.275390625 l 1
 59.712890625 690.575195312 l 1
 376.587890625 690.575195312 l 1
 376.587890625 609.650390625 l 1
 148.4375 609.650390625 l 1
 148.4375 389.299804688 l 1
 345.387695312 389.299804688 l 1
 345.387695312 307.400390625 l 1
 148.4375 307.400390625 l 1
EndSplineSet
EndChar

StartChar: G
Encoding: 71 71 41
Width: 477
GlyphClass: 2
Flags: MW
HStem: -7.52539 81.9004<220.244 272.218> 285.95 77.0244<234.238 345.388 234.238 434.113> 617.45 81.8994<221.726 259.951>
VStem: 51.9141 88.7236<205.025 479> 345.388 88.7256<201.125 204.05 204.05 285.95 285.95 285.95 483.875 504.35>
LayerCount: 2
Fore
SplineSet
243.98828125 74.375 m 0
 320.267578125 74.375 345.387695312 127.830078125 345.387695312 201.125 c 2
 345.387695312 285.950195312 l 1
 234.23828125 285.950195312 l 1
 234.23828125 362.974609375 l 1
 434.11328125 362.974609375 l 1
 434.11328125 204.049804688 l 2
 434.11328125 135.104492188 417.205078125 81.8291015625 381.876953125 45.8076171875 c 0
 346.905273438 10.150390625 300.447265625 -7.525390625 243.98828125 -7.525390625 c 0
 186.8828125 -7.525390625 139.936523438 10.30859375 104.63671875 46.2939453125 c 0
 69.001953125 82.6220703125 51.9140625 136.059570312 51.9140625 205.025390625 c 2
 51.9140625 485.825195312 l 2
 51.9140625 555.420898438 68.984375 609.184570312 104.637695312 645.530273438 c 0
 139.9375 681.516601562 186.883789062 699.349609375 243.98828125 699.349609375 c 0
 299.721679688 699.349609375 345.909179688 682.563476562 381.204101562 648.638671875 c 0
 416.796875 614.427734375 434.11328125 565.764648438 434.11328125 504.349609375 c 2
 434.11328125 483.875 l 1
 345.387695312 483.875 l 1
 345.387695312 504.349609375 l 2
 345.387695312 541.909179688 335.889648438 569.5 318.026367188 588.53515625 c 0
 300.051757812 607.688476562 275.9140625 617.450195312 243.98828125 617.450195312 c 0
 199.463867188 617.450195312 140.637695312 600.78125 140.637695312 479 c 2
 140.637695312 204.049804688 l 2
 140.637695312 92.55859375 196.5 74.375 243.98828125 74.375 c 0
EndSplineSet
EndChar

StartChar: H
Encoding: 72 72 42
Width: 477
GlyphClass: 2
Flags: MW
HStem: 0.275391 21G<59.7129 148.438 59.7129 59.7129 337.588 426.312 337.588 337.588> 311.3 80.9248<148.438 337.588 148.438 337.588> 670.575 20G<59.7129 148.438 148.438 148.438 337.588 426.312 426.312 426.312>
VStem: 59.7129 88.7246<0.275391 311.3 0.275391 392.225 392.225 690.575> 337.588 88.7246<0.275391 311.3 311.3 311.3 392.225 690.575 0.275391 690.575>
LayerCount: 2
Fore
SplineSet
426.3125 690.575195312 m 1
 426.3125 0.275390625 l 1
 337.587890625 0.275390625 l 1
 337.587890625 311.299804688 l 1
 148.4375 311.299804688 l 1
 148.4375 0.275390625 l 1
 59.712890625 0.275390625 l 1
 59.712890625 690.575195312 l 1
 148.4375 690.575195312 l 1
 148.4375 392.224609375 l 1
 337.587890625 392.224609375 l 1
 337.587890625 690.575195312 l 1
 426.3125 690.575195312 l 1
EndSplineSet
EndChar

StartChar: I
Encoding: 73 73 43
Width: 209
GlyphClass: 2
Flags: MW
HStem: 0.275391 21G<65.5625 153.312 65.5625 65.5625> 670.575 20G<65.5625 153.312 153.312 153.312>
VStem: 65.5625 87.75<0.275391 690.575 0.275391 690.575>
LayerCount: 2
Fore
SplineSet
65.5625 690.575195312 m 1
 153.3125 690.575195312 l 1
 153.3125 0.275390625 l 1
 65.5625 0.275390625 l 1
 65.5625 690.575195312 l 1
EndSplineSet
EndChar

StartChar: J
Encoding: 74 74 44
Width: 267
GlyphClass: 2
Flags: MW
HStem: 0.275391 80.9248<24.6133 61.6641 61.6641 67.5127 24.6133 61.6641> 670.575 20G<122.113 210.839 210.839 210.839>
VStem: 122.113 88.7256<150.425 690.575>
LayerCount: 2
Fore
SplineSet
210.838867188 142.625 m 2
 210.838867188 89.15625 192.100585938 0.275390625 67.5126953125 0.275390625 c 2
 24.61328125 0.275390625 l 1
 24.61328125 81.2001953125 l 1
 61.6640625 81.2001953125 l 2
 83.2001953125 81.2001953125 122.11328125 86.74609375 122.11328125 150.424804688 c 2
 122.11328125 690.575195312 l 1
 210.838867188 690.575195312 l 1
 210.838867188 142.625 l 2
EndSplineSet
EndChar

StartChar: K
Encoding: 75 75 45
Width: 460
GlyphClass: 2
Flags: MW
HStem: 0.275391 21G<59.7129 148.438 59.7129 59.7129 369.987 467.366 369.987 369.987> 670.575 20G<59.7129 148.438 148.438 148.438 350.063 445.589 445.589 445.589>
VStem: 59.7129 88.7246<0.275391 187.041 340.239 690.575>
LayerCount: 2
Fore
SplineSet
369.987304688 0.275390625 m 1
 224.516601562 316.721679688 l 1
 148.4375 187.041015625 l 1
 148.4375 0.275390625 l 1
 59.712890625 0.275390625 l 1
 59.712890625 690.575195312 l 1
 148.4375 690.575195312 l 1
 148.4375 340.239257812 l 1
 350.063476562 690.575195312 l 1
 445.588867188 690.575195312 l 1
 278.266601562 407.336914062 l 1
 467.366210938 0.275390625 l 1
 369.987304688 0.275390625 l 1
EndSplineSet
EndChar

StartChar: L
Encoding: 76 76 46
Width: 392
GlyphClass: 2
Flags: MW
HStem: 0.275391 80.9248<148.438 376.588 148.438 376.588> 670.575 20G<59.7129 148.438 148.438 148.438>
VStem: 59.7129 88.7246<81.2002 690.575 81.2002 690.575 81.2002 690.575>
LayerCount: 2
Fore
SplineSet
59.712890625 690.575195312 m 1
 148.4375 690.575195312 l 1
 148.4375 81.2001953125 l 1
 376.587890625 81.2001953125 l 1
 376.587890625 0.275390625 l 1
 59.712890625 0.275390625 l 1
 59.712890625 690.575195312 l 1
EndSplineSet
EndChar

StartChar: M
Encoding: 77 77 47
Width: 595
GlyphClass: 2
Flags: MW
HStem: 0.275391 21G<59.7129 148.438 59.7129 59.7129 454.588 543.312 454.588 454.588> 670.575 20G<59.7129 145.649 145.649 145.649 457.35 543.312 543.312 543.312>
VStem: 59.7129 88.7246<0.275391 475.874 0.275391 690.575> 454.588 88.7246<0.275391 478.44 478.44 478.44>
LayerCount: 2
Fore
SplineSet
543.3125 690.575195312 m 1
 543.3125 0.275390625 l 1
 454.587890625 0.275390625 l 1
 454.587890625 478.440429688 l 1
 330.9453125 156.275390625 l 1
 324.913085938 156.275390625 l 1
 278.11328125 156.275390625 l 1
 272.09765625 156.275390625 l 1
 148.4375 475.874023438 l 1
 148.4375 0.275390625 l 1
 59.712890625 0.275390625 l 1
 59.712890625 690.575195312 l 1
 145.649414062 690.575195312 l 1
 302.438476562 290.622070312 l 1
 457.349609375 690.575195312 l 1
 543.3125 690.575195312 l 1
EndSplineSet
EndChar

StartChar: N
Encoding: 78 78 48
Width: 500
GlyphClass: 2
Flags: MW
HStem: 0.275391 21G<59.7129 148.438 59.7129 59.7129 364.063 449.713 364.063 364.063> 670.575 20G<59.7129 145.367 145.367 145.367 360.988 449.713 449.713 449.713>
VStem: 59.7129 88.7246<0.275391 484.519 0.275391 690.575> 360.988 88.7246<205.428 690.575 0.275391 690.575>
LayerCount: 2
Fore
SplineSet
449.712890625 690.575195312 m 1
 449.712890625 0.275390625 l 1
 364.063476562 0.275390625 l 1
 148.4375 484.518554688 l 1
 148.4375 0.275390625 l 1
 59.712890625 0.275390625 l 1
 59.712890625 690.575195312 l 1
 145.3671875 690.575195312 l 1
 360.98828125 205.427734375 l 1
 360.98828125 690.575195312 l 1
 449.712890625 690.575195312 l 1
EndSplineSet
EndChar

StartChar: O
Encoding: 79 79 49
Width: 477
GlyphClass: 2
Flags: MW
HStem: -7.52539 81.9014<220.244 270.099 220.244 271.254> 617.451 81.8994<215.328 269.894>
VStem: 51.9131 88.7246<205.026 479.001> 345.388 88.7256<204.051 205.025 205.025 479.001 479.001 485.825>
LayerCount: 2
Fore
SplineSet
51.9130859375 205.026367188 m 2
 51.9130859375 485.826171875 l 2
 51.9130859375 556.03125 68.783203125 609.959960938 104.1484375 646.018554688 c 0
 139.142578125 681.698242188 185.930664062 699.350585938 243.012695312 699.350585938 c 0
 300.094726562 699.350585938 346.883789062 681.698242188 381.876953125 646.018554688 c 0
 417.2421875 609.959960938 434.11328125 556.030273438 434.11328125 485.825195312 c 2
 434.11328125 205.025390625 l 2
 434.11328125 136.059570312 417.0234375 82.6220703125 381.388671875 46.2939453125 c 0
 346.111328125 10.3310546875 299.49609375 -7.525390625 243.012695312 -7.525390625 c 0
 185.91015625 -7.525390625 139.10546875 10.3095703125 104.119140625 46.3251953125 c 0
 68.82421875 82.658203125 51.9130859375 136.076171875 51.9130859375 205.026367188 c 2
243.98828125 74.3759765625 m 0
 296.208984375 74.3759765625 345.387695312 101.578125 345.387695312 204.05078125 c 2
 345.387695312 479.000976562 l 2
 345.387695312 590.689453125 295.798828125 617.451171875 243.98828125 617.451171875 c 0
 186.66796875 617.451171875 140.637695312 589.764648438 140.637695312 479.000976562 c 2
 140.637695312 204.05078125 l 2
 140.637695312 92.5595703125 196.5 74.3759765625 243.98828125 74.3759765625 c 0
EndSplineSet
EndChar

StartChar: P
Encoding: 80 80 50
Width: 439
GlyphClass: 2
Flags: MW
HStem: 0.275391 21G<59.7139 148.438 59.7139 59.7139> 284.975 80.9268<148.438 239.113 239.113 243.014 148.438 239.113> 609.651 80.9238<148.438 239.113 148.438 148.438>
VStem: 59.7139 88.7246<0.275391 284.975 0.275391 365.901 365.901 609.651> 336.613 87.75<448.326 531.41>
LayerCount: 2
Fore
SplineSet
243.013671875 690.575195312 m 2
 328.7265625 690.575195312 424.36328125 659.020507812 424.36328125 485.825195312 c 0
 424.36328125 410.827148438 405.98828125 284.974609375 243.013671875 284.974609375 c 2
 148.438476562 284.974609375 l 1
 148.438476562 0.275390625 l 1
 59.7138671875 0.275390625 l 1
 59.7138671875 690.575195312 l 1
 243.013671875 690.575195312 l 2
239.11328125 365.901367188 m 2
 305.631835938 365.901367188 336.61328125 398.860351562 336.61328125 485.826171875 c 0
 336.61328125 576.994140625 304.322265625 609.651367188 239.11328125 609.651367188 c 2
 148.438476562 609.651367188 l 1
 148.438476562 365.901367188 l 1
 239.11328125 365.901367188 l 2
EndSplineSet
EndChar

StartChar: Q
Encoding: 81 81 51
Width: 477
GlyphClass: 2
Flags: MW
HStem: -7.52441 81.9004<220.244 248.475> 617.451 81.8994<215.328 269.894>
VStem: 51.9131 88.7246<205.026 479.001> 345.388 88.7256<204.051 205.025 205.025 479.001 479.001 485.825>
LayerCount: 2
Fore
SplineSet
434.11328125 205.025390625 m 2
 434.11328125 141.690429688 418.58984375 62.775390625 350.584960938 20.923828125 c 1
 405.650390625 -111.821289062 l 1
 330.838867188 -141.74609375 l 1
 274.571289062 -5.517578125 l 1
 264.45703125 -6.8583984375 253.936523438 -7.5244140625 243.012695312 -7.5244140625 c 0
 185.91015625 -7.5244140625 139.10546875 10.310546875 104.119140625 46.326171875 c 0
 68.82421875 82.6591796875 51.9130859375 136.076171875 51.9130859375 205.026367188 c 2
 51.9130859375 485.826171875 l 2
 51.9130859375 556.03125 68.783203125 609.959960938 104.1484375 646.018554688 c 0
 139.142578125 681.698242188 185.930664062 699.350585938 243.012695312 699.350585938 c 0
 300.094726562 699.350585938 346.883789062 681.698242188 381.876953125 646.018554688 c 0
 417.2421875 609.959960938 434.11328125 556.030273438 434.11328125 485.825195312 c 2
 434.11328125 205.025390625 l 2
243.98828125 74.3759765625 m 0
 296.208984375 74.3759765625 345.387695312 101.578125 345.387695312 204.05078125 c 2
 345.387695312 479.000976562 l 2
 345.387695312 590.689453125 295.798828125 617.451171875 243.98828125 617.451171875 c 0
 186.66796875 617.451171875 140.637695312 589.764648438 140.637695312 479.000976562 c 2
 140.637695312 204.05078125 l 2
 140.637695312 92.5595703125 196.5 74.3759765625 243.98828125 74.3759765625 c 0
EndSplineSet
EndChar

StartChar: R
Encoding: 82 82 52
Width: 465
GlyphClass: 2
Flags: MW
HStem: 0.275391 21G<59.7119 148.437 59.7119 59.7119 352.969 447.928 352.969 352.969> 294.725 79.9492<228.876 241.819> 609.65 80.9248<148.437 244.962 148.437 148.437>
VStem: 59.7119 88.7246<0.275391 294.725 0.275391 374.675 374.675 609.65> 335.638 88.7256<444.672 512.318>
LayerCount: 2
Fore
SplineSet
245.936523438 690.575195312 m 2
 354.590820312 690.575195312 424.36328125 640.41015625 424.36328125 491.674804688 c 0
 424.36328125 397.668945312 392.63671875 334.922851562 327.571289062 309.056640625 c 1
 447.927734375 0.275390625 l 1
 352.96875 0.275390625 l 1
 241.819335938 294.724609375 l 1
 148.436523438 294.724609375 l 1
 148.436523438 0.275390625 l 1
 59.7119140625 0.275390625 l 1
 59.7119140625 690.575195312 l 1
 245.936523438 690.575195312 l 2
244.963867188 374.673828125 m 0
 283.877929688 374.673828125 335.637695312 386.349609375 335.637695312 491.674804688 c 0
 335.637695312 532.961914062 328.020507812 562.74609375 314.384765625 581.603515625 c 0
 301.251953125 599.766601562 279.075195312 609.650390625 244.961914062 609.650390625 c 2
 148.436523438 609.650390625 l 1
 148.436523438 374.674804688 l 1
 180.612304688 374.674804688 212.788085938 374.673828125 244.963867188 374.673828125 c 0
EndSplineSet
EndChar

StartChar: S
Encoding: 83 83 53
Width: 426
GlyphClass: 2
Flags: MW
HStem: -6.5498 80.9248<170.445 241.535> 619.401 80.9248<203.605 242.256 187.842 257.754>
VStem: 26.5625 86.4053<193.139 202.1> 33.3848 88.7275<500.809 540.284> 310.286 88.7256<157.165 203.797>
LayerCount: 2
Fore
SplineSet
214.737304688 619.401367188 m 0xd8
 192.47265625 619.401367188 122.112304688 617.578125 122.112304688 516.05078125 c 0xd8
 122.112304688 485.56640625 129.3984375 462.784179688 142.973632812 446.611328125 c 0
 156.737304688 430.2109375 181.587890625 414.42578125 217.921875 400.403320312 c 2
 257.904296875 384.799804688 l 2
 303.75390625 366.859375 338.999023438 343.0078125 362.982421875 312.856445312 c 0
 387.385742188 282.177734375 399.01171875 240.068359375 399.01171875 187.474609375 c 0
 399.01171875 126.85546875 383.295898438 78.69921875 350.775390625 44.4482421875 c 0
 318.163085938 10.1005859375 271.2578125 -6.5498046875 211.8125 -6.5498046875 c 0
 129.077148438 -6.5498046875 29.9990234375 28.1474609375 26.5625 193.138671875 c 2
 26.3759765625 202.099609375 l 1
 112.967773438 202.099609375 l 1xe8
 115.284179688 148.048828125 122.313476562 74.375 214.736328125 74.375 c 0
 272.12890625 74.375 310.286132812 101.029296875 310.286132812 186.5 c 0
 310.286132812 221.094726562 302.815429688 245.834960938 289.424804688 261.7890625 c 0
 275.694335938 278.1484375 249.530273438 294.956054688 210.505859375 310.950195312 c 2
 171.526367188 326.541992188 l 2
 126.383789062 344.465820312 91.833984375 367.620117188 68.486328125 396.4609375 c 0
 44.7939453125 425.727539062 33.384765625 464.625 33.384765625 512.151367188 c 0
 33.384765625 568.416992188 49.42578125 614.438476562 82.1103515625 648.842773438 c 0
 114.893554688 683.350585938 159.973632812 700.326171875 215.709960938 700.326171875 c 0
 268.801757812 700.326171875 312.016601562 684.53515625 343.823242188 652.3828125 c 0
 391.057617188 604.635742188 394.072265625 534.557617188 395.497070312 501.42578125 c 1
 310.779296875 501.42578125 l 1
 308.197265625 546.057617188 300.771484375 619.401367188 214.737304688 619.401367188 c 0xd8
EndSplineSet
EndChar

StartChar: T
Encoding: 84 84 54
Width: 369
GlyphClass: 2
Flags: MW
HStem: 0.275391 21G<145.513 233.263 145.513 145.513> 609.65 80.9248<7.0625 145.513 7.0625 371.713 233.263 233.263 233.263 371.713>
VStem: 145.513 87.75<0.275391 609.65 0.275391 609.65>
LayerCount: 2
Fore
SplineSet
145.512695312 609.650390625 m 1
 7.0625 609.650390625 l 1
 7.0625 690.575195312 l 1
 371.712890625 690.575195312 l 1
 371.712890625 609.650390625 l 1
 233.262695312 609.650390625 l 1
 233.262695312 0.275390625 l 1
 145.512695312 0.275390625 l 1
 145.512695312 609.650390625 l 1
EndSplineSet
EndChar

StartChar: U
Encoding: 85 85 55
Width: 478
GlyphClass: 2
Flags: MW
HStem: -7.52539 81.9004<228.681 270.942> 670.575 20G<59.7119 148.437 148.437 148.437 339.537 428.262 428.262 428.262>
VStem: 59.7119 88.7246<180.65 184.55 184.55 690.575> 339.537 88.7246<184.55 690.575>
LayerCount: 2
Fore
SplineSet
243.98828125 -7.525390625 m 0
 136.00390625 -7.525390625 59.7119140625 68.9150390625 59.7119140625 180.650390625 c 2
 59.7119140625 690.575195312 l 1
 148.436523438 690.575195312 l 1
 148.436523438 184.549804688 l 2
 148.436523438 147.551757812 157.36328125 120.537109375 173.95703125 102.196289062 c 0
 190.611328125 83.7890625 213.374023438 74.375 243.987304688 74.375 c 0
 304.215820312 74.375 339.537109375 113.571289062 339.537109375 184.549804688 c 2
 339.537109375 690.575195312 l 1
 428.26171875 690.575195312 l 1
 428.26171875 180.650390625 l 2
 428.26171875 124.899414062 411.291015625 78.978515625 376.971679688 44.3154296875 c 0
 342.698242188 9.6982421875 297.896484375 -7.525390625 243.98828125 -7.525390625 c 0
EndSplineSet
EndChar

StartChar: V
Encoding: 86 86 56
Width: 423
GlyphClass: 2
Flags: MW
HStem: 0.275391 21G<175.666 257.719 175.666 175.666> 670.575 20G<7.59375 101.89 101.89 101.89 330.499 424.792 424.792 424.792>
LayerCount: 2
Fore
SplineSet
7.59375 690.575195312 m 1
 101.889648438 690.575195312 l 1
 216.653320312 161.7421875 l 1
 330.499023438 690.575195312 l 1
 424.791992188 690.575195312 l 1
 257.71875 0.275390625 l 1
 175.666015625 0.275390625 l 1
 7.59375 690.575195312 l 1
EndSplineSet
EndChar

StartChar: W
Encoding: 87 87 57
Width: 650
GlyphClass: 2
Flags: MW
HStem: 0.275391 21G<144.147 234.748 144.147 144.147 425.815 516.424 425.815 425.815> 670.575 20G<8.08789 100.256 100.256 100.256 277.507 385.956 385.956 385.956 562.22 650.482 650.482 650.482>
VStem: 8.08789 92.168<690.575 690.575> 562.22 88.2627<690.575 690.575>
LayerCount: 2
Fore
SplineSet
425.815429688 0.275390625 m 1
 329.829101562 527.295898438 l 1
 234.748046875 0.275390625 l 1
 144.147460938 0.275390625 l 1
 8.087890625 690.575195312 l 1
 100.255859375 690.575195312 l 1
 190.231445312 168.716796875 l 1
 277.506835938 690.575195312 l 1
 385.956054688 690.575195312 l 1
 474.087890625 168.9765625 l 1
 562.219726562 690.575195312 l 1
 650.482421875 690.575195312 l 1
 516.423828125 0.275390625 l 1
 425.815429688 0.275390625 l 1
EndSplineSet
EndChar

StartChar: X
Encoding: 88 88 58
Width: 416
GlyphClass: 2
Flags: MW
HStem: 0.275391 21G<5.33105 5.33105 5.33105 104.605 319.976 319.976 319.976 420.264> 670.575 20G<18.0654 117.301 117.301 117.301 308.232 407.563 407.563 407.563>
LayerCount: 2
Fore
SplineSet
5.3310546875 0.275390625 m 1
 162.263671875 358.119140625 l 1
 18.0654296875 690.575195312 l 1
 117.30078125 690.575195312 l 1
 213.684570312 452.828125 l 1
 308.232421875 690.575195312 l 1
 407.563476562 690.575195312 l 1
 262.34765625 359.083007812 l 1
 420.263671875 0.275390625 l 1
 319.975585938 0.275390625 l 1
 212.752929688 264.635742188 l 1
 104.60546875 0.275390625 l 1
 5.3310546875 0.275390625 l 1
EndSplineSet
EndChar

StartChar: Y
Encoding: 89 89 59
Width: 393
GlyphClass: 2
Flags: MW
HStem: 0.275391 21G<157.213 244.963 157.213 157.213> 670.575 20G<6.10254 103.058 103.058 103.058 299.118 396.073 396.073 396.073>
VStem: 157.213 87.75<0.275391 287.28 0.275391 287.28>
LayerCount: 2
Fore
SplineSet
396.073242188 690.575195312 m 1
 244.962890625 287.280273438 l 1
 244.962890625 0.275390625 l 1
 157.212890625 0.275390625 l 1
 157.212890625 287.280273438 l 1
 6.1025390625 690.575195312 l 1
 103.057617188 690.575195312 l 1
 201.087890625 401.065429688 l 1
 299.118164062 690.575195312 l 1
 396.073242188 690.575195312 l 1
EndSplineSet
EndChar

StartChar: Z
Encoding: 90 90 60
Width: 386
GlyphClass: 2
Flags: MW
HStem: 0.275391 80.9248<121.991 367.812 121.991 367.812> 609.65 80.9248<41.1875 268.507 41.1875 360.988>
LayerCount: 2
Fore
SplineSet
367.8125 81.2001953125 m 1
 367.8125 0.275390625 l 1
 30.462890625 0.275390625 l 1
 30.462890625 74.291015625 l 1
 268.506835938 609.650390625 l 1
 41.1875 609.650390625 l 1
 41.1875 690.575195312 l 1
 360.98828125 690.575195312 l 1
 360.98828125 616.552734375 l 1
 121.991210938 81.2001953125 l 1
 367.8125 81.2001953125 l 1
EndSplineSet
EndChar

StartChar: bracketleft
Encoding: 91 91 61
Width: 257
GlyphClass: 2
Flags: MW
HStem: -81.625 80.9248<144.538 216.688 144.538 216.688> 658.4 80.9248<144.538 216.688 144.538 144.538>
VStem: 59.7129 84.8252<-0.700195 658.4 -0.700195 739.325 -0.700195 739.325> 59.7129 156.975<-81.625 -0.700195 658.4 739.325>
LayerCount: 2
Fore
SplineSet
59.712890625 739.325195312 m 1xd0
 216.6875 739.325195312 l 1
 216.6875 658.400390625 l 1xd0
 144.538085938 658.400390625 l 1
 144.538085938 -0.7001953125 l 1xe0
 216.6875 -0.7001953125 l 1
 216.6875 -81.625 l 1
 59.712890625 -81.625 l 1
 59.712890625 739.325195312 l 1xd0
EndSplineSet
Substitution2: "'rtla' Right to Left Alternates lookup 0 subtable" bracketright
EndChar

StartChar: backslash
Encoding: 92 92 62
Width: 299
GlyphClass: 2
Flags: MW
HStem: 670.575 20G<48.167 129.399 129.399 129.399>
VStem: 48.167 212.241
LayerCount: 2
Fore
SplineSet
48.1669921875 690.575195312 m 1
 129.399414062 690.575195312 l 1
 260.408203125 -9.474609375 l 1
 179.176757812 -9.474609375 l 1
 48.1669921875 690.575195312 l 1
EndSplineSet
EndChar

StartChar: bracketright
Encoding: 93 93 63
Width: 256
GlyphClass: 2
Flags: MW
HStem: -81.625 80.9248<49.9629 121.138 49.9629 205.963 49.9629 121.138> 658.4 80.9248<49.9629 121.138 49.9629 205.963>
VStem: 49.9629 156<-81.625 -0.700195 -0.700195 -0.700195 658.4 739.325 -81.625 739.325> 121.138 84.8252<-0.700195 658.4 658.4 658.4>
LayerCount: 2
Fore
SplineSet
121.137695312 658.400390625 m 1xd0
 49.962890625 658.400390625 l 1
 49.962890625 739.325195312 l 1
 205.962890625 739.325195312 l 1
 205.962890625 -81.625 l 1
 49.962890625 -81.625 l 1
 49.962890625 -0.7001953125 l 1xe0
 121.137695312 -0.7001953125 l 1
 121.137695312 658.400390625 l 1xd0
EndSplineSet
Substitution2: "'rtla' Right to Left Alternates lookup 0 subtable" bracketleft
EndChar

StartChar: asciicircum
Encoding: 94 94 64
Width: 420
GlyphClass: 2
Flags: MW
HStem: 670.575 20G<176.3 252.187 252.187 252.187>
LayerCount: 2
Fore
SplineSet
176.299804688 690.575195312 m 1
 252.186523438 690.575195312 l 1
 396.71484375 273.275390625 l 1
 313.736328125 273.275390625 l 1
 214.69921875 566.717773438 l 1
 114.74609375 273.275390625 l 1
 32.7890625 273.275390625 l 1
 176.299804688 690.575195312 l 1
EndSplineSet
EndChar

StartChar: underscore
Encoding: 95 95 65
Width: 416
GlyphClass: 2
Flags: MW
HStem: -101.125 66.2998<1.21289 424.363 1.21289 424.363>
LayerCount: 2
Fore
SplineSet
1.212890625 -34.8251953125 m 1
 424.36328125 -34.8251953125 l 1
 424.36328125 -101.125 l 1
 1.212890625 -101.125 l 1
 1.212890625 -34.8251953125 l 1
EndSplineSet
EndChar

StartChar: grave
Encoding: 96 96 66
Width: 499
GlyphClass: 2
Flags: MW
HStem: 561.875 143.325<147.087 343.791 147.087 268.191>
VStem: 147.087 196.704<561.875 705.2>
LayerCount: 2
Fore
SplineSet
147.086914062 705.200195312 m 1
 242.685546875 705.200195312 l 1
 343.791015625 561.875 l 1
 268.19140625 561.875 l 1
 147.086914062 705.200195312 l 1
EndSplineSet
EndChar

StartChar: a
Encoding: 97 97 67
Width: 401
GlyphClass: 2
Flags: MW
HStem: -7.52539 75.0742<177.39 196.893> 0.275391 21G<271.288 352.213 271.288 271.288> 238.174 67.2764<199.137 205.963 205.963 268.362 199.137 268.363> 453.65 76.0498<185.387 217.764>
VStem: 40.2119 83.8506<127.019 174.974> 52.8867 79.9502<371.75 388.325 371.75 389.3 371.75 410.684> 268.363 83.8496<153.349 238.174 238.174 238.174>
LayerCount: 2
Fore
SplineSet
199.13671875 453.650390625 m 0xba
 171.63671875 453.650390625 132.836914062 443.817382812 132.836914062 388.325195312 c 2
 132.836914062 371.75 l 1
 52.88671875 371.75 l 1
 52.88671875 389.299804688 l 2
 52.88671875 432.068359375 66.1552734375 466.9375 93.208984375 492.234375 c 0
 120.126953125 517.405273438 155.87890625 529.700195312 199.137695312 529.700195312 c 0
 247.505859375 529.700195312 285.9375 516.325195312 312.7109375 488.494140625 c 0
 339.359375 460.793945312 352.212890625 422.366210938 352.212890625 374.674804688 c 2
 352.212890625 0.275390625 l 1
 271.288085938 0.275390625 l 1x76
 271.288085938 30.0751953125 l 1
 247.715820312 5.12109375 216.09765625 -7.525390625 177.6875 -7.525390625 c 0
 134.20703125 -7.525390625 99.439453125 6.482421875 75.4140625 35.1005859375 c 0
 51.56640625 63.5068359375 40.2119140625 102.637695312 40.2119140625 151.400390625 c 0
 40.2119140625 198.546875 53.6474609375 236.717773438 81.2958984375 264.366210938 c 0
 109.077148438 292.1484375 148.895507812 305.450195312 199.13671875 305.450195312 c 2
 268.362304688 305.450195312 l 1
 268.362304688 377.599609375 l 2
 268.362304688 439.046875 236.391601562 453.650390625 199.13671875 453.650390625 c 0xba
193.288085938 67.548828125 m 0xba
 221.575195312 67.548828125 268.36328125 78.814453125 268.36328125 153.348632812 c 2
 268.36328125 238.173828125 l 1
 205.962890625 238.173828125 l 2
 158.310546875 238.173828125 124.0625 218.271484375 124.0625 152.374023438 c 0
 124.0625 78.822265625 161.491210938 67.548828125 193.288085938 67.548828125 c 0xba
EndSplineSet
EndChar

StartChar: b
Encoding: 98 98 68
Width: 412
GlyphClass: 2
Flags: MW
HStem: -7.52539 77.0254<212.521 240.768 188.604 251.268> 0.275391 21G<58.7373 142.587 58.7373 58.7373> 452.675 77.0254<211.758 229.75> 670.575 20G<58.7373 142.587 142.587 142.587>
VStem: 58.7373 83.8496<0.275391 9.0498 9.0498 28.8633 491.528 690.575> 287.861 83.8516<180.65 341.525 341.525 349.325>
LayerCount: 2
Fore
SplineSet
229.36328125 529.700195312 m 0x7c
 271.827148438 529.700195312 306.94140625 514.493164062 333.0234375 484.237304688 c 0
 359.397460938 453.643554688 371.712890625 408.291992188 371.712890625 349.325195312 c 2
 371.712890625 172.849609375 l 2
 371.712890625 113.8828125 359.397460938 68.53125 333.0234375 37.9375 c 0
 306.971679688 7.7177734375 272.197265625 -7.525390625 230.337890625 -7.525390625 c 0xbc
 194.703125 -7.525390625 165.083007812 4.794921875 142.586914062 28.86328125 c 1
 142.586914062 9.0498046875 l 1
 142.586914062 0.275390625 l 1
 58.7373046875 0.275390625 l 1
 58.7373046875 690.575195312 l 1
 142.586914062 690.575195312 l 1
 142.586914062 491.528320312 l 1
 164.888671875 516.6875 194.153320312 529.700195312 229.36328125 529.700195312 c 0x7c
217.661132812 69.5 m 0
 263.875 69.5 287.861328125 99.48046875 287.861328125 180.650390625 c 2
 287.861328125 341.525390625 l 2
 287.861328125 445.926757812 241.83984375 452.674804688 217.661132812 452.674804688 c 0
 177.427734375 452.674804688 142.5859375 427.55859375 142.5859375 340.549804688 c 2
 142.5859375 179.674804688 l 2
 142.5859375 120.330078125 159.547851562 69.5 217.661132812 69.5 c 0
EndSplineSet
EndChar

StartChar: c
Encoding: 99 99 69
Width: 409
GlyphClass: 2
Flags: MW
HStem: -7.52539 77.0254<186.615 227.49 182.077 236.055> 452.676 77.0244<198.455 227.953>
VStem: 49.9629 83.8496<172.85 180.651 180.651 341.526> 284.938 83.8506<162.125 163.1 163.1 184.55 135.466 184.55 337.626 360.051>
LayerCount: 2
Fore
SplineSet
210.837890625 69.5 m 0
 244.142578125 69.5 284.9375 81.302734375 284.9375 162.125 c 2
 284.9375 184.549804688 l 1
 368.788085938 184.549804688 l 1
 368.788085938 163.099609375 l 2
 368.788085938 107.833007812 355.481445312 64.83203125 327.330078125 35.625 c 0
 299.353515625 6.5986328125 260.297851562 -7.525390625 211.8125 -7.525390625 c 0
 161.41796875 -7.525390625 121.055664062 6.890625 92.3974609375 36.5966796875 c 0
 63.4658203125 66.587890625 49.962890625 112.51953125 49.962890625 172.849609375 c 2
 49.962890625 349.325195312 l 2
 49.962890625 409.655273438 63.4658203125 455.587890625 92.3974609375 485.578125 c 0
 121.030273438 515.2578125 161.060546875 529.700195312 210.836914062 529.700195312 c 0
 275.7421875 529.700195312 368.788085938 504.508789062 368.788085938 360.05078125 c 2
 368.788085938 337.625976562 l 1
 284.9375 337.625976562 l 1
 284.9375 360.05078125 l 2
 284.9375 441.408203125 244.092773438 452.67578125 211.8125 452.67578125 c 0
 185.09765625 452.67578125 166.499023438 444.44140625 153.818359375 428.66015625 c 0
 141.30859375 413.092773438 133.8125 384.279296875 133.8125 341.526367188 c 2
 133.8125 180.651367188 l 2
 133.8125 108.779296875 153.31640625 69.5 210.837890625 69.5 c 0
EndSplineSet
EndChar

StartChar: d
Encoding: 100 100 70
Width: 412
GlyphClass: 2
Flags: MW
HStem: -7.52539 77.0254<180.908 209.155> 0.275391 21G<279.088 362.938 279.088 279.088> 452.675 77.0254<191.92 209.193 170.408 217.886> 670.575 20G<279.088 362.938 362.938 362.938>
VStem: 49.9629 83.8496<172.85 180.65 180.65 341.525> 279.088 83.8496<0.275391 28.8623 28.8623 28.8623 179.675 340.55 340.55 392.329 491.479 690.575 0.275391 690.575>
LayerCount: 2
Fore
SplineSet
49.962890625 172.849609375 m 2xbc
 49.962890625 349.325195312 l 2
 49.962890625 408.291992188 62.2783203125 453.643554688 88.65234375 484.237304688 c 0
 114.704101562 514.45703125 149.478515625 529.700195312 191.337890625 529.700195312 c 0
 227.047851562 529.700195312 256.651367188 516.694335938 279.087890625 491.479492188 c 1
 279.087890625 690.575195312 l 1
 362.9375 690.575195312 l 1
 362.9375 0.275390625 l 1
 279.087890625 0.275390625 l 1x7c
 279.087890625 28.8623046875 l 1
 256.592773438 4.794921875 226.97265625 -7.525390625 191.337890625 -7.525390625 c 0
 149.478515625 -7.525390625 114.704101562 7.7177734375 88.65234375 37.9375 c 0
 62.2783203125 68.53125 49.962890625 113.8828125 49.962890625 172.849609375 c 2xbc
204.012695312 69.5 m 0xbc
 244.450195312 69.5 279.087890625 94.390625 279.087890625 179.674804688 c 2
 279.087890625 340.549804688 l 2
 279.087890625 444.108398438 231.759765625 452.674804688 204.012695312 452.674804688 c 0
 179.827148438 452.674804688 133.8125 445.919921875 133.8125 341.525390625 c 2
 133.8125 180.650390625 l 2
 133.8125 99.4794921875 157.802734375 69.5 204.012695312 69.5 c 0xbc
EndSplineSet
EndChar

StartChar: e
Encoding: 101 101 71
Width: 408
GlyphClass: 2
Flags: MW
HStem: -7.52539 75.0752<180.496 228.156 180.496 235.066> 232.325 68.249<133.812 284.938 133.812 367.812 133.812 284.938> 452.674 77.0264<183.554 232.274 183.554 238.284>
VStem: 49.9629 83.8496<180.65 181.624 181.624 232.325 300.574 341.524> 284.938 82.875<300.574 343.474 343.474 343.475 232.325 376.181>
LayerCount: 2
Fore
SplineSet
210.837890625 -7.525390625 m 0
 124.985351562 -7.525390625 49.962890625 34.3359375 49.962890625 180.650390625 c 2
 49.962890625 343.474609375 l 2
 49.962890625 403.202148438 63.3515625 449.7421875 91.6376953125 481.869140625 c 0
 119.831054688 513.891601562 159.1953125 529.700195312 207.913085938 529.700195312 c 0
 256.634765625 529.700195312 296.26953125 513.896484375 325.091796875 481.94921875 c 0
 354.069335938 449.830078125 367.8125 403.236328125 367.8125 343.474609375 c 2
 367.8125 232.325195312 l 1
 133.8125 232.325195312 l 1
 133.8125 181.624023438 l 2
 133.8125 119.8203125 148.204101562 67.5498046875 212.788085938 67.5498046875 c 0
 243.5234375 67.5498046875 283.962890625 78.0537109375 283.962890625 159.200195312 c 2
 283.962890625 171.875 l 1
 366.837890625 171.875 l 1
 366.837890625 160.174804688 l 2
 366.837890625 106.182617188 353.670898438 63.99609375 325.869140625 35.138671875 c 0
 298.194335938 6.4130859375 259.293945312 -7.525390625 210.837890625 -7.525390625 c 0
208.887695312 452.673828125 m 0
 154.778320312 452.673828125 133.8125 415.124023438 133.8125 341.524414062 c 2
 133.8125 300.57421875 l 1
 284.9375 300.57421875 l 1
 284.9375 343.473632812 l 2
 284.9375 408.887695312 267.6796875 452.673828125 208.887695312 452.673828125 c 0
EndSplineSet
EndChar

StartChar: f
Encoding: 102 102 72
Width: 291
GlyphClass: 2
Flags: MW
HStem: 0.275391 21G<99.6885 183.539 99.6885 99.6885> 452.675 69.2256<39.2383 99.6885 39.2383 99.6885 183.539 270.313> 620.375 70.2002<236.188 242.039 242.039 270.313>
VStem: 99.6885 83.8506<0.275391 452.675 0.275391 452.675 521.9 550.175 550.175 558.95>
LayerCount: 2
Fore
SplineSet
99.6884765625 550.174804688 m 2
 99.6884765625 642.88671875 149.915039062 690.575195312 236.188476562 690.575195312 c 2
 270.313476562 690.575195312 l 1
 270.313476562 620.375 l 1
 242.0390625 620.375 l 2
 219.1484375 620.375 204.703125 615.009765625 196.75390625 606.564453125 c 0
 188.671875 597.975585938 183.5390625 582.583984375 183.5390625 558.950195312 c 2
 183.5390625 521.900390625 l 1
 270.313476562 521.900390625 l 1
 270.313476562 452.674804688 l 1
 183.5390625 452.674804688 l 1
 183.5390625 0.275390625 l 1
 99.6884765625 0.275390625 l 1
 99.6884765625 452.674804688 l 1
 39.23828125 452.674804688 l 1
 39.23828125 521.900390625 l 1
 99.6884765625 521.900390625 l 1
 99.6884765625 550.174804688 l 2
EndSplineSet
EndChar

StartChar: g
Encoding: 103 103 73
Width: 412
GlyphClass: 2
Flags: MW
HStem: -157.675 75.0752<195.053 223.027 195.053 231.897> 31.4746 77.0254<180.285 209.284> 452.675 77.0254<174.095 209.333 170.408 218.01> 501.9 20G<279.088 362.938 362.938 362.938>
VStem: 49.9629 83.8496<210.875 218.675 218.675 342.5> 279.088 83.8496<18.7998 24.6504 24.6504 66.9092 66.9092 66.9092 218.675 341.525 341.525 392.745 491.846 521.9>
LayerCount: 2
Fore
SplineSet
205.963867188 -82.599609375 m 0xdc
 240.090820312 -82.599609375 279.087890625 -71.3837890625 279.087890625 18.7998046875 c 2
 279.087890625 66.9091796875 l 1
 256.87890625 43.423828125 227.23046875 31.474609375 191.337890625 31.474609375 c 0
 149.478515625 31.474609375 114.704101562 46.7177734375 88.65234375 76.9375 c 0
 62.296875 107.509765625 49.962890625 152.537109375 49.962890625 210.875 c 2
 49.962890625 350.299804688 l 2
 49.962890625 408.637695312 62.296875 453.665039062 88.65234375 484.237304688 c 0
 114.704101562 514.45703125 149.478515625 529.700195312 191.337890625 529.700195312 c 0xec
 227.328125 529.700195312 256.955078125 516.844726562 279.087890625 491.845703125 c 1
 279.087890625 521.900390625 l 1
 362.9375 521.900390625 l 1
 362.9375 24.650390625 l 2
 362.9375 -29.955078125 350.446289062 -74.30859375 324.518554688 -107.49609375 c 0
 298.142578125 -141.2578125 257.831054688 -157.674804688 205.962890625 -157.674804688 c 0
 160.293945312 -157.674804688 123.548828125 -145.861328125 97.1162109375 -121.190429688 c 0
 57.88671875 -84.5771484375 56.3603515625 -37.9873046875 55.521484375 -12.400390625 c 1
 136.223632812 -12.400390625 l 1
 137.306640625 -30.271484375 138.459960938 -49.3134765625 156.356445312 -65.931640625 c 0
 168.052734375 -76.7919921875 184.142578125 -82.599609375 205.963867188 -82.599609375 c 0xdc
204.013671875 108.5 m 0
 244.46875 108.5 279.087890625 133.411132812 279.087890625 218.674804688 c 2
 279.087890625 341.525390625 l 2
 279.087890625 443.96484375 232.0078125 452.674804688 204.012695312 452.674804688 c 0
 144.176757812 452.674804688 133.8125 396.07421875 133.8125 342.5 c 2
 133.8125 218.674804688 l 2
 133.8125 139.408203125 156.555664062 108.5 204.013671875 108.5 c 0
EndSplineSet
EndChar

StartChar: h
Encoding: 104 104 74
Width: 416
GlyphClass: 2
Flags: MW
HStem: 0.275391 21G<58.7383 142.588 58.7383 58.7383 282.988 282.988 282.988 366.839> 452.675 77.0254<207.97 223.831> 670.575 20G<58.7383 142.588 142.588 142.588>
VStem: 58.7383 83.8496<0.275391 370.775 494.09 690.575> 282.988 83.8506<0.275391 370.775 370.775 373.7 0.275391 384.715>
LayerCount: 2
Fore
SplineSet
212.788085938 452.674804688 m 0
 180.595703125 452.674804688 142.587890625 434.834960938 142.587890625 370.775390625 c 2
 142.587890625 0.275390625 l 1
 58.73828125 0.275390625 l 1
 58.73828125 690.575195312 l 1
 142.587890625 690.575195312 l 1
 142.587890625 494.08984375 l 1
 155.12890625 506.58984375 184.625976562 529.700195312 231.313476562 529.700195312 c 0
 273.518554688 529.700195312 307.573242188 516.005859375 331.56640625 488.1328125 c 0
 355.471679688 460.360351562 366.838867188 421.828125 366.838867188 373.700195312 c 2
 366.838867188 0.275390625 l 1
 282.98828125 0.275390625 l 1
 282.98828125 370.775390625 l 2
 282.98828125 398.655273438 276.19140625 418.654296875 263.844726562 432.124023438 c 0
 251.34765625 445.756835938 234.874023438 452.674804688 212.788085938 452.674804688 c 0
EndSplineSet
EndChar

StartChar: i
Encoding: 105 105 75
Width: 205
GlyphClass: 2
Flags: MW
HStem: 0.275391 21G<64.5879 148.438 64.5879 64.5879> 501.9 20G<64.5879 148.438 148.438 148.438> 584.3 105.3<64.5879 149.413 64.5879 149.413>
VStem: 64.5879 83.8496<0.275391 521.9 0.275391 521.9 0.275391 689.6>
LayerCount: 2
Fore
SplineSet
64.587890625 521.900390625 m 1
 148.4375 521.900390625 l 1
 148.4375 0.275390625 l 1
 64.587890625 0.275390625 l 1
 64.587890625 521.900390625 l 1
64.587890625 689.599609375 m 1
 149.413085938 689.599609375 l 1
 149.413085938 584.299804688 l 1
 64.587890625 584.299804688 l 1
 64.587890625 689.599609375 l 1
EndSplineSet
EndChar

StartChar: j
Encoding: 106 106 76
Width: 201
GlyphClass: 2
Flags: MW
HStem: -147.925 77.0244<-23.1621 0.238281 0.238281 2.1875 -23.1621 0.238281> 501.9 20G<60.6885 145.514 145.514 145.514> 584.3 105.3<60.6875 145.513 60.6875 145.513>
VStem: 60.6885 84.8252<-2.65039 521.9>
LayerCount: 2
Fore
SplineSet
60.6875 689.599609375 m 1
 145.512695312 689.599609375 l 1
 145.512695312 584.299804688 l 1
 60.6875 584.299804688 l 1
 60.6875 689.599609375 l 1
145.513671875 -5.5751953125 m 2
 145.513671875 -59.04296875 126.776367188 -147.924804688 2.1875 -147.924804688 c 2
 -23.162109375 -147.924804688 l 1
 -23.162109375 -70.900390625 l 1
 0.23828125 -70.900390625 l 2
 31.38671875 -70.900390625 60.6884765625 -59.248046875 60.6884765625 -2.650390625 c 2
 60.6884765625 521.900390625 l 1
 145.513671875 521.900390625 l 1
 145.513671875 -5.5751953125 l 2
EndSplineSet
EndChar

StartChar: k
Encoding: 107 107 77
Width: 409
GlyphClass: 2
Flags: MW
HStem: 0.275391 21G<58.7383 142.588 58.7383 58.7383 312.489 408.178 312.489 312.489> 501.9 20G<297.698 392.237 392.237 392.237> 670.575 20G<58.7383 142.588 142.588 142.588>
VStem: 58.7383 83.8496<0.275391 155.526 280.716 690.575>
LayerCount: 2
Fore
SplineSet
312.489257812 0.275390625 m 1
 200.625 240.923828125 l 1
 142.587890625 155.526367188 l 1
 142.587890625 0.275390625 l 1
 58.73828125 0.275390625 l 1
 58.73828125 690.575195312 l 1
 142.587890625 690.575195312 l 1
 142.587890625 280.715820312 l 1
 297.698242188 521.900390625 l 1
 392.237304688 521.900390625 l 1
 253.135742188 318.361328125 l 1
 408.177734375 0.275390625 l 1
 312.489257812 0.275390625 l 1
EndSplineSet
EndChar

StartChar: l
Encoding: 108 108 78
Width: 239
GlyphClass: 2
Flags: MW
HStem: 0.275391 77.0244<175.146 227.414 204.014 227.414 204.014 227.414> 670.575 20G<58.7383 143.563 143.563 143.563>
VStem: 58.7383 84.8252<142.625 145.55 145.55 690.575>
LayerCount: 2
Fore
SplineSet
202.063476562 0.275390625 m 2
 148.227539062 0.275390625 58.73828125 18.884765625 58.73828125 142.625 c 2
 58.73828125 690.575195312 l 1
 143.563476562 690.575195312 l 1
 143.563476562 145.549804688 l 2
 143.563476562 88.9560546875 172.860351562 77.2998046875 204.013671875 77.2998046875 c 2
 227.4140625 77.2998046875 l 1
 227.4140625 0.275390625 l 1
 202.063476562 0.275390625 l 2
EndSplineSet
EndChar

StartChar: m
Encoding: 109 109 79
Width: 641
GlyphClass: 2
Flags: MW
HStem: 0.274414 21G<282.988 366.839 282.988 282.988 506.264 591.089 506.264 506.264> 452.674 77.0254<208.417 223.806 426.997 448.698> 501.9 20G<58.7383 141.613 141.613 141.613>
VStem: 58.7383 84.8242<0.275391 370.775 0.275391 521.9> 282.988 83.8506<0.274414 370.774 370.774 371.749 0.274414 384.363> 506.264 84.8252<0.274414 370.774 370.774 373.699 0.274414 384.732>
LayerCount: 2
Fore
SplineSet
212.788085938 452.673828125 m 0xdc
 174.024414062 452.673828125 143.5625 427.208007812 143.5625 370.775390625 c 2
 143.5625 0.275390625 l 1
 58.73828125 0.275390625 l 1
 58.73828125 521.900390625 l 1
 141.61328125 521.900390625 l 1xbc
 141.61328125 492.987304688 l 1
 156.469726562 508.232421875 185.521484375 529.69921875 231.313476562 529.69921875 c 0
 257.032226562 529.69921875 306.290039062 522.580078125 340.744140625 473.5859375 c 1
 356.650390625 495.1015625 391.57421875 529.69921875 451.6640625 529.69921875 c 0
 496.305664062 529.69921875 531.702148438 516.145507812 555.81640625 488.131835938 c 0
 579.721679688 460.359375 591.088867188 421.827148438 591.088867188 373.69921875 c 2
 591.088867188 0.2744140625 l 1
 506.263671875 0.2744140625 l 1
 506.263671875 370.774414062 l 2
 506.263671875 398.690429688 499.59765625 418.737304688 487.5390625 432.198242188 c 0
 475.336914062 445.819335938 459.381835938 452.673828125 438.013671875 452.673828125 c 0
 415.98046875 452.673828125 399.328125 445.634765625 386.46484375 431.62890625 c 0
 373.6796875 417.708007812 366.838867188 398.190429688 366.838867188 371.749023438 c 2
 366.838867188 0.2744140625 l 1
 282.98828125 0.2744140625 l 1
 282.98828125 370.774414062 l 2
 282.98828125 397.951171875 276.237304688 417.833984375 263.783203125 431.702148438 c 0
 251.266601562 445.641601562 234.82421875 452.673828125 212.788085938 452.673828125 c 0xdc
EndSplineSet
EndChar

StartChar: n
Encoding: 110 110 80
Width: 416
GlyphClass: 2
Flags: MW
HStem: 0.274414 21G<282.988 366.839 282.988 282.988> 452.674 77.0254<207.656 223.831> 501.9 20G<58.7383 140.639 140.639 140.639>
VStem: 58.7383 83.8496<0.275391 370.775 0.275391 521.9> 282.988 83.8506<0.274414 370.774 370.774 373.699 0.274414 384.714>
LayerCount: 2
Fore
SplineSet
140.638671875 492.890625 m 1xb8
 154.336914062 506.83984375 183.999023438 529.69921875 231.313476562 529.69921875 c 0
 273.548828125 529.69921875 307.623046875 515.8125 331.6015625 487.602539062 c 0
 355.4453125 459.551757812 366.838867188 421.208007812 366.838867188 373.69921875 c 2
 366.838867188 0.2744140625 l 1
 282.98828125 0.2744140625 l 1
 282.98828125 370.774414062 l 2
 282.98828125 398.654296875 276.19140625 418.653320312 263.844726562 432.123046875 c 0
 251.34765625 445.755859375 234.874023438 452.673828125 212.788085938 452.673828125 c 0xd8
 191.4765625 452.673828125 175.127929688 445.69140625 162.213867188 431.62890625 c 0
 149.469726562 417.751953125 142.587890625 397.913085938 142.587890625 370.775390625 c 2
 142.587890625 0.275390625 l 1
 58.73828125 0.275390625 l 1
 58.73828125 521.900390625 l 1
 140.638671875 521.900390625 l 1
 140.638671875 492.890625 l 1xb8
EndSplineSet
EndChar

StartChar: o
Encoding: 111 111 81
Width: 409
GlyphClass: 2
Flags: MW
HStem: -7.52539 77.0254<185.949 235.119> 452.676 77.0244<185.949 235.119 185.949 236.921>
VStem: 49.9629 83.8496<172.85 180.651 180.651 341.526> 284.938 83.8496<180.651 341.526 341.526 349.325>
LayerCount: 2
Fore
SplineSet
49.962890625 172.849609375 m 2
 49.962890625 349.325195312 l 2
 49.962890625 409.655273438 63.4658203125 455.587890625 92.3974609375 485.578125 c 0
 121.030273438 515.2578125 161.060546875 529.700195312 210.836914062 529.700195312 c 0
 259.400390625 529.700195312 298.654296875 515.016601562 326.912109375 485.013671875 c 0
 355.434570312 454.73046875 368.787109375 409.016601562 368.787109375 349.325195312 c 2
 368.787109375 172.849609375 l 2
 368.787109375 113.158203125 355.434570312 67.4443359375 326.912109375 37.1611328125 c 0
 298.654296875 7.158203125 259.400390625 -7.525390625 210.836914062 -7.525390625 c 0
 161.060546875 -7.525390625 121.030273438 6.91796875 92.3974609375 36.5966796875 c 0
 63.4658203125 66.587890625 49.962890625 112.51953125 49.962890625 172.849609375 c 2
209.86328125 69.5 m 0
 263.973632812 69.5 284.9375 107.052734375 284.9375 180.651367188 c 2
 284.9375 341.526367188 l 2
 284.9375 415.114257812 263.979492188 452.67578125 209.86328125 452.67578125 c 0
 150.907226562 452.67578125 133.8125 408.994140625 133.8125 341.526367188 c 2
 133.8125 180.651367188 l 2
 133.8125 113.1875 150.903320312 69.5 209.86328125 69.5 c 0
EndSplineSet
EndChar

StartChar: p
Encoding: 112 112 82
Width: 412
GlyphClass: 2
Flags: MW
HStem: -7.52539 77.0254<212.532 240.768 188.604 251.268> 452.675 77.0254<211.758 229.75> 501.9 20G<58.7383 142.587 142.587 142.587>
VStem: 58.7383 83.8496<-147.925 28.25 -147.925 521.9> 287.861 83.8516<180.65 341.525 341.525 349.325>
LayerCount: 2
Fore
SplineSet
58.73828125 521.900390625 m 1xb8
 142.586914062 521.900390625 l 1xb8
 142.586914062 491.528320312 l 1
 164.888671875 516.6875 194.153320312 529.700195312 229.36328125 529.700195312 c 0xd8
 271.827148438 529.700195312 306.94140625 514.493164062 333.0234375 484.237304688 c 0
 359.397460938 453.643554688 371.712890625 408.291992188 371.712890625 349.325195312 c 2
 371.712890625 172.849609375 l 2
 371.712890625 113.8828125 359.397460938 68.53125 333.0234375 37.9375 c 0
 306.971679688 7.7177734375 272.197265625 -7.525390625 230.337890625 -7.525390625 c 0
 194.7265625 -7.525390625 165.102539062 4.56640625 142.587890625 28.25 c 1
 142.587890625 -147.924804688 l 1
 58.73828125 -147.924804688 l 1
 58.73828125 521.900390625 l 1xb8
217.661132812 69.5 m 0
 263.875 69.5 287.861328125 99.48046875 287.861328125 180.650390625 c 2
 287.861328125 341.525390625 l 2
 287.861328125 445.926757812 241.83984375 452.674804688 217.661132812 452.674804688 c 0xd8
 177.427734375 452.674804688 142.5859375 427.55859375 142.5859375 340.549804688 c 2
 142.5859375 179.674804688 l 2
 142.5859375 120.330078125 159.547851562 69.5 217.661132812 69.5 c 0
EndSplineSet
EndChar

StartChar: q
Encoding: 113 113 83
Width: 412
GlyphClass: 2
Flags: MW
HStem: -7.52539 77.0254<180.917 209.142> 452.675 77.0254<191.918 209.917 171.08 217.885> 501.9 20G<279.088 362.938 362.938 362.938>
VStem: 49.9619 83.8486<172.85 180.65 180.65 341.525> 279.088 83.8496<-147.925 28.25 28.25 28.25 491.528 521.9 -147.925 521.9>
LayerCount: 2
Fore
SplineSet
279.087890625 491.528320312 m 1xd8
 279.087890625 521.900390625 l 1
 362.9375 521.900390625 l 1xb8
 362.9375 -147.924804688 l 1
 279.087890625 -147.924804688 l 1
 279.087890625 28.25 l 1
 256.573242188 4.56640625 226.947265625 -7.525390625 191.336914062 -7.525390625 c 0
 149.477539062 -7.525390625 114.703125 7.7177734375 88.6513671875 37.9375 c 0
 62.27734375 68.53125 49.9619140625 113.8828125 49.9619140625 172.849609375 c 2
 49.9619140625 349.325195312 l 2
 49.9619140625 408.291992188 62.27734375 453.643554688 88.6513671875 484.237304688 c 0
 114.733398438 514.493164062 149.84765625 529.700195312 192.311523438 529.700195312 c 0
 227.521484375 529.700195312 256.78515625 516.6875 279.087890625 491.528320312 c 1xd8
204.01171875 69.5 m 0
 244.466796875 69.5 279.0859375 94.4111328125 279.0859375 179.674804688 c 2
 279.0859375 340.549804688 l 2
 279.0859375 444.108398438 231.758789062 452.674804688 204.010742188 452.674804688 c 0xd8
 179.825195312 452.674804688 133.810546875 445.919921875 133.810546875 341.525390625 c 2
 133.810546875 180.650390625 l 2
 133.810546875 99.4482421875 157.821289062 69.5 204.01171875 69.5 c 0
EndSplineSet
EndChar

StartChar: r
Encoding: 114 114 84
Width: 293
GlyphClass: 2
Flags: MW
HStem: 0.275391 21G<58.7383 142.588 58.7383 58.7383> 452.675 77.0254<212.124 234.986> 501.9 20G<58.7383 140.638 140.638 140.638>
VStem: 58.7383 83.8496<0.275391 366.875 0.275391 521.9>
LayerCount: 2
Fore
SplineSet
140.637695312 490.583984375 m 1xb0
 155.298828125 506.747070312 185.258789062 529.700195312 237.163085938 529.700195312 c 0
 258.7265625 529.700195312 269.389648438 527.034179688 282.012695312 523.877929688 c 1
 282.012695312 440.499023438 l 1
 261.138671875 447.45703125 245.483398438 452.674804688 224.48828125 452.674804688 c 0xd0
 199.758789062 452.674804688 180.51171875 445.041992188 165.366210938 429.896484375 c 0
 150.395507812 414.92578125 142.587890625 394.423828125 142.587890625 366.875 c 2
 142.587890625 0.275390625 l 1
 58.73828125 0.275390625 l 1
 58.73828125 521.900390625 l 1
 140.637695312 521.900390625 l 1
 140.637695312 490.583984375 l 1xb0
EndSplineSet
EndChar

StartChar: s
Encoding: 115 115 85
Width: 383
GlyphClass: 2
Flags: MW
HStem: -7.52539 76.0508<172.636 210.074 163.807 245.691> 454.626 75.0752<188.326 222.084 176.207 229.194>
VStem: 40.2158 78.9746<144.575 159.2 130.358 159.2> 45.0908 83.8486<368.619 405.204> 273.24 83.8486<127.812 150.707>
LayerCount: 2
Fore
SplineSet
357.088867188 145.549804688 m 0xd8
 357.088867188 48.359375 295.169921875 -7.525390625 196.212890625 -7.525390625 c 0
 149.05859375 -7.525390625 110.618164062 5.912109375 82.3505859375 33.4814453125 c 0
 54.076171875 61.056640625 40.2158203125 98.609375 40.2158203125 144.575195312 c 2
 40.2158203125 159.200195312 l 1
 119.190429688 159.200195312 l 1
 119.190429688 144.575195312 l 2xe8
 119.190429688 116.141601562 129.448242188 68.525390625 198.166015625 68.525390625 c 0
 221.981445312 68.525390625 239.981445312 74.69921875 253.338867188 86.3515625 c 0
 266.166992188 97.5419921875 273.240234375 114.950195312 273.240234375 140.674804688 c 0
 273.240234375 160.73828125 268.408203125 175.388671875 259.701171875 185.727539062 c 0
 250.71484375 196.399414062 234.423828125 207.280273438 210.405273438 217.392578125 c 0
 210.366210938 217.408203125 147.0390625 243.713867188 147.0390625 243.713867188 c 2
 80.2626953125 271.368164062 45.0908203125 318.614257812 45.0908203125 383.450195312 c 0
 45.0908203125 426.958007812 59.0771484375 462.909179688 87.3095703125 489.748046875 c 0
 115.538085938 516.583007812 153.272460938 529.701171875 199.140625 529.701171875 c 0
 245.028320312 529.701171875 282.513671875 516.397460938 310.116210938 489.14453125 c 0
 337.69140625 461.916992188 351.239257812 425.206054688 351.239257812 380.526367188 c 2
 351.239257812 359.076171875 l 1
 272.264648438 359.076171875 l 1
 272.264648438 373.701171875 l 2
 272.264648438 409.063476562 260.22265625 454.625976562 198.165039062 454.625976562 c 0
 178.486328125 454.625976562 128.939453125 448.637695312 128.939453125 388.326171875 c 0
 128.939453125 348.911132812 152.90625 330.215820312 184.94921875 316.483398438 c 0
 185.0390625 316.4453125 248.322265625 290.159179688 248.322265625 290.159179688 c 2
 283.603515625 275.513671875 310.6953125 257.659179688 329.1484375 236.072265625 c 0
 348.153320312 213.83984375 357.088867188 183.284179688 357.088867188 145.549804688 c 0xd8
EndSplineSet
EndChar

StartChar: t
Encoding: 116 116 86
Width: 298
GlyphClass: 2
Flags: MW
HStem: 0.275391 76.0498<212.74 264.463 242.038 264.463 242.038 264.463> 452.675 69.2256<27.5381 91.8877 27.5381 91.8877 175.738 272.263>
VStem: 91.8877 83.8506<141.65 144.575 144.575 452.675 521.9 624.069 624.069 624.069>
LayerCount: 2
Fore
SplineSet
239.11328125 0.275390625 m 2
 186.3671875 0.275390625 91.8876953125 13.5498046875 91.8876953125 141.650390625 c 2
 91.8876953125 452.674804688 l 1
 27.5380859375 452.674804688 l 1
 27.5380859375 521.900390625 l 1
 91.8876953125 521.900390625 l 1
 91.8876953125 624.069335938 l 1
 175.73828125 662.294921875 l 1
 175.73828125 521.900390625 l 1
 272.262695312 521.900390625 l 1
 272.262695312 452.674804688 l 1
 175.73828125 452.674804688 l 1
 175.73828125 144.575195312 l 2
 175.73828125 95.90234375 197.921875 76.3251953125 242.038085938 76.3251953125 c 2
 264.462890625 76.3251953125 l 1
 264.462890625 0.275390625 l 1
 239.11328125 0.275390625 l 2
EndSplineSet
EndChar

StartChar: u
Encoding: 117 117 87
Width: 416
GlyphClass: 2
Flags: MW
HStem: -7.52539 77.0254<198.898 239.702 198.898 264.562> 501.9 20G<58.7383 142.589 142.589 142.589 282.988 366.838 366.838 366.838>
VStem: 58.7383 83.8506<182.549 208.925 208.925 521.9> 282.988 83.8496<208.925 521.9>
LayerCount: 2
Fore
SplineSet
212.788085938 -7.525390625 m 0
 108.939453125 -7.525390625 58.73828125 50.255859375 58.73828125 164.075195312 c 2
 58.73828125 521.900390625 l 1
 142.588867188 521.900390625 l 1
 142.588867188 208.924804688 l 2
 142.588867188 156.172851562 148.165039062 119.11328125 157.842773438 98.583984375 c 0
 166.84375 79.4921875 184.033203125 69.5 213.763671875 69.5 c 0
 265.640625 69.5 282.98828125 95.234375 282.98828125 208.924804688 c 2
 282.98828125 521.900390625 l 1
 366.837890625 521.900390625 l 1
 366.837890625 164.075195312 l 2
 366.837890625 49.9208984375 316.3359375 -7.525390625 212.788085938 -7.525390625 c 0
EndSplineSet
EndChar

StartChar: v
Encoding: 118 118 88
Width: 372
GlyphClass: 2
Flags: MW
HStem: 0.275391 21G<150.446 230.268 150.446 150.446> 501.9 20G<13.2295 103.702 103.702 103.702 277.982 368.493 368.493 368.493>
LayerCount: 2
Fore
SplineSet
13.2294921875 521.900390625 m 1
 103.702148438 521.900390625 l 1
 191.293945312 152.569335938 l 1
 277.982421875 521.900390625 l 1
 368.493164062 521.900390625 l 1
 230.267578125 0.275390625 l 1
 150.446289062 0.275390625 l 1
 13.2294921875 521.900390625 l 1
EndSplineSet
EndChar

StartChar: w
Encoding: 119 119 89
Width: 574
GlyphClass: 2
Flags: MW
HStem: 0.275391 21G<131.675 210.041 131.675 131.675 371.569 448.899 371.569 371.569> 501.9 20G<13.6289 104.018 104.018 104.018 254.507 325.086 325.086 325.086 477.559 568.964 568.964 568.964>
LayerCount: 2
Fore
SplineSet
13.62890625 521.900390625 m 1
 104.017578125 521.900390625 l 1
 173.473632812 159.478515625 l 1
 254.506835938 521.900390625 l 1
 325.0859375 521.900390625 l 1
 408.009765625 158.99609375 l 1
 477.55859375 521.900390625 l 1
 568.963867188 521.900390625 l 1
 448.899414062 0.275390625 l 1
 371.569335938 0.275390625 l 1
 289.908203125 351.1484375 l 1
 210.041015625 0.275390625 l 1
 131.674804688 0.275390625 l 1
 13.62890625 521.900390625 l 1
EndSplineSet
EndChar

StartChar: x
Encoding: 120 120 90
Width: 351
GlyphClass: 2
Flags: MW
HStem: 0.275391 21G<10.9502 100.499 10.9502 10.9502 258.831 349.308 258.831 258.831> 501.9 20G<19.6953 110.176 110.176 110.176 248.979 339.726 339.726 339.726>
LayerCount: 2
Fore
SplineSet
258.831054688 0.275390625 m 1
 178.754882812 174.986328125 l 1
 100.499023438 0.275390625 l 1
 10.9501953125 0.275390625 l 1
 134.883789062 271.315429688 l 1
 19.6953125 521.900390625 l 1
 110.17578125 521.900390625 l 1
 181.379882812 367.775390625 l 1
 248.978515625 521.900390625 l 1
 339.725585938 521.900390625 l 1
 223.439453125 275.171875 l 1
 349.307617188 0.275390625 l 1
 258.831054688 0.275390625 l 1
EndSplineSet
EndChar

StartChar: y
Encoding: 121 121 91
Width: 372
GlyphClass: 2
Flags: MW
HStem: -149.875 77.0254<45.0879 63.6133 45.0879 70.4375> 501.9 20G<13.2119 103.629 103.629 103.629 278.021 368.513 368.513 368.513>
LayerCount: 2
Fore
SplineSet
63.61328125 -149.875 m 2
 45.087890625 -149.875 l 1
 45.087890625 -72.849609375 l 1
 70.4375 -72.849609375 l 2
 121.701171875 -72.849609375 140.249023438 -53.0732421875 148.69921875 -16.1181640625 c 2
 152.05078125 -2.7119140625 l 1
 13.2119140625 521.900390625 l 1
 103.62890625 521.900390625 l 1
 192.180664062 164.981445312 l 1
 278.021484375 521.900390625 l 1
 368.512695312 521.900390625 l 1
 218.359375 -40.9248046875 l 2
 201.079101562 -107.743164062 162.82421875 -149.875 63.61328125 -149.875 c 2
EndSplineSet
EndChar

StartChar: z
Encoding: 122 122 92
Width: 377
GlyphClass: 2
Flags: MW
HStem: 0.275391 78<144.322 336.613 144.322 336.613> 443.9 78<49.9629 336.613 49.9629 242.253>
VStem: 49.9629 286.65<0.275391 71.6338 71.6338 71.6338 450.541 521.9>
LayerCount: 2
Fore
SplineSet
49.962890625 443.900390625 m 1
 49.962890625 521.900390625 l 1
 336.61328125 521.900390625 l 1
 336.61328125 450.541015625 l 1
 144.322265625 78.275390625 l 1
 336.61328125 78.275390625 l 1
 336.61328125 0.275390625 l 1
 49.962890625 0.275390625 l 1
 49.962890625 71.6337890625 l 1
 242.252929688 443.900390625 l 1
 49.962890625 443.900390625 l 1
EndSplineSet
EndChar

StartChar: braceleft
Encoding: 123 123 93
Width: 310
GlyphClass: 2
Flags: MW
HStem: -81.625 80.9248<186.46 269.339 236.188 269.339 236.188 269.339> 292.032 78.5068<49.9619 49.9619> 658.399 80.9248<227.512 236.188 236.188 269.339>
VStem: 114.312 87.751<37.3213 38.2998 38.2998 208.925 438.049 453.649 453.649 619.399>
LayerCount: 2
Fore
SplineSet
222.5390625 -81.625 m 2
 150.380859375 -81.625 114.3125 -41.9736328125 114.3125 37.3212890625 c 2
 114.3125 226.470703125 l 2
 114.3125 251.581054688 109.509765625 268.107421875 102.190429688 276.94140625 c 0
 90.59765625 290.93359375 67.8857421875 291.547851562 49.9619140625 292.032226562 c 1
 49.9619140625 370.5390625 l 1
 67.8857421875 371.0234375 90.59765625 371.637695312 102.190429688 385.629882812 c 0
 109.4296875 394.3671875 114.3125 411.564453125 114.3125 438.048828125 c 2
 114.3125 620.374023438 l 2
 114.3125 680.1171875 134.541992188 739.32421875 222.5390625 739.32421875 c 2
 269.338867188 739.32421875 l 1
 269.338867188 658.399414062 l 1
 236.188476562 658.399414062 l 2
 218.8359375 658.399414062 202.063476562 652.709960938 202.063476562 619.399414062 c 2
 202.063476562 453.649414062 l 2
 202.063476562 376.525390625 188.724609375 349.567382812 157.327148438 331.369140625 c 1
 189.45703125 311.341796875 202.063476562 284.524414062 202.063476562 208.924804688 c 2
 202.063476562 38.2998046875 l 2
 202.063476562 4.9912109375 218.833007812 -0.7001953125 236.188476562 -0.7001953125 c 2
 269.338867188 -0.7001953125 l 1
 269.338867188 -81.625 l 1
 222.5390625 -81.625 l 2
EndSplineSet
Substitution2: "'rtla' Right to Left Alternates lookup 0 subtable" braceright
EndChar

StartChar: bar
Encoding: 124 124 94
Width: 270
GlyphClass: 2
Flags: MW
VStem: 98.7129 81.9004<-80.6504 739.325 -80.6504 739.325>
LayerCount: 2
Fore
SplineSet
98.712890625 739.325195312 m 1
 180.61328125 739.325195312 l 1
 180.61328125 -80.650390625 l 1
 98.712890625 -80.650390625 l 1
 98.712890625 739.325195312 l 1
EndSplineSet
EndChar

StartChar: braceright
Encoding: 125 125 95
Width: 310
GlyphClass: 2
Flags: MW
HStem: -81.625 80.9238<49.9629 82.1377 82.1377 90.8188 49.9629 96.7627 49.9629 82.1377> 292.035 78.5078<269.34 269.34> 658.402 80.9248<49.9629 82.1377 49.9629 96.7627>
VStem: 116.263 88.7256<38.3018 208.927 208.927 226.475 453.652 619.402 619.402 620.377>
LayerCount: 2
Fore
SplineSet
82.1376953125 -0.701171875 m 2
 99.5 -0.701171875 116.262695312 5.0009765625 116.262695312 38.3017578125 c 2
 116.262695312 208.926757812 l 2
 116.262695312 285.548828125 129.232421875 311.708984375 161.547851562 331.370117188 c 1
 129.979492188 349.232421875 116.262695312 375.473632812 116.262695312 453.65234375 c 2
 116.262695312 619.40234375 l 2
 116.262695312 652.7109375 99.4931640625 658.40234375 82.1376953125 658.40234375 c 2
 49.962890625 658.40234375 l 1
 49.962890625 739.327148438 l 1
 96.7626953125 739.327148438 l 2
 168.923828125 739.327148438 204.98828125 699.672851562 204.98828125 620.376953125 c 2
 204.98828125 438.051757812 l 2
 204.98828125 411.567382812 209.872070312 394.369140625 217.111328125 385.631835938 c 0
 228.704101562 371.63671875 251.413085938 371.025390625 269.33984375 370.54296875 c 1
 269.33984375 292.03515625 l 1
 251.416015625 291.55078125 228.704101562 290.936523438 217.111328125 276.9453125 c 0
 209.791015625 268.111328125 204.98828125 251.584960938 204.98828125 226.474609375 c 2
 204.98828125 37.3251953125 l 2
 204.98828125 -22.41796875 184.759765625 -81.625 96.7626953125 -81.625 c 2
 49.962890625 -81.625 l 1
 49.962890625 -0.701171875 l 1
 82.1376953125 -0.701171875 l 2
EndSplineSet
Substitution2: "'rtla' Right to Left Alternates lookup 0 subtable" braceleft
EndChar

StartChar: asciitilde
Encoding: 126 126 96
Width: 420
GlyphClass: 2
Flags: MW
HStem: 210.875 83.8486<271.511 281.467 271.511 317.283> 260.598 84.8262<140.91 157.878>
LayerCount: 2
Fore
SplineSet
153.3125 260.59765625 m 0x40
 128.506835938 260.59765625 116.599609375 242.754882812 95.0751953125 204.491210938 c 1
 27.904296875 245.541015625 l 1
 42.833984375 276.7578125 75.6748046875 345.423828125 149.4140625 345.423828125 c 0x40
 172.623046875 345.423828125 190.845703125 340.444335938 230.193359375 314.790039062 c 0
 258.69140625 296.795898438 266.860351562 294.723632812 276.162109375 294.723632812 c 0
 286.771484375 294.723632812 294.946289062 297.661132812 301.700195312 303.375 c 0
 311.307617188 311.50390625 321.223632812 327.8984375 334.297851562 351.868164062 c 1
 401.515625 310.791015625 l 1
 385.416992188 276.399414062 354.50390625 210.875 280.0625 210.875 c 0x80
 258.428710938 210.875 239.268554688 215.083984375 199.154296875 240.616210938 c 0
 178.21875 254.573242188 162.444335938 260.59765625 153.3125 260.59765625 c 0x40
EndSplineSet
EndChar

StartChar: exclamdown
Encoding: 161 161 98
Width: 209
GlyphClass: 2
Flags: MW
HStem: 409.775 112.125<66.5381 160.138 66.5381 160.138>
VStem: 60.3691 107.906<-147.925 -147.925> 66.5381 93.5996<409.775 521.9 409.775 521.9> 77.5703 72.4932<334.7 334.7>
LayerCount: 2
Fore
SplineSet
66.5380859375 521.900390625 m 1xa0
 160.137695312 521.900390625 l 1
 160.137695312 409.775390625 l 1
 66.5380859375 409.775390625 l 1
 66.5380859375 521.900390625 l 1xa0
150.063476562 334.700195312 m 1x90
 168.275390625 -147.924804688 l 1
 60.369140625 -147.924804688 l 1xc0
 77.5703125 334.700195312 l 1
 150.063476562 334.700195312 l 1x90
EndSplineSet
EndChar

StartChar: cent
Encoding: 162 162 99
Width: 409
GlyphClass: 2
Flags: MW
VStem: 49.9629 83.8496<172.85 180.647 180.647 341.522> 178.663 69.2246<-97.2246 -5.4668 -5.4668 -5.4668 77.3477 445.239 527.769 614.525> 284.938 83.8506<162.123 163.098 163.098 184.548 138.434 184.548 337.625 360.048 360.048 360.05>
LayerCount: 2
Fore
SplineSet
247.887695312 526.48828125 m 1
 301.904296875 516.9609375 368.788085938 480.787109375 368.788085938 360.049804688 c 2
 368.788085938 337.625 l 1
 284.9375 337.625 l 1
 284.9375 360.047851562 l 2
 284.9375 407.645507812 271.927734375 434.17578125 247.887695312 445.239257812 c 1
 247.887695312 77.34765625 l 1
 272.0390625 89.3037109375 284.9375 115.904296875 284.9375 162.123046875 c 2
 284.9375 184.547851562 l 1
 368.788085938 184.547851562 l 1
 368.788085938 163.09765625 l 2
 368.788085938 113.76953125 357.986328125 74.267578125 335.205078125 45.529296875 c 0
 313.989257812 18.765625 284.491210938 2.1630859375 247.887695312 -4.3115234375 c 1
 247.887695312 -97.224609375 l 1
 178.663085938 -97.224609375 l 1
 178.663085938 -5.466796875 l 1
 107.643554688 5.2568359375 49.962890625 51.36328125 49.962890625 172.849609375 c 2
 49.962890625 349.325195312 l 2
 49.962890625 404.405273438 61.3251953125 447.495117188 85.52734375 477.66015625 c 0
 108.077148438 505.765625 139.560546875 522.434570312 178.663085938 527.768554688 c 1
 178.663085938 614.525390625 l 1
 247.887695312 614.525390625 l 1
 247.887695312 526.48828125 l 1
178.663085938 447.575195312 m 1
 142.793945312 432.7578125 133.8125 388.609375 133.8125 341.522460938 c 2
 133.8125 180.647460938 l 2
 133.8125 133.517578125 142.8125 89.404296875 178.663085938 74.5927734375 c 1
 178.663085938 447.575195312 l 1
EndSplineSet
EndChar

StartChar: sterling
Encoding: 163 163 100
Width: 384
GlyphClass: 2
Flags: MW
HStem: 0.276367 81.8984<150.622 366.838 150.622 366.838> 295.7 80.9248<26.5635 86.0391 26.5635 86.0391 175.738 289.812> 619.4 80.9248<215.338 238.395>
VStem: 86.0391 89.6992<168.95 295.7 376.625 538.475 538.475 554.075> 273.238 85.7998<531.65 540.425 531.65 573.628>
LayerCount: 2
Fore
SplineSet
175.73828125 167.974609375 m 2
 175.73828125 121.815429688 162.771484375 97.4306640625 150.622070312 82.1748046875 c 1
 366.837890625 82.1748046875 l 1
 366.837890625 0.2763671875 l 1
 43.138671875 0.2763671875 l 1
 43.138671875 80.8740234375 l 1
 63.6015625 90.6953125 86.0390625 101.46484375 86.0390625 168.950195312 c 2
 86.0390625 295.700195312 l 1
 26.5634765625 295.700195312 l 1
 26.5634765625 376.625 l 1
 86.0390625 376.625 l 1
 86.0390625 538.474609375 l 2
 86.0390625 592.0703125 101.180664062 700.325195312 223.512695312 700.325195312 c 0
 266.985351562 700.325195312 301.497070312 686.313476562 324.893554688 657.599609375 c 0
 348.063476562 629.1640625 359.038085938 589.76953125 359.038085938 540.424804688 c 2
 359.038085938 531.650390625 l 1
 273.23828125 531.650390625 l 1
 273.23828125 540.424804688 l 2
 273.23828125 606.831054688 251.327148438 619.400390625 225.462890625 619.400390625 c 0
 205.212890625 619.400390625 175.73828125 613.520507812 175.73828125 554.075195312 c 2
 175.73828125 376.625 l 1
 289.8125 376.625 l 1
 289.8125 295.700195312 l 1
 175.73828125 295.700195312 l 1
 175.73828125 167.974609375 l 2
EndSplineSet
EndChar

StartChar: currency
Encoding: 164 164 101
Width: 581
GlyphClass: 2
Flags: MW
HStem: 124.1 84.8252<277.496 311.513 277.496 314.516> 445.85 84.8252<277.496 311.53>
VStem: 91.8877 86.7744<310.308 345.096 310.308 348.72> 410.712 86.7764<310.67 345.08>
LayerCount: 2
Fore
SplineSet
91.8876953125 327.875 m 0
 91.8876953125 369.564453125 102.326171875 406.201171875 123.369140625 437.137695312 c 1
 56.1259765625 505.370117188 l 1
 117.284179688 566.528320312 l 1
 183.74609375 499.07421875 l 1
 216.827148438 520.119140625 253.975585938 530.674804688 294.6875 530.674804688 c 0
 334.831054688 530.674804688 371.666992188 520.095703125 404.701171875 499.045898438 c 1
 472.137695312 566.482421875 l 1
 533.294921875 505.325195312 l 1
 465.858398438 437.888671875 l 1
 486.908203125 404.854492188 497.48828125 368.017578125 497.48828125 327.875 c 0
 497.48828125 286.704101562 487.299804688 249.845703125 466.850585938 217.844726562 c 1
 534.208984375 150.486328125 l 1
 473.174804688 88.2314453125 l 1
 405.594726562 155.811523438 l 1
 371.455078125 134.73828125 334.34375 124.099609375 294.6875 124.099609375 c 0
 254.474609375 124.099609375 217.322265625 134.711914062 183.696289062 155.799804688 c 1
 116.155273438 89.2529296875 l 1
 55.12109375 151.506835938 l 1
 122.49609375 217.890625 l 1
 102.06640625 249.881835938 91.8876953125 286.724609375 91.8876953125 327.875 c 0
410.711914062 327.875 m 0
 410.711914062 362.28515625 399.712890625 390.026367188 377.653320312 412.388671875 c 0
 355.588867188 434.755859375 328.373046875 445.849609375 294.686523438 445.849609375 c 0
 260.305664062 445.849609375 232.966796875 434.7265625 211.275390625 412.432617188 c 0
 189.526367188 390.079101562 178.662109375 362.317382812 178.662109375 327.875 c 0
 178.662109375 292.740234375 189.55859375 264.663085938 211.275390625 242.342773438 c 0
 232.966796875 220.047851562 260.305664062 208.924804688 294.686523438 208.924804688 c 0
 328.33984375 208.924804688 355.537109375 220.151367188 377.611328125 242.831054688 c 0
 399.708984375 265.534179688 410.711914062 293.465820312 410.711914062 327.875 c 0
EndSplineSet
EndChar

StartChar: yen
Encoding: 165 165 102
Width: 390
GlyphClass: 2
Flags: MW
HStem: 0.275391 21G<155.263 243.988 155.263 155.263> 143.6 75.0752<37.2881 155.263 37.2881 155.263 243.988 361.963> 266.45 76.0498<37.2881 136.711 37.2881 155.263 37.2881 136.711 262.539 361.963> 670.575 20G<5.08594 105.039 105.039 105.039 296.143 394.164 394.164 394.164>
VStem: 155.263 88.7256<0.275391 143.6 0.275391 143.6 218.675 266.45>
LayerCount: 2
Fore
SplineSet
243.98828125 143.599609375 m 1
 243.98828125 0.275390625 l 1
 155.262695312 0.275390625 l 1
 155.262695312 143.599609375 l 1
 37.2880859375 143.599609375 l 1
 37.2880859375 218.674804688 l 1
 155.262695312 218.674804688 l 1
 155.262695312 266.450195312 l 1
 37.2880859375 266.450195312 l 1
 37.2880859375 342.5 l 1
 136.7109375 342.5 l 1
 5.0859375 690.575195312 l 1
 105.0390625 690.575195312 l 1
 201.047851562 402.548828125 l 1
 296.142578125 690.575195312 l 1
 394.1640625 690.575195312 l 1
 262.5390625 342.5 l 1
 361.962890625 342.5 l 1
 361.962890625 266.450195312 l 1
 243.98828125 266.450195312 l 1
 243.98828125 218.674804688 l 1
 361.962890625 218.674804688 l 1
 361.962890625 143.599609375 l 1
 243.98828125 143.599609375 l 1
EndSplineSet
EndChar

StartChar: brokenbar
Encoding: 166 166 103
Width: 270
GlyphClass: 2
Flags: MW
VStem: 98.7129 81.9004<-80.6504 282.05 -80.6504 282.05 378.575 739.325>
LayerCount: 2
Fore
SplineSet
98.712890625 739.325195312 m 1
 180.61328125 739.325195312 l 1
 180.61328125 378.575195312 l 1
 98.712890625 378.575195312 l 1
 98.712890625 739.325195312 l 1
98.712890625 282.049804688 m 1
 180.61328125 282.049804688 l 1
 180.61328125 -80.650390625 l 1
 98.712890625 -80.650390625 l 1
 98.712890625 282.049804688 l 1
EndSplineSet
EndChar

StartChar: section
Encoding: 167 167 104
Width: 428
GlyphClass: 2
Flags: MW
HStem: -163.525 79.9502<205.422 228.878 205.422 290.069> 634.025 80.9248<210.294 233.068>
VStem: 59.7109 87.75<259.101 295.58 259.101 315.102> 72.3867 84.8252<3.2002 11.9746 -13.3257 11.9746> 76.2861 88.7256<546.878 574.708 546.878 577.543> 277.137 88.7256<-23.2271 13.5625> 289.81 87.752<259.101 295.928>
LayerCount: 2
Fore
SplineSet
365.862304688 -8.5 m 0xc4
 365.862304688 -38.1328125 363.450195312 -163.525390625 216.6875 -163.525390625 c 0
 166.52734375 -163.525390625 128.603515625 -150.095703125 105.5078125 -121.225585938 c 0
 82.84375 -92.8955078125 72.38671875 -51.1279296875 72.38671875 3.2001953125 c 2
 72.38671875 11.974609375 l 1
 157.211914062 11.974609375 l 1
 157.211914062 3.2001953125 l 2xd4
 157.211914062 -29.8515625 162.420898438 -52.5498046875 170.831054688 -65.0302734375 c 0
 178.693359375 -76.6962890625 193.182617188 -83.5751953125 217.662109375 -83.5751953125 c 0
 240.094726562 -83.5751953125 254.283203125 -77.2255859375 262.859375 -66.0517578125 c 0
 271.903320312 -54.267578125 277.13671875 -36.0029296875 277.13671875 -10.451171875 c 0
 277.13671875 37.576171875 264.353515625 55.8203125 241.918945312 69.28125 c 0
 228.396484375 77.39453125 207.69921875 85.546875 180.184570312 93.2255859375 c 0
 137.181640625 105.319335938 105.48828125 126.444335938 86.82421875 157.081054688 c 0
 68.4248046875 187.283203125 59.7109375 227.427734375 59.7109375 277.173828125 c 0xe4
 59.7109375 353.030273438 83.8935546875 406.03125 133.485351562 431.787109375 c 1
 113.612304688 443.634765625 76.2861328125 471.162109375 76.2861328125 561.875 c 0
 76.2861328125 593.2109375 80.21484375 714.950195312 220.5859375 714.950195312 c 0
 269.587890625 714.950195312 306.793945312 700.881835938 329.466796875 671.010742188 c 0
 351.583007812 641.874023438 361.9609375 601.0078125 361.9609375 549.200195312 c 2
 361.9609375 540.424804688 l 1
 277.135742188 540.424804688 l 1
 277.135742188 549.200195312 l 2
 277.135742188 580.293945312 272.479492188 602.376953125 264.716796875 615.40625 c 0
 257.688476562 627.204101562 244.575195312 634.025390625 221.561523438 634.025390625 c 0
 199.02734375 634.025390625 185.53125 627.767578125 178.006835938 617.232421875 c 0
 169.842773438 605.801757812 165.01171875 587.540039062 165.01171875 561.875 c 0
 165.01171875 531.881835938 171.958007812 511.544921875 183.959960938 499.270507812 c 0
 196.350585938 486.598632812 221.313476562 473.952148438 259.006835938 463.083007812 c 0
 302.001953125 451.645507812 333.473632812 430.81640625 351.5 400.065429688 c 0
 369.229492188 369.821289062 377.561523438 328.787109375 377.561523438 277.174804688 c 0xca
 377.561523438 202.313476562 354.155273438 150.1953125 305.952148438 125.399414062 c 1
 326.20703125 113.46875 365.862304688 85.4873046875 365.862304688 -8.5 c 0xc4
289.809570312 277.173828125 m 0xe2
 289.809570312 314.682617188 283.750976562 341.836914062 273.107421875 358.80859375 c 0
 263.002929688 374.921875 246.241210938 383.44921875 219.611328125 383.44921875 c 0
 192.314453125 383.44921875 175.048828125 374.739257812 164.629882812 358.288085938 c 0
 153.640625 340.936523438 147.4609375 313.985351562 147.4609375 277.173828125 c 0
 147.4609375 241.028320312 153.6328125 214.59765625 164.59375 197.579101562 c 0
 174.981445312 181.450195312 192.265625 172.848632812 219.611328125 172.848632812 c 0
 245.510742188 172.848632812 262.204101562 181.314453125 272.678710938 197.579101562 c 0
 283.639648438 214.596679688 289.809570312 241.02734375 289.809570312 277.173828125 c 0xe2
98.7099609375 681.798828125 m 1024
EndSplineSet
EndChar

StartChar: dieresis
Encoding: 168 168 105
Width: 499
GlyphClass: 2
Flags: MW
HStem: 564.8 101.4<134.788 225.463 134.788 225.463 134.788 282.988 282.988 373.663>
VStem: 134.788 90.6748<564.8 666.2 564.8 666.2> 282.988 90.6748<564.8 666.2 564.8 666.2>
LayerCount: 2
Fore
SplineSet
134.788085938 666.200195312 m 1
 225.462890625 666.200195312 l 1
 225.462890625 564.799804688 l 1
 134.788085938 564.799804688 l 1
 134.788085938 666.200195312 l 1
282.98828125 666.200195312 m 1
 373.663085938 666.200195312 l 1
 373.663085938 564.799804688 l 1
 282.98828125 564.799804688 l 1
 282.98828125 666.200195312 l 1
EndSplineSet
EndChar

StartChar: copyright
Encoding: 169 169 106
Width: 739
GlyphClass: 2
Flags: MW
HStem: -9.47461 65.3232<332.975 414.677 332.975 474.518> 141.649 63.375<358.7 386.999 358.7 394.003> 479 63.374<358.066 386.998> 625.249 65.3271<340.853 414.685>
VStem: 51.9131 71.1738<294.756 384.923> 252.762 69.2256<279.124 284.974 284.974 400.024> 427.287 69.2246<271.324 290.824 250.499 290.824 394.175 412.7 412.7 413.675> 625.212 70.2012<295.089 386.342>
LayerCount: 2
Fore
SplineSet
373.663085938 -9.474609375 m 0
 171.359375 -9.474609375 51.9130859375 127.639648438 51.9130859375 340.55078125 c 0
 51.9130859375 429.295898438 73.7041015625 572.71875 202.022460938 647.939453125 c 0
 250.678710938 676.461914062 308.041992188 690.576171875 373.663085938 690.576171875 c 0
 583.6328125 690.576171875 695.413085938 545.486328125 695.413085938 340.549804688 c 0
 695.413085938 124.80859375 575.372070312 -9.474609375 373.663085938 -9.474609375 c 0
625.211914062 340.548828125 m 0
 625.211914062 432.134765625 603.133789062 501.9609375 560.100585938 551.231445312 c 0
 517.208007812 600.340820312 455.70703125 625.249023438 373.662109375 625.249023438 c 0
 291.629882812 625.249023438 230.318359375 600.193359375 187.749023438 550.788085938 c 0
 144.998046875 501.171875 123.086914062 431.481445312 123.086914062 340.548828125 c 0
 123.086914062 248.962890625 145.165039062 179.13671875 188.197265625 129.8671875 c 0
 231.10546875 80.740234375 292.287109375 55.8486328125 373.662109375 55.8486328125 c 0
 455.692382812 55.8486328125 517.182617188 80.9052734375 560.083007812 130.333984375 c 0
 603.147460938 179.952148438 625.211914062 249.62890625 625.211914062 340.548828125 c 0
375.612304688 141.649414062 m 0
 313.040039062 141.649414062 252.76171875 169.975585938 252.76171875 279.124023438 c 2
 252.76171875 405.874023438 l 2
 252.76171875 448.47265625 260.767578125 542.374023438 375.612304688 542.374023438 c 0
 424.884765625 542.374023438 496.51171875 523.489257812 496.51171875 413.674804688 c 2
 496.51171875 394.174804688 l 1
 427.287109375 394.174804688 l 1
 427.287109375 412.700195312 l 2
 427.287109375 472.8515625 397.409179688 479 376.586914062 479 c 0
 339.545898438 479 321.987304688 457.571289062 321.987304688 400.024414062 c 2
 321.987304688 284.973632812 l 2
 321.987304688 225.64453125 340.813476562 205.024414062 376.586914062 205.024414062 c 0
 397.411132812 205.024414062 427.287109375 211.173828125 427.287109375 271.32421875 c 2
 427.287109375 290.82421875 l 1
 496.51171875 290.82421875 l 1
 496.51171875 271.32421875 l 2
 496.51171875 229.673828125 486.26171875 196.866210938 464.25390625 174.49609375 c 0
 442.46875 152.353515625 412.393554688 141.649414062 375.612304688 141.649414062 c 0
EndSplineSet
EndChar

StartChar: ordfeminine
Encoding: 170 170 107
Width: 297
GlyphClass: 2
Flags: MW
HStem: 414.65 73.124<138.209 142.015> 553.099 62.4014<146.488 155.263 155.263 178.663> 674.975 72.1504<142.258 157.914>
VStem: 36.3125 80.9258<506.157 528.923 506.157 532.934> 45.0879 76.0498<635 646.7 646.7 648.65 635 662.207> 178.663 80.9248<524.824 553.099 553.099 553.099 615.5 638.899 419.524 643.775 419.524 656.343>
LayerCount: 2
Fore
SplineSet
149.413085938 674.974609375 m 0xf4
 135.102539062 674.974609375 121.137695312 669.606445312 121.137695312 648.650390625 c 2
 121.137695312 635 l 1
 45.087890625 635 l 1
 45.087890625 646.700195312 l 2xec
 45.087890625 677.713867188 54.58203125 703.075195312 74.294921875 720.961914062 c 0
 93.755859375 738.62109375 119.541015625 747.125 150.387695312 747.125 c 0
 183.831054688 747.125 211.122070312 737.797851562 230.69140625 718.228515625 c 0
 250.221679688 698.698242188 259.587890625 671.73828125 259.587890625 638.899414062 c 2
 259.587890625 419.524414062 l 1
 181.587890625 419.524414062 l 1
 181.587890625 433.134765625 l 1
 169.4453125 422.450195312 155.092773438 414.650390625 128.9375 414.650390625 c 0
 99.8583984375 414.650390625 76.1767578125 423.685546875 59.8916015625 442.559570312 c 0
 43.7998046875 461.211914062 36.3125 486.748046875 36.3125 518 c 0
 36.3125 547.868164062 46.11328125 572.463867188 66.134765625 589.9375 c 0
 86.060546875 607.328125 113.244140625 615.5 146.48828125 615.5 c 2
 178.663085938 615.5 l 1
 178.663085938 643.775390625 l 2
 178.663085938 668.911132812 166.4140625 674.974609375 149.413085938 674.974609375 c 0xf4
145.512695312 487.774414062 m 0
 157.559570312 487.774414062 178.663085938 492.401367188 178.663085938 524.82421875 c 2
 178.663085938 553.098632812 l 1
 155.262695312 553.098632812 l 2
 122.052734375 553.098632812 117.23828125 537.897460938 117.23828125 519.94921875 c 0xf4
 117.23828125 492.365234375 130.905273438 487.774414062 145.512695312 487.774414062 c 0
143.5625 834.874023438 m 1024
EndSplineSet
EndChar

StartChar: guillemotleft
Encoding: 171 171 108
Width: 422
GlyphClass: 2
Flags: W
LayerCount: 2
Fore
SplineSet
212.788085938 466.392578125 m 1
 212.788085938 367.215820312 l 1
 114.84765625 266.450195312 l 1
 212.788085938 165.684570312 l 1
 212.788085938 66.5068359375 l 1
 17.2158203125 266.450195312 l 1
 212.788085938 466.392578125 l 1
372.6875 466.479492188 m 1
 372.6875 367.240234375 l 1
 275.665039062 266.450195312 l 1
 372.6875 165.66015625 l 1
 372.6875 66.4208984375 l 1
 178.124023438 266.450195312 l 1
 372.6875 466.479492188 l 1
EndSplineSet
EndChar

StartChar: logicalnot
Encoding: 172 172 109
Width: 420
GlyphClass: 2
Flags: MW
HStem: 257.675 77.0254<42.1631 304.438 42.1631 388.288>
VStem: 304.438 83.8506<151.4 257.675 257.675 257.675>
LayerCount: 2
Fore
SplineSet
304.4375 257.674804688 m 1
 42.1630859375 257.674804688 l 1
 42.1630859375 334.700195312 l 1
 388.288085938 334.700195312 l 1
 388.288085938 151.400390625 l 1
 304.4375 151.400390625 l 1
 304.4375 257.674804688 l 1
EndSplineSet
EndChar

StartChar: uni00AD
Encoding: 173 173 110
Width: 376
GlyphClass: 2
Flags: MW
HStem: 307.4 80.9248<49.9629 335.638 49.9629 335.638>
VStem: 49.9629 285.675<307.4 388.325 307.4 388.325>
LayerCount: 2
Fore
SplineSet
49.962890625 388.325195312 m 1
 335.637695312 388.325195312 l 1
 335.637695312 307.400390625 l 1
 49.962890625 307.400390625 l 1
 49.962890625 388.325195312 l 1
EndSplineSet
EndChar

StartChar: registered
Encoding: 174 174 111
Width: 471
GlyphClass: 2
Flags: MW
HStem: 299.6 48.749<219.246 260.9 219.246 267.381> 559.924 48.75<228.387 242.037 228.387 228.387> 640.849 48.751<219.26 260.582>
VStem: 59.7129 51.6729<471.563 518.568 471.563 524.659> 175.737 52.6494<384.424 469.249 384.424 518.974 518.974 559.924> 261.537 52.6494<535.349 545.147> 368.787 51.6758<472.244 518.897>
LayerCount: 2
Fore
SplineSet
59.712890625 495.575195312 m 0
 59.712890625 553.7421875 75.8740234375 601.193359375 108.868164062 636.592773438 c 0
 141.869140625 672 186.140625 689.599609375 240.087890625 689.599609375 c 0
 295.26953125 689.599609375 339.926757812 672.046875 372.344726562 636.524414062 c 0
 404.66015625 601.115234375 420.462890625 553.703125 420.462890625 495.575195312 c 0
 420.462890625 436.798828125 404.5 388.897460938 371.854492188 353.16015625 c 0
 339.153320312 317.361328125 294.674804688 299.599609375 240.087890625 299.599609375 c 0
 185.500976562 299.599609375 141.021484375 317.361328125 108.3203125 353.16015625 c 0
 75.67578125 388.897460938 59.712890625 436.798828125 59.712890625 495.575195312 c 0
368.787109375 495.57421875 m 0
 368.787109375 542.220703125 357.021484375 577.555664062 334.452148438 602.833984375 c 0
 311.94140625 628.045898438 281.077148438 640.848632812 240.086914062 640.848632812 c 0
 198.432617188 640.848632812 167.46484375 627.880859375 145.305664062 602.428710938 c 0
 122.981445312 576.787109375 111.385742188 541.5625 111.385742188 495.57421875 c 0
 111.385742188 447.551757812 123.051757812 411.54296875 145.271484375 386.3203125 c 0
 167.41796875 361.182617188 198.404296875 348.348632812 240.086914062 348.348632812 c 0
 281.712890625 348.348632812 312.663085938 361.451171875 334.833984375 387.217773438 c 0
 357.172851562 413.178710938 368.787109375 448.913085938 368.787109375 495.57421875 c 0
244.961914062 608.673828125 m 2
 265.791992188 608.673828125 314.186523438 603.926757812 314.186523438 539.44921875 c 0
 314.186523438 514.6640625 305.44921875 494.7734375 287.827148438 482.196289062 c 1
 323.84765625 384.423828125 l 1
 311.26171875 384.423828125 l 1
 267.046875 384.423828125 l 1
 236.821289062 469.249023438 l 1
 228.38671875 469.249023438 l 1
 228.38671875 384.423828125 l 1
 175.737304688 384.423828125 l 1
 175.737304688 608.673828125 l 1
 244.961914062 608.673828125 l 2
242.037109375 518.973632812 m 2
 251.391601562 518.973632812 255.883789062 521.205078125 257.54296875 522.991210938 c 0
 259.3203125 524.90625 261.537109375 530.2734375 261.537109375 540.423828125 c 0
 261.537109375 549.87109375 259.372070312 554.556640625 257.770507812 556.158203125 c 0
 256.169921875 557.758789062 251.483398438 559.923828125 242.037109375 559.923828125 c 2
 228.38671875 559.923828125 l 1
 228.38671875 518.973632812 l 1
 242.037109375 518.973632812 l 2
EndSplineSet
EndChar

StartChar: macron
Encoding: 175 175 112
Width: 499
GlyphClass: 2
Flags: MW
HStem: 576.5 77.0254<132.838 375.613 132.838 375.613>
VStem: 132.838 242.775<576.5 653.525 576.5 653.525>
LayerCount: 2
Fore
SplineSet
132.837890625 653.525390625 m 1
 375.61328125 653.525390625 l 1
 375.61328125 576.5 l 1
 132.837890625 576.5 l 1
 132.837890625 653.525390625 l 1
EndSplineSet
EndChar

StartChar: degree
Encoding: 176 176 113
Width: 354
GlyphClass: 2
Flags: MW
HStem: 441.95 66.2998<172.523 190.653 172.523 199.823> 634.025 66.2988<172.552 190.623>
VStem: 51.9131 69.2246<561.195 580.103 561.195 588.901> 242.038 69.2246<561.195 580.103>
LayerCount: 2
Fore
SplineSet
51.9130859375 570.649414062 m 0
 51.9130859375 607.153320312 64.3681640625 638.411132812 89.0966796875 663.140625 c 0
 113.825195312 687.869140625 145.083984375 700.32421875 181.587890625 700.32421875 c 0
 218.091796875 700.32421875 249.349609375 687.869140625 274.079101562 663.140625 c 0
 298.807617188 638.411132812 311.262695312 607.153320312 311.262695312 570.649414062 c 0
 311.262695312 534.145507812 298.802734375 503.020507812 274.034179688 478.602539062 c 0
 249.295898438 454.212890625 218.05859375 441.950195312 181.587890625 441.950195312 c 0
 145.1171875 441.950195312 113.879882812 454.212890625 89.1416015625 478.602539062 c 0
 64.373046875 503.020507812 51.9130859375 534.145507812 51.9130859375 570.649414062 c 0
242.038085938 570.650390625 m 0
 242.038085938 589.555664062 236.318359375 604.34765625 224.958984375 616.275390625 c 0
 213.643554688 628.157226562 199.658203125 634.025390625 181.587890625 634.025390625 c 0
 163.516601562 634.025390625 149.532226562 628.157226562 138.216796875 616.275390625 c 0
 126.857421875 604.34765625 121.137695312 589.555664062 121.137695312 570.650390625 c 0
 121.137695312 551.740234375 126.852539062 537.162109375 138.143554688 525.587890625 c 0
 149.438476562 514.009765625 163.458007812 508.25 181.587890625 508.25 c 0
 199.717773438 508.25 213.736328125 514.009765625 225.032226562 525.587890625 c 0
 236.323242188 537.162109375 242.038085938 551.740234375 242.038085938 570.650390625 c 0
EndSplineSet
EndChar

StartChar: plusminus
Encoding: 177 177 114
Width: 420
GlyphClass: 2
Flags: MW
HStem: 23.6748 81.9004<40.2129 390.238 40.2129 390.238> 276.2 81.8994<40.2129 174.763 40.2129 174.763 255.688 390.238 40.2129 255.688>
VStem: 174.763 80.9248<142.625 276.2 142.625 276.2 358.1 491.675>
LayerCount: 2
Fore
SplineSet
390.23828125 358.099609375 m 1
 390.23828125 276.200195312 l 1
 255.6875 276.200195312 l 1
 255.6875 142.625 l 1
 174.762695312 142.625 l 1
 174.762695312 276.200195312 l 1
 40.212890625 276.200195312 l 1
 40.212890625 358.099609375 l 1
 174.762695312 358.099609375 l 1
 174.762695312 491.674804688 l 1
 255.6875 491.674804688 l 1
 255.6875 358.099609375 l 1
 390.23828125 358.099609375 l 1
40.212890625 105.575195312 m 1
 390.23828125 105.575195312 l 1
 390.23828125 23.6748046875 l 1
 40.212890625 23.6748046875 l 1
 40.212890625 105.575195312 l 1
EndSplineSet
EndChar

StartChar: uni00B2
Encoding: 178 178 115
Width: 275
GlyphClass: 2
Flags: MW
HStem: 419.525 78<135.24 250.812 135.24 250.812> 774.425 77.0254<137.881 146.178>
VStem: 34.3633 82.875<708.125 738.35 708.125 746.15 708.125 777.538> 165.988 84.8242<723.725 743.225 743.225 745.175>
LayerCount: 2
Fore
SplineSet
143.5625 851.450195312 m 0
 209.639648438 851.450195312 250.8125 807.638671875 250.8125 745.174804688 c 2
 250.8125 721.775390625 l 2
 250.8125 692.56640625 244.603515625 667.224609375 217.254882812 625.396484375 c 0
 217.220703125 625.344726562 157.904296875 532.861328125 135.240234375 497.525390625 c 1
 250.8125 497.525390625 l 1
 250.8125 419.525390625 l 1
 32.4130859375 419.525390625 l 1
 32.4130859375 489.387695312 l 1
 145.887695312 665.026367188 l 2
 162.530273438 691.377929688 165.98828125 705.21875 165.98828125 723.724609375 c 2
 165.98828125 743.224609375 l 2
 165.98828125 754.3046875 163.501953125 761.973632812 159.528320312 767.116210938 c 0
 155.9375 771.762695312 150.7421875 774.424804688 141.61328125 774.424804688 c 0
 134.1484375 774.424804688 117.23828125 774.16015625 117.23828125 738.349609375 c 2
 117.23828125 708.125 l 1
 34.36328125 708.125 l 1
 34.36328125 746.150390625 l 2
 34.36328125 808.92578125 76.4873046875 851.450195312 143.5625 851.450195312 c 0
EndSplineSet
EndChar

StartChar: uni00B3
Encoding: 179 179 116
Width: 272
GlyphClass: 2
Flags: MW
HStem: 413.675 77.0264<134.683 142.481 134.683 170.754> 599.901 77.0244<107.489 133.814 107.489 133.814> 774.426 77.0254<134.572 141.921>
VStem: 30.4648 81.8994<518.976 520.926 520.926 552.126 505.906 552.126> 164.04 84.8232<526.776 557.975 489.073 561.876 489.073 578.306>
LayerCount: 2
Fore
SplineSet
248.86328125 523.849609375 m 2
 248.86328125 454.296875 202.8203125 413.674804688 138.688476562 413.674804688 c 0
 105.288085938 413.674804688 78.15234375 422.802734375 58.8720703125 442.083984375 c 0
 39.7119140625 461.244140625 30.46484375 487.381835938 30.46484375 518.975585938 c 2
 30.46484375 552.125976562 l 1
 112.364257812 552.125976562 l 1
 112.364257812 520.92578125 l 2
 112.364257812 490.88671875 131.651367188 490.701171875 137.71484375 490.701171875 c 0
 147.247070312 490.701171875 164.040039062 492.151367188 164.040039062 526.776367188 c 2
 164.040039062 561.875976562 l 2
 164.040039062 594.736328125 151.060546875 599.901367188 133.814453125 599.901367188 c 2
 107.489257812 599.901367188 l 1
 107.489257812 676.92578125 l 1
 133.814453125 676.92578125 l 2
 146.900390625 676.92578125 162.08984375 680.512695312 162.08984375 711.05078125 c 2
 162.08984375 740.30078125 l 2
 162.08984375 773.493164062 146.126953125 774.42578125 137.71484375 774.42578125 c 0
 131.428710938 774.42578125 113.33984375 774.42578125 113.33984375 744.201171875 c 2
 113.33984375 713.000976562 l 1
 30.46484375 713.000976562 l 1
 30.46484375 747.125976562 l 2
 30.46484375 809.782226562 71.54296875 851.451171875 138.688476562 851.451171875 c 0
 171.528320312 851.451171875 198.487304688 842.084960938 218.017578125 822.5546875 c 0
 237.547851562 803.024414062 246.9140625 776.065429688 246.9140625 743.225585938 c 2
 246.9140625 719.826171875 l 2
 246.9140625 676.4609375 231.01953125 655.046875 213.244140625 642.272460938 c 1
 231.280273438 630.671875 248.86328125 611.013671875 248.86328125 557.974609375 c 2
 248.86328125 523.849609375 l 2
EndSplineSet
EndChar

StartChar: acute
Encoding: 180 180 117
Width: 499
GlyphClass: 2
Flags: MW
HStem: 561.875 143.325<164.66 361.363 164.66 361.363>
VStem: 164.66 196.703<561.875 705.2>
LayerCount: 2
Fore
SplineSet
265.765625 705.200195312 m 1
 361.36328125 705.200195312 l 1
 240.259765625 561.875 l 1
 164.66015625 561.875 l 1
 265.765625 705.200195312 l 1
EndSplineSet
EndChar

StartChar: uni00B5
Encoding: 181 181 118
Width: 413
GlyphClass: 2
Flags: MW
HStem: -7.52539 76.0508<200.129 221.131 200.129 221.573> 0.275391 21G<282.988 363.913 282.988 282.988> 501.9 20G<58.7383 141.613 141.613 141.613 280.062 363.913 363.913 363.913>
VStem: 58.7383 82.875<135.505 149.45 149.45 521.9> 280.062 83.8506<149.45 521.9 0.275391 521.9>
LayerCount: 2
Fore
SplineSet
282.98828125 27.7265625 m 1x78
 271.151367188 14.919921875 244.0078125 -7.525390625 199.137695312 -7.525390625 c 0
 177.44140625 -7.525390625 158.377929688 -2.4140625 142.587890625 7.9541015625 c 1
 142.587890625 -149.875 l 1
 58.73828125 -149.875 l 1
 58.73828125 521.900390625 l 1
 141.61328125 521.900390625 l 1
 141.61328125 149.450195312 l 2
 141.61328125 121.560546875 148.41796875 101.770507812 160.694335938 88.6572265625 c 0
 173.223632812 75.2724609375 189.420898438 68.525390625 210.837890625 68.525390625 c 0xb8
 231.424804688 68.525390625 247.469726562 75.451171875 260.436523438 89.5693359375 c 0
 273.221679688 103.490234375 280.0625 123.008789062 280.0625 149.450195312 c 2
 280.0625 521.900390625 l 1
 363.913085938 521.900390625 l 1
 363.913085938 0.275390625 l 1
 282.98828125 0.275390625 l 1
 282.98828125 27.7265625 l 1x78
EndSplineSet
EndChar

StartChar: paragraph
Encoding: 182 182 119
Width: 518
GlyphClass: 2
Flags: MW
HStem: 609.65 80.9248<303.463 356.113 303.463 303.463>
VStem: 59.7129 243.75<448.312 534.85> 221.562 81.9004<-147.925 263.486 263.486 263.486> 356.113 81.8994<-147.925 609.65 609.65 609.65>
LayerCount: 2
Fore
SplineSet
59.712890625 477.049804688 m 0xd0
 59.712890625 592.649414062 134.259765625 690.575195312 261.538085938 690.575195312 c 2
 438.012695312 690.575195312 l 1
 438.012695312 -147.924804688 l 1
 356.11328125 -147.924804688 l 1
 356.11328125 609.650390625 l 1
 303.462890625 609.650390625 l 1
 303.462890625 -147.924804688 l 1
 221.5625 -147.924804688 l 1
 221.5625 263.486328125 l 1xb0
 174.20703125 269.786132812 135.263671875 292.245117188 105.897460938 330.323242188 c 0
 75.0078125 370.379882812 59.712890625 419.575195312 59.712890625 477.049804688 c 0xd0
EndSplineSet
EndChar

StartChar: periodcentered
Encoding: 183 183 120
Width: 165
GlyphClass: 2
Flags: MW
HStem: 220.625 104.325<41.1875 134.788 41.1875 134.788>
VStem: 41.1875 93.6006<220.625 324.95 220.625 324.95>
LayerCount: 2
Fore
SplineSet
41.1875 324.950195312 m 1
 134.788085938 324.950195312 l 1
 134.788085938 220.625 l 1
 41.1875 220.625 l 1
 41.1875 324.950195312 l 1
EndSplineSet
EndChar

StartChar: cedilla
Encoding: 184 184 121
Width: 499
GlyphClass: 2
Flags: MW
HStem: -147.925 177.45<250.833 269.693 176.175 332.45>
VStem: 176.175 156.275
LayerCount: 2
Fore
SplineSet
332.450195312 29.525390625 m 1
 269.693359375 -147.924804688 l 1
 176.174804688 -147.924804688 l 1
 250.833007812 29.525390625 l 1
 332.450195312 29.525390625 l 1
EndSplineSet
EndChar

StartChar: uni00B9
Encoding: 185 185 122
Width: 205
GlyphClass: 2
Flags: MW
HStem: 692.702 21G<21.6875 21.6875>
VStem: 82.1377 86.7754<419.525 741.452 741.452 741.452>
LayerCount: 2
Fore
SplineSet
21.6875 692.702148438 m 1
 21.6875 792.323242188 l 1
 87.8662109375 844.625 l 1
 168.913085938 844.625 l 1
 168.913085938 419.525390625 l 1
 82.1376953125 419.525390625 l 1
 82.1376953125 741.452148438 l 1
 21.6875 692.702148438 l 1
EndSplineSet
EndChar

StartChar: ordmasculine
Encoding: 186 186 123
Width: 298
GlyphClass: 2
Flags: MW
HStem: 414.65 75.0742<149.554 158.583 149.554 208.361> 673.025 74.0996<149.555 158.586>
VStem: 41.1875 80.9258<540.425 622.325 622.325 623.3> 185.488 80.9248<539.45 540.425 540.425 622.325>
LayerCount: 2
Fore
SplineSet
154.288085938 414.650390625 m 0
 97.576171875 414.650390625 41.1875 439.919921875 41.1875 540.424804688 c 2
 41.1875 622.325195312 l 2
 41.1875 664.381835938 50.23046875 696.54296875 70.515625 717.197265625 c 0
 90.4765625 737.521484375 118.954101562 747.125 154.288085938 747.125 c 0
 261.765625 747.125 266.413085938 660.21875 266.413085938 622.325195312 c 2
 266.413085938 540.424804688 l 2
 266.413085938 504.310546875 262.43359375 414.650390625 154.288085938 414.650390625 c 0
154.288085938 489.724609375 m 0
 162.87890625 489.724609375 185.48828125 489.8515625 185.48828125 539.450195312 c 2
 185.48828125 623.299804688 l 2
 185.48828125 672.893554688 162.883789062 673.025390625 154.288085938 673.025390625 c 0
 144.822265625 673.025390625 122.11328125 672.391601562 122.11328125 623.299804688 c 2
 122.11328125 539.450195312 l 2
 122.11328125 490.361328125 144.819335938 489.724609375 154.288085938 489.724609375 c 0
147.462890625 834.875 m 1024
EndSplineSet
EndChar

StartChar: guillemotright
Encoding: 187 187 124
Width: 422
GlyphClass: 2
Flags: W
LayerCount: 2
Fore
SplineSet
58.73828125 367.215820312 m 1
 58.73828125 466.392578125 l 1
 254.310546875 266.450195312 l 1
 58.73828125 66.5068359375 l 1
 58.73828125 165.684570312 l 1
 156.677734375 266.450195312 l 1
 58.73828125 367.215820312 l 1
219.61328125 367.215820312 m 1
 219.61328125 466.479492188 l 1
 414.176757812 266.450195312 l 1
 219.61328125 66.4208984375 l 1
 219.61328125 165.684570312 l 1
 317.552734375 266.450195312 l 1
 219.61328125 367.215820312 l 1
EndSplineSet
EndChar

StartChar: onequarter
Encoding: 188 188 125
Width: 631
GlyphClass: 3
Flags: MW
HStem: 0.275391 21G<129.133 129.133 129.133 209.21 497.488 497.488 497.488 583.288> 72.4248 78<455.958 497.488 455.958 497.488 583.288 613.513> 670.575 20G<87.8662 168.913 168.913 168.913 377.24 457.318 457.318 457.318>
VStem: 82.1377 86.7754<265.475 587.402 587.402 587.402> 497.488 85.7998<0.275391 72.4248 0.275391 72.4248 150.425 244.025>
LayerCount: 2
Fore
SplineSet
21.6875 538.65234375 m 1
 21.6875 638.272460938 l 1
 87.8662109375 690.575195312 l 1
 168.913085938 690.575195312 l 1
 168.913085938 265.474609375 l 1
 82.1376953125 265.474609375 l 1
 82.1376953125 587.40234375 l 1
 21.6875 538.65234375 l 1
129.1328125 0.275390625 m 1
 377.240234375 690.575195312 l 1
 457.318359375 690.575195312 l 1
 209.209960938 0.275390625 l 1
 129.1328125 0.275390625 l 1
583.288085938 150.424804688 m 1
 613.512695312 150.424804688 l 1
 613.512695312 72.4248046875 l 1
 583.288085938 72.4248046875 l 1
 583.288085938 0.275390625 l 1
 497.48828125 0.275390625 l 1
 497.48828125 72.4248046875 l 1
 366.837890625 72.4248046875 l 1
 366.837890625 143.05078125 l 1
 458.943359375 425.375 l 1
 545.657226562 425.375 l 1
 455.958007812 150.424804688 l 1
 497.48828125 150.424804688 l 1
 497.48828125 244.025390625 l 1
 583.288085938 244.025390625 l 1
 583.288085938 150.424804688 l 1
EndSplineSet
Ligature2: "'frac' Diagonal Fractions lookup 2 subtable" one slash four
EndChar

StartChar: onehalf
Encoding: 189 189 126
Width: 639
GlyphClass: 3
Flags: MW
HStem: 0.275391 78<498.915 614.488 498.915 614.488> 355.175 77.0254<501.556 509.853> 670.575 20G<87.8662 168.913 168.913 168.913 377.24 457.318 457.318 457.318>
VStem: 82.1377 86.7754<265.475 587.402 587.402 587.402> 398.038 82.875<288.875 319.1 288.875 326.9 288.875 358.288> 529.663 84.8252<304.475 323.975 323.975 325.925>
LayerCount: 2
Fore
SplineSet
21.6875 538.65234375 m 1
 21.6875 638.272460938 l 1
 87.8662109375 690.575195312 l 1
 168.913085938 690.575195312 l 1
 168.913085938 265.474609375 l 1
 82.1376953125 265.474609375 l 1
 82.1376953125 587.40234375 l 1
 21.6875 538.65234375 l 1
457.318359375 690.575195312 m 1
 209.209960938 0.275390625 l 1
 129.1328125 0.275390625 l 1
 377.240234375 690.575195312 l 1
 457.318359375 690.575195312 l 1
507.23828125 432.200195312 m 0
 573.315429688 432.200195312 614.48828125 388.388671875 614.48828125 325.924804688 c 2
 614.48828125 302.525390625 l 2
 614.48828125 273.235351562 608.23046875 247.916015625 580.9296875 206.146484375 c 0
 580.896484375 206.095703125 521.579101562 113.611328125 498.915039062 78.275390625 c 1
 614.48828125 78.275390625 l 1
 614.48828125 0.275390625 l 1
 396.087890625 0.275390625 l 1
 396.087890625 70.1376953125 l 1
 509.563476562 245.776367188 l 2
 526.205078125 272.127929688 529.663085938 285.96875 529.663085938 304.474609375 c 2
 529.663085938 323.974609375 l 2
 529.663085938 335.0546875 527.176757812 342.723632812 523.203125 347.866210938 c 0
 519.612304688 352.512695312 514.416992188 355.174804688 505.288085938 355.174804688 c 0
 497.823242188 355.174804688 480.913085938 354.91015625 480.913085938 319.099609375 c 2
 480.913085938 288.875 l 1
 398.038085938 288.875 l 1
 398.038085938 326.900390625 l 2
 398.038085938 389.67578125 440.162109375 432.200195312 507.23828125 432.200195312 c 0
EndSplineSet
Ligature2: "'frac' Diagonal Fractions lookup 2 subtable" one slash two
EndChar

StartChar: threequarters
Encoding: 190 190 127
Width: 657
GlyphClass: 3
Flags: MW
HStem: 0.274414 21G<178.859 178.859 178.859 258.938 523.814 523.814 523.814 609.614> 72.4238 78<482.284 523.814 482.284 523.814 609.614 639.84> 259.624 77.0264<134.682 142.48 134.682 170.748> 445.851 77.0254<107.488 133.813 107.488 133.813> 620.376 77.0254<134.571 141.92>
VStem: 30.4639 81.8994<364.925 366.875 366.875 398.075 351.855 398.075> 164.039 84.8242<372.725 403.925 335.018 407.825 335.018 424.255> 523.814 85.7998<0.274414 72.4238 0.274414 72.4238 150.424 244.024>
LayerCount: 2
Fore
SplineSet
248.86328125 369.799804688 m 2
 248.86328125 300.236328125 202.806640625 259.624023438 138.689453125 259.624023438 c 0
 105.2890625 259.624023438 78.1533203125 268.751953125 58.873046875 288.033203125 c 0
 39.712890625 307.192382812 30.4638671875 333.330078125 30.4638671875 364.924804688 c 2
 30.4638671875 398.075195312 l 1
 112.36328125 398.075195312 l 1
 112.36328125 366.875 l 2
 112.36328125 336.8359375 131.650390625 336.650390625 137.713867188 336.650390625 c 0
 147.24609375 336.650390625 164.0390625 338.100585938 164.0390625 372.724609375 c 2
 164.0390625 407.825195312 l 2
 164.0390625 440.685546875 151.059570312 445.850585938 133.813476562 445.850585938 c 2
 107.48828125 445.850585938 l 1
 107.48828125 522.875976562 l 1
 133.813476562 522.875976562 l 2
 146.899414062 522.875976562 162.088867188 526.462890625 162.088867188 557.000976562 c 2
 162.088867188 586.250976562 l 2
 162.088867188 619.443359375 146.125976562 620.375976562 137.713867188 620.375976562 c 0
 131.427734375 620.375976562 113.338867188 620.375976562 113.338867188 590.151367188 c 2
 113.338867188 558.951171875 l 1
 30.4638671875 558.951171875 l 1
 30.4638671875 593.076171875 l 2
 30.4638671875 655.732421875 71.5419921875 697.401367188 138.6875 697.401367188 c 0
 171.52734375 697.401367188 198.486328125 688.03515625 218.016601562 668.504882812 c 0
 237.546875 648.974609375 246.913085938 622.015625 246.913085938 589.17578125 c 2
 246.913085938 565.776367188 l 2
 246.913085938 522.41015625 231.018554688 500.997070312 213.243164062 488.22265625 c 1
 231.243164062 476.645507812 248.86328125 457.010742188 248.86328125 403.924804688 c 2
 248.86328125 369.799804688 l 2
178.859375 0.2744140625 m 1
 426.967773438 690.57421875 l 1
 507.044921875 690.57421875 l 1
 258.9375 0.2744140625 l 1
 178.859375 0.2744140625 l 1
609.614257812 150.423828125 m 1
 639.83984375 150.423828125 l 1
 639.83984375 72.423828125 l 1
 609.614257812 72.423828125 l 1
 609.614257812 0.2744140625 l 1
 523.814453125 0.2744140625 l 1
 523.814453125 72.423828125 l 1
 393.165039062 72.423828125 l 1
 393.165039062 143.049804688 l 1
 485.270507812 425.374023438 l 1
 571.984375 425.374023438 l 1
 482.284179688 150.423828125 l 1
 523.814453125 150.423828125 l 1
 523.814453125 244.024414062 l 1
 609.614257812 244.024414062 l 1
 609.614257812 150.423828125 l 1
EndSplineSet
Ligature2: "'frac' Diagonal Fractions lookup 2 subtable" three slash four
EndChar

StartChar: questiondown
Encoding: 191 191 128
Width: 364
GlyphClass: 2
Flags: MW
HStem: -159.625 80.9258<176.852 202.382 176.852 265.879> 409.775 112.125<142.588 236.188 142.588 236.188>
VStem: 37.2881 88.7236<-17.3418 26.1968 -31.4624 32.5874> 142.588 93.5996<409.775 521.9 409.775 521.9> 254.712 88.8184<32.4502 41.2246 41.2246 41.2246>
LayerCount: 2
Fore
SplineSet
142.587890625 521.900390625 m 1
 236.1875 521.900390625 l 1
 236.1875 409.775390625 l 1
 142.587890625 409.775390625 l 1
 142.587890625 521.900390625 l 1
126.01171875 8.076171875 m 0
 126.01171875 -71.0009765625 164.31640625 -78.69921875 189.38671875 -78.69921875 c 0
 215.376953125 -78.69921875 230.940429688 -70.380859375 239.766601562 -54.869140625 c 0
 249.163085938 -38.3544921875 254.711914062 -9.13671875 254.711914062 32.4501953125 c 2
 254.711914062 41.224609375 l 1
 343.530273438 41.224609375 l 1
 342.98046875 -10.552734375 341.39453125 -159.625 190.36328125 -159.625 c 0
 141.791992188 -159.625 103.185546875 -144.750976562 76.5029296875 -114.206054688 c 0
 50.0439453125 -83.91796875 37.2880859375 -42.7587890625 37.2880859375 8.0751953125 c 0
 37.2880859375 57.099609375 48.0107421875 89.546875 87.271484375 155.885742188 c 2
 120.38671875 211.403320312 l 2
 140.93359375 246.454101562 145.51171875 262.618164062 145.51171875 298.625 c 2
 145.51171875 341.525390625 l 1
 234.237304688 341.525390625 l 1
 234.237304688 294.724609375 l 2
 234.237304688 244.873046875 226.37890625 222.069335938 196.896484375 174.161132812 c 0
 196.865234375 174.110351562 157.874023438 109.7734375 157.874023438 109.7734375 c 2
 132.264648438 67.9912109375 126.01171875 44.3173828125 126.01171875 8.076171875 c 0
EndSplineSet
EndChar

StartChar: Agrave
Encoding: 192 192 129
Width: 460
GlyphClass: 2
Flags: MW
HStem: 0.275391 21G<7.27539 7.27539 7.27539 99.7158 368.76 368.76 368.76 462.176> 171.875 78.9746<162.596 305.88 162.596 325.859 142.616 305.88> 670.575 20G<195.357 274.094 274.094 274.094>
LayerCount: 2
Fore
SplineSet
7.275390625 0.275390625 m 1
 195.357421875 690.575195312 l 1
 274.09375 690.575195312 l 1
 462.17578125 0.275390625 l 1
 368.759765625 0.275390625 l 1
 325.859375 171.875 l 1
 142.616210938 171.875 l 1
 99.7158203125 0.275390625 l 1
 7.275390625 0.275390625 l 1
162.595703125 250.849609375 m 1
 305.879882812 250.849609375 l 1
 234.23828125 538.262695312 l 1
 162.595703125 250.849609375 l 1
108.086914062 873.875 m 1
 203.685546875 873.875 l 1
 304.791015625 730.549804688 l 1
 229.19140625 730.549804688 l 1
 108.086914062 873.875 l 1
EndSplineSet
EndChar

StartChar: Aacute
Encoding: 193 193 130
Width: 460
GlyphClass: 2
Flags: MW
HStem: 0.275391 21G<7.27539 7.27539 7.27539 99.7158 368.76 368.76 368.76 462.176> 171.875 78.9746<162.596 305.88 162.596 325.859 142.616 305.88> 670.575 20G<195.357 274.094 274.094 274.094>
LayerCount: 2
Fore
SplineSet
7.275390625 0.275390625 m 1
 195.357421875 690.575195312 l 1
 274.09375 690.575195312 l 1
 462.17578125 0.275390625 l 1
 368.759765625 0.275390625 l 1
 325.859375 171.875 l 1
 142.616210938 171.875 l 1
 99.7158203125 0.275390625 l 1
 7.275390625 0.275390625 l 1
162.595703125 250.849609375 m 1
 305.879882812 250.849609375 l 1
 234.23828125 538.262695312 l 1
 162.595703125 250.849609375 l 1
256.990234375 873.875 m 1
 352.588867188 873.875 l 1
 231.484375 730.549804688 l 1
 155.884765625 730.549804688 l 1
 256.990234375 873.875 l 1
EndSplineSet
EndChar

StartChar: Acircumflex
Encoding: 194 194 131
Width: 460
GlyphClass: 2
Flags: MW
HStem: 0.275391 21G<7.27539 7.27539 7.27539 99.7158 368.76 368.76 368.76 462.176> 171.875 78.9746<162.596 305.88 162.596 325.859 142.616 305.88> 670.575 20G<195.357 274.094 274.094 274.094>
LayerCount: 2
Fore
SplineSet
7.275390625 0.275390625 m 1
 195.357421875 690.575195312 l 1
 274.09375 690.575195312 l 1
 462.17578125 0.275390625 l 1
 368.759765625 0.275390625 l 1
 325.859375 171.875 l 1
 142.616210938 171.875 l 1
 99.7158203125 0.275390625 l 1
 7.275390625 0.275390625 l 1
162.595703125 250.849609375 m 1
 305.879882812 250.849609375 l 1
 234.23828125 538.262695312 l 1
 162.595703125 250.849609375 l 1
198.387695312 879.724609375 m 1
 270.0078125 879.724609375 l 1
 379.78125 722.75 l 1
 293.044921875 722.75 l 1
 236.130859375 804.055664062 l 1
 178.314453125 722.75 l 1
 91.908203125 722.75 l 1
 198.387695312 879.724609375 l 1
EndSplineSet
EndChar

StartChar: Atilde
Encoding: 195 195 132
Width: 460
GlyphClass: 2
Flags: MW
HStem: 0.275391 21G<7.27539 7.27539 7.27539 99.7158 368.76 368.76 368.76 462.176> 171.875 78.9746<162.596 305.88 162.596 325.859 142.616 305.88> 670.575 20G<195.357 274.094 274.094 274.094> 726.65 82.875<280.788 295.143 280.788 295.898> 760.775 83.8496<175.91 191.468>
LayerCount: 2
Fore
SplineSet
7.275390625 0.275390625 m 1xe0
 195.357421875 690.575195312 l 1
 274.09375 690.575195312 l 1
 462.17578125 0.275390625 l 1
 368.759765625 0.275390625 l 1
 325.859375 171.875 l 1
 142.616210938 171.875 l 1
 99.7158203125 0.275390625 l 1
 7.275390625 0.275390625 l 1xe0
162.595703125 250.849609375 m 1
 305.879882812 250.849609375 l 1
 234.23828125 538.262695312 l 1
 162.595703125 250.849609375 l 1
190.364257812 844.625 m 0xe8
 207.58984375 844.625 219.234375 841.512695312 243.850585938 825.686523438 c 0
 266.8515625 810.899414062 275.66015625 809.525390625 285.915039062 809.525390625 c 0
 304.370117188 809.525390625 310.064453125 816.119140625 348.314453125 860.408203125 c 1
 348.314453125 765.374023438 l 1
 327.448242188 740.598632812 311.732421875 726.650390625 280.064453125 726.650390625 c 0xf0
 261.8671875 726.650390625 251.522460938 729.772460938 222.09375 746.325195312 c 0
 198.016601562 760.08203125 195.499023438 760.775390625 187.4375 760.775390625 c 0
 164.381835938 760.775390625 155.186523438 749.53515625 121.137695312 707.918945312 c 1
 121.137695312 806.194335938 l 1
 145.350585938 831.752929688 161.151367188 844.625 190.364257812 844.625 c 0xe8
EndSplineSet
EndChar

StartChar: Adieresis
Encoding: 196 196 133
Width: 460
GlyphClass: 2
Flags: MW
HStem: 0.275391 21G<7.27539 7.27539 7.27539 99.7158 368.76 368.76 368.76 462.176> 171.875 78.9746<162.596 305.88 162.596 325.859 142.616 305.88> 670.575 20G<195.357 274.094 274.094 274.094> 733.475 101.4<115.288 205.963 115.288 205.963 115.288 263.488 263.488 354.163>
VStem: 115.288 90.6748<733.475 834.875 733.475 834.875> 263.488 90.6748<733.475 834.875 733.475 834.875>
LayerCount: 2
Fore
SplineSet
7.275390625 0.275390625 m 1
 195.357421875 690.575195312 l 1
 274.09375 690.575195312 l 1
 462.17578125 0.275390625 l 1
 368.759765625 0.275390625 l 1
 325.859375 171.875 l 1
 142.616210938 171.875 l 1
 99.7158203125 0.275390625 l 1
 7.275390625 0.275390625 l 1
162.595703125 250.849609375 m 1
 305.879882812 250.849609375 l 1
 234.23828125 538.262695312 l 1
 162.595703125 250.849609375 l 1
115.288085938 834.875 m 1
 205.962890625 834.875 l 1
 205.962890625 733.474609375 l 1
 115.288085938 733.474609375 l 1
 115.288085938 834.875 l 1
263.48828125 834.875 m 1
 354.163085938 834.875 l 1
 354.163085938 733.474609375 l 1
 263.48828125 733.474609375 l 1
 263.48828125 834.875 l 1
EndSplineSet
EndChar

StartChar: Aring
Encoding: 197 197 134
Width: 460
GlyphClass: 2
Flags: MW
HStem: 0.275391 21G<368.76 462.176 368.76 368.76> 171.876 78.9746<162.596 173.157> 803.677 54.5996<222.444 247.255>
VStem: 139.663 56.5498<750.738 774.27 750.738 776.082> 273.238 57.5244<751.352 773.613>
LayerCount: 2
Fore
SplineSet
330.762695312 762.725585938 m 0
 330.762695312 720.733398438 307.6875 690.953125 277.860351562 676.750976562 c 1
 462.17578125 0.275390625 l 1
 368.759765625 0.275390625 l 1
 325.859375 171.875 l 1
 264.778320312 171.875 203.697265625 171.875976562 142.616210938 171.875976562 c 1
 99.7158203125 0.2763671875 l 1
 7.275390625 0.2763671875 l 1
 191.620117188 676.860351562 l 1
 165.177734375 689.955078125 139.663085938 718.494140625 139.663085938 762.725585938 c 0
 139.663085938 789.4375 148.666015625 812.541015625 166.547851562 830.780273438 c 0
 184.469726562 849.059570312 207.48046875 858.276367188 234.23828125 858.276367188 c 0
 261.583007812 858.276367188 285.056640625 849.115234375 303.329101562 830.841796875 c 0
 321.553710938 812.6171875 330.762695312 789.484375 330.762695312 762.725585938 c 0
196.212890625 762.725585938 m 0
 196.212890625 738.750976562 211.469726562 722.750976562 234.23828125 722.750976562 c 0
 259.430664062 722.750976562 273.23828125 739.977539062 273.23828125 762.725585938 c 0
 273.23828125 784.500976562 260.272460938 803.676757812 234.23828125 803.676757812 c 0
 210.649414062 803.676757812 196.212890625 785.814453125 196.212890625 762.725585938 c 0
162.595703125 250.850585938 m 1
 305.879882812 250.850585938 l 1
 234.23828125 538.263671875 l 1
 162.595703125 250.850585938 l 1
EndSplineSet
EndChar

StartChar: AE
Encoding: 198 198 135
Width: 682
GlyphClass: 2
Flags: MW
HStem: 0.275391 80.9248<434.113 654.463 434.113 654.463> 167.975 79.9502<204.66 346.363 204.66 346.363 170.792 346.363> 310.325 81.8994<434.113 622.288 434.113 622.288> 609.65 80.9248<434.113 654.463 434.113 434.113>
VStem: 346.363 87.75<81.2002 167.975 167.975 167.975 247.925 310.325 392.225 577.721 577.721 577.721>
LayerCount: 2
Fore
SplineSet
98.6416015625 0.275390625 m 1
 5.3603515625 0.275390625 l 1
 306.491210938 690.575195312 l 1
 654.462890625 690.575195312 l 1
 654.462890625 609.650390625 l 1
 434.11328125 609.650390625 l 1
 434.11328125 392.224609375 l 1
 622.288085938 392.224609375 l 1
 622.288085938 310.325195312 l 1
 434.11328125 310.325195312 l 1
 434.11328125 81.2001953125 l 1
 654.462890625 81.2001953125 l 1
 654.462890625 0.275390625 l 1
 346.36328125 0.275390625 l 1
 346.36328125 167.974609375 l 1
 170.791992188 167.974609375 l 1
 98.6416015625 0.275390625 l 1
346.36328125 247.924804688 m 1
 346.36328125 577.720703125 l 1
 204.66015625 247.924804688 l 1
 346.36328125 247.924804688 l 1
EndSplineSet
EndChar

StartChar: Ccedilla
Encoding: 199 199 136
Width: 477
GlyphClass: 2
Flags: MW
HStem: 617.45 81.8994<215.435 260.556>
VStem: 51.9121 88.7236<205.025 479> 345.386 86.7754<196.25 213.8 167.36 213.8>
LayerCount: 2
Fore
SplineSet
140.635742188 204.049804688 m 2
 140.635742188 93.03125 196.513671875 74.375 244.9609375 74.375 c 0
 276.854492188 74.375 300.76953125 84.26171875 318.416992188 103.673828125 c 0
 335.810546875 122.806640625 345.385742188 153.223632812 345.385742188 196.25 c 2
 345.385742188 213.799804688 l 1
 432.161132812 213.799804688 l 1
 432.161132812 195.275390625 l 2
 432.161132812 139.444335938 420.051757812 94.353515625 394.813476562 60.818359375 c 0
 370.778320312 28.8798828125 338.325195312 8.02734375 298.405273438 -1.38671875 c 1
 246.28125 -147.924804688 l 1
 152.774414062 -147.924804688 l 1
 212.780273438 -5.2861328125 l 1
 166.3046875 0.7158203125 128.009765625 20.1298828125 98.962890625 52.96484375 c 0
 67.1572265625 88.9189453125 51.912109375 140.020507812 51.912109375 205.025390625 c 2
 51.912109375 485.825195312 l 2
 51.912109375 555.420898438 68.982421875 609.184570312 104.635742188 645.530273438 c 0
 139.935546875 681.516601562 186.881835938 699.349609375 243.987304688 699.349609375 c 0
 299.122070312 699.349609375 345.137695312 682.360351562 380.717773438 648.149414062 c 0
 416.805664062 613.44921875 434.11328125 561.671875 434.11328125 494.599609375 c 2
 434.11328125 477.049804688 l 1
 345.390625 477.049804688 l 1
 345.390625 492.650390625 l 2
 345.390625 537.686523438 335.588867188 569.04296875 317.978515625 588.096679688 c 0
 299.954101562 607.599609375 276.151367188 617.450195312 244.9609375 617.450195312 c 0
 178.110351562 617.450195312 140.635742188 579.646484375 140.635742188 479 c 2
 140.635742188 204.049804688 l 2
EndSplineSet
EndChar

StartChar: Egrave
Encoding: 200 200 137
Width: 403
GlyphClass: 2
Flags: MW
HStem: 0.275391 80.9248<147.463 376.588 147.463 376.588> 310.325 81.8994<147.463 344.413 147.463 344.413> 609.65 80.9248<147.463 376.588 147.463 147.463>
VStem: 59.7129 87.75<81.2002 81.2002 81.2002 310.325 392.225 609.65>
LayerCount: 2
Fore
SplineSet
147.462890625 81.2001953125 m 1
 376.587890625 81.2001953125 l 1
 376.587890625 0.275390625 l 1
 59.712890625 0.275390625 l 1
 59.712890625 690.575195312 l 1
 376.587890625 690.575195312 l 1
 376.587890625 609.650390625 l 1
 147.462890625 609.650390625 l 1
 147.462890625 392.224609375 l 1
 344.413085938 392.224609375 l 1
 344.413085938 310.325195312 l 1
 147.462890625 310.325195312 l 1
 147.462890625 81.2001953125 l 1
90.537109375 873.875 m 1
 186.135742188 873.875 l 1
 287.240234375 730.549804688 l 1
 211.641601562 730.549804688 l 1
 90.537109375 873.875 l 1
EndSplineSet
EndChar

StartChar: Eacute
Encoding: 201 201 138
Width: 403
GlyphClass: 2
Flags: MW
HStem: 0.275391 80.9248<147.463 376.588 147.463 376.588> 310.325 81.8994<147.463 344.413 147.463 344.413> 609.65 80.9248<147.463 376.588 147.463 147.463>
VStem: 59.7129 87.75<81.2002 81.2002 81.2002 310.325 392.225 609.65>
LayerCount: 2
Fore
SplineSet
147.462890625 81.2001953125 m 1
 376.587890625 81.2001953125 l 1
 376.587890625 0.275390625 l 1
 59.712890625 0.275390625 l 1
 59.712890625 690.575195312 l 1
 376.587890625 690.575195312 l 1
 376.587890625 609.650390625 l 1
 147.462890625 609.650390625 l 1
 147.462890625 392.224609375 l 1
 344.413085938 392.224609375 l 1
 344.413085938 310.325195312 l 1
 147.462890625 310.325195312 l 1
 147.462890625 81.2001953125 l 1
239.440429688 873.875 m 1
 335.038085938 873.875 l 1
 213.934570312 730.549804688 l 1
 138.334960938 730.549804688 l 1
 239.440429688 873.875 l 1
EndSplineSet
EndChar

StartChar: Ecircumflex
Encoding: 202 202 139
Width: 403
GlyphClass: 2
Flags: MW
HStem: 0.275391 80.9248<147.463 376.588 147.463 376.588> 310.325 81.8994<147.463 344.413 147.463 344.413> 609.65 80.9248<147.463 376.588 147.463 147.463>
VStem: 59.7129 87.75<81.2002 81.2002 81.2002 310.325 392.225 609.65>
LayerCount: 2
Fore
SplineSet
147.462890625 81.2001953125 m 1
 376.587890625 81.2001953125 l 1
 376.587890625 0.275390625 l 1
 59.712890625 0.275390625 l 1
 59.712890625 690.575195312 l 1
 376.587890625 690.575195312 l 1
 376.587890625 609.650390625 l 1
 147.462890625 609.650390625 l 1
 147.462890625 392.224609375 l 1
 344.413085938 392.224609375 l 1
 344.413085938 310.325195312 l 1
 147.462890625 310.325195312 l 1
 147.462890625 81.2001953125 l 1
180.837890625 879.724609375 m 1
 252.458007812 879.724609375 l 1
 362.23046875 722.75 l 1
 275.495117188 722.75 l 1
 218.581054688 804.055664062 l 1
 160.764648438 722.75 l 1
 74.3583984375 722.75 l 1
 180.837890625 879.724609375 l 1
EndSplineSet
EndChar

StartChar: Edieresis
Encoding: 203 203 140
Width: 403
GlyphClass: 2
Flags: MW
HStem: 0.275391 80.9248<147.463 376.588 147.463 376.588> 310.325 81.8994<147.463 344.413 147.463 344.413> 609.65 80.9248<147.463 376.588 147.463 147.463> 733.475 101.4<97.7383 188.413 97.7383 188.413 97.7383 245.938 245.938 336.613>
VStem: 59.7129 87.75<81.2002 81.2002 81.2002 310.325 392.225 609.65> 97.7383 90.6748<733.475 834.875 733.475 834.875> 245.938 90.6758<733.475 834.875 733.475 834.875>
LayerCount: 2
Fore
SplineSet
147.462890625 81.2001953125 m 1xfa
 376.587890625 81.2001953125 l 1
 376.587890625 0.275390625 l 1
 59.712890625 0.275390625 l 1
 59.712890625 690.575195312 l 1
 376.587890625 690.575195312 l 1
 376.587890625 609.650390625 l 1
 147.462890625 609.650390625 l 1
 147.462890625 392.224609375 l 1
 344.413085938 392.224609375 l 1
 344.413085938 310.325195312 l 1
 147.462890625 310.325195312 l 1
 147.462890625 81.2001953125 l 1xfa
97.73828125 834.875 m 1xf6
 188.413085938 834.875 l 1
 188.413085938 733.474609375 l 1
 97.73828125 733.474609375 l 1
 97.73828125 834.875 l 1xf6
245.9375 834.875 m 1
 336.61328125 834.875 l 1
 336.61328125 733.474609375 l 1
 245.9375 733.474609375 l 1
 245.9375 834.875 l 1
EndSplineSet
EndChar

StartChar: Igrave
Encoding: 204 204 141
Width: 209
GlyphClass: 2
Flags: MW
HStem: 0.275391 21G<65.5625 153.312 65.5625 65.5625> 670.575 20G<65.5625 153.312 153.312 153.312>
VStem: 65.5625 87.75<0.275391 690.575 0.275391 690.575>
LayerCount: 2
Fore
SplineSet
65.5625 690.575195312 m 1
 153.3125 690.575195312 l 1
 153.3125 0.275390625 l 1
 65.5625 0.275390625 l 1
 65.5625 690.575195312 l 1
-17.6875 873.875 m 1
 77.91015625 873.875 l 1
 179.015625 730.549804688 l 1
 103.416015625 730.549804688 l 1
 -17.6875 873.875 l 1
EndSplineSet
EndChar

StartChar: Iacute
Encoding: 205 205 142
Width: 209
GlyphClass: 2
Flags: MW
HStem: 0.275391 21G<65.5625 153.312 65.5625 65.5625> 670.575 20G<65.5625 153.312 153.312 153.312>
VStem: 65.5625 87.75<0.275391 690.575 0.275391 690.575>
LayerCount: 2
Fore
SplineSet
65.5625 690.575195312 m 1
 153.3125 690.575195312 l 1
 153.3125 0.275390625 l 1
 65.5625 0.275390625 l 1
 65.5625 690.575195312 l 1
226.813476562 873.875 m 1
 105.708984375 730.549804688 l 1
 30.1103515625 730.549804688 l 1
 131.21484375 873.875 l 1
 226.813476562 873.875 l 1
EndSplineSet
EndChar

StartChar: Icircumflex
Encoding: 206 206 143
Width: 209
GlyphClass: 2
Flags: MW
HStem: 0.275391 21G<65.5625 153.312 65.5625 65.5625> 670.575 20G<65.5625 153.312 153.312 153.312>
VStem: 65.5625 87.75<0.275391 690.575 0.275391 690.575>
LayerCount: 2
Fore
SplineSet
65.5625 690.575195312 m 1
 153.3125 690.575195312 l 1
 153.3125 0.275390625 l 1
 65.5625 0.275390625 l 1
 65.5625 690.575195312 l 1
72.6123046875 879.724609375 m 1
 144.233398438 879.724609375 l 1
 254.005859375 722.75 l 1
 167.26953125 722.75 l 1
 110.356445312 804.055664062 l 1
 52.5390625 722.75 l 1
 -33.8671875 722.75 l 1
 72.6123046875 879.724609375 l 1
EndSplineSet
EndChar

StartChar: Idieresis
Encoding: 207 207 144
Width: 209
GlyphClass: 2
Flags: MW
HStem: 0.275391 21G<65.5625 153.312 65.5625 65.5625> 670.575 20G<65.5625 153.312 153.312 153.312> 733.475 101.4<-10.4873 80.1875 -10.4873 80.1875 -10.4873 137.713 137.713 228.388>
VStem: -10.4873 90.6748<733.475 834.875 733.475 834.875> 65.5625 87.75<0.275391 690.575 0.275391 690.575> 137.713 90.6748<733.475 834.875 733.475 834.875>
LayerCount: 2
Fore
SplineSet
65.5625 690.575195312 m 1xe8
 153.3125 690.575195312 l 1
 153.3125 0.275390625 l 1
 65.5625 0.275390625 l 1
 65.5625 690.575195312 l 1xe8
-10.4873046875 834.875 m 1xf0
 80.1875 834.875 l 1
 80.1875 733.474609375 l 1
 -10.4873046875 733.474609375 l 1
 -10.4873046875 834.875 l 1xf0
137.712890625 834.875 m 1xe4
 228.387695312 834.875 l 1
 228.387695312 733.474609375 l 1
 137.712890625 733.474609375 l 1
 137.712890625 834.875 l 1xe4
EndSplineSet
EndChar

StartChar: Eth
Encoding: 208 208 145
Width: 504
GlyphClass: 2
Flags: MW
HStem: 0.275391 80.9248<175.738 270.312 175.738 270.312> 310.325 80.9248<30.4629 87.0127 30.4629 87.0127 175.738 280.062> 609.65 80.9248<175.738 270.312 175.738 175.738>
VStem: 87.0127 88.7256<81.2002 310.325 81.2002 310.325 81.2002 310.325 391.25 609.65> 371.713 88.7246<211.85 212.825 212.825 471.2 471.2 478.025>
LayerCount: 2
Fore
SplineSet
460.4375 478.025390625 m 2
 460.4375 212.825195312 l 2
 460.4375 143.875 443.526367188 90.4580078125 408.231445312 54.125 c 0
 373.267578125 18.1328125 326.793945312 0.275390625 270.3125 0.275390625 c 2
 87.0126953125 0.275390625 l 1
 87.0126953125 310.325195312 l 1
 30.462890625 310.325195312 l 1
 30.462890625 391.25 l 1
 87.0126953125 391.25 l 1
 87.0126953125 690.575195312 l 1
 270.3125 690.575195312 l 2
 326.772460938 690.575195312 373.23046875 672.899414062 408.202148438 637.2421875 c 0
 443.548828125 601.202148438 460.4375 547.600585938 460.4375 478.025390625 c 2
270.3125 81.2001953125 m 2
 319.762695312 81.2001953125 371.712890625 106.313476562 371.712890625 211.849609375 c 2
 371.712890625 471.200195312 l 2
 371.712890625 582.888671875 322.124023438 609.650390625 270.3125 609.650390625 c 2
 175.73828125 609.650390625 l 1
 175.73828125 391.25 l 1
 280.0625 391.25 l 1
 280.0625 310.325195312 l 1
 175.73828125 310.325195312 l 1
 175.73828125 81.2001953125 l 1
 270.3125 81.2001953125 l 2
EndSplineSet
EndChar

StartChar: Ntilde
Encoding: 209 209 146
Width: 500
GlyphClass: 2
Flags: MW
HStem: 0.275391 21G<59.7129 148.438 59.7129 59.7129 364.063 449.713 364.063 364.063> 670.575 20G<59.7129 145.367 145.367 145.367 360.988 449.713 449.713 449.713> 726.65 82.875<301.261 315.616 301.261 316.372> 760.775 83.8496<196.385 211.945>
VStem: 59.7129 88.7246<0.275391 484.519 0.275391 690.575> 360.988 88.7246<205.428 690.575 0.275391 690.575>
LayerCount: 2
Fore
SplineSet
449.712890625 690.575195312 m 1xcc
 449.712890625 0.275390625 l 1
 364.063476562 0.275390625 l 1
 148.4375 484.518554688 l 1
 148.4375 0.275390625 l 1
 59.712890625 0.275390625 l 1
 59.712890625 690.575195312 l 1
 145.3671875 690.575195312 l 1
 360.98828125 205.427734375 l 1
 360.98828125 690.575195312 l 1
 449.712890625 690.575195312 l 1xcc
210.838867188 844.625 m 0xdc
 228.063476562 844.625 239.708007812 841.512695312 264.325195312 825.686523438 c 0
 287.326171875 810.899414062 296.133789062 809.525390625 306.388671875 809.525390625 c 0
 324.84375 809.525390625 330.5390625 816.119140625 368.7890625 860.408203125 c 1
 368.7890625 765.375 l 1
 347.921875 740.594726562 332.204101562 726.650390625 300.5390625 726.650390625 c 0xec
 282.340820312 726.650390625 271.99609375 729.772460938 242.568359375 746.325195312 c 0
 218.495117188 760.079101562 215.977539062 760.775390625 207.913085938 760.775390625 c 0
 184.857421875 760.775390625 175.662109375 749.53515625 141.61328125 707.918945312 c 1
 141.61328125 806.194335938 l 1
 165.825195312 831.751953125 181.624023438 844.625 210.838867188 844.625 c 0xdc
EndSplineSet
EndChar

StartChar: Ograve
Encoding: 210 210 147
Width: 477
GlyphClass: 2
Flags: MW
HStem: -7.52539 81.9014<220.244 270.099 220.244 271.254> 617.451 81.8994<215.328 269.894>
VStem: 51.9131 88.7246<205.026 479.001> 345.388 88.7256<204.051 205.025 205.025 479.001 479.001 485.825>
LayerCount: 2
Fore
SplineSet
51.9130859375 205.026367188 m 2
 51.9130859375 485.826171875 l 2
 51.9130859375 556.03125 68.783203125 609.959960938 104.1484375 646.018554688 c 0
 139.142578125 681.698242188 185.930664062 699.350585938 243.012695312 699.350585938 c 0
 300.094726562 699.350585938 346.883789062 681.698242188 381.876953125 646.018554688 c 0
 417.2421875 609.959960938 434.11328125 556.030273438 434.11328125 485.825195312 c 2
 434.11328125 205.025390625 l 2
 434.11328125 136.059570312 417.0234375 82.6220703125 381.388671875 46.2939453125 c 0
 346.111328125 10.3310546875 299.49609375 -7.525390625 243.012695312 -7.525390625 c 0
 185.91015625 -7.525390625 139.10546875 10.3095703125 104.119140625 46.3251953125 c 0
 68.82421875 82.658203125 51.9130859375 136.076171875 51.9130859375 205.026367188 c 2
243.98828125 74.3759765625 m 0
 296.208984375 74.3759765625 345.387695312 101.578125 345.387695312 204.05078125 c 2
 345.387695312 479.000976562 l 2
 345.387695312 590.689453125 295.798828125 617.451171875 243.98828125 617.451171875 c 0
 186.66796875 617.451171875 140.637695312 589.764648438 140.637695312 479.000976562 c 2
 140.637695312 204.05078125 l 2
 140.637695312 92.5595703125 196.5 74.3759765625 243.98828125 74.3759765625 c 0
115.88671875 873.875976562 m 1
 211.485351562 873.875976562 l 1
 312.590820312 730.55078125 l 1
 236.991210938 730.55078125 l 1
 115.88671875 873.875976562 l 1
EndSplineSet
EndChar

StartChar: Oacute
Encoding: 211 211 148
Width: 477
GlyphClass: 2
Flags: MW
HStem: -7.52539 81.9014<220.244 270.099 220.244 271.254> 617.451 81.8994<215.328 269.894>
VStem: 51.9131 88.7246<205.026 479.001> 345.388 88.7256<204.051 205.025 205.025 479.001 479.001 485.825>
LayerCount: 2
Fore
SplineSet
51.9130859375 205.026367188 m 2
 51.9130859375 485.826171875 l 2
 51.9130859375 556.03125 68.783203125 609.959960938 104.1484375 646.018554688 c 0
 139.142578125 681.698242188 185.930664062 699.350585938 243.012695312 699.350585938 c 0
 300.094726562 699.350585938 346.883789062 681.698242188 381.876953125 646.018554688 c 0
 417.2421875 609.959960938 434.11328125 556.030273438 434.11328125 485.825195312 c 2
 434.11328125 205.025390625 l 2
 434.11328125 136.059570312 417.0234375 82.6220703125 381.388671875 46.2939453125 c 0
 346.111328125 10.3310546875 299.49609375 -7.525390625 243.012695312 -7.525390625 c 0
 185.91015625 -7.525390625 139.10546875 10.3095703125 104.119140625 46.3251953125 c 0
 68.82421875 82.658203125 51.9130859375 136.076171875 51.9130859375 205.026367188 c 2
243.98828125 74.3759765625 m 0
 296.208984375 74.3759765625 345.387695312 101.578125 345.387695312 204.05078125 c 2
 345.387695312 479.000976562 l 2
 345.387695312 590.689453125 295.798828125 617.451171875 243.98828125 617.451171875 c 0
 186.66796875 617.451171875 140.637695312 589.764648438 140.637695312 479.000976562 c 2
 140.637695312 204.05078125 l 2
 140.637695312 92.5595703125 196.5 74.3759765625 243.98828125 74.3759765625 c 0
264.790039062 873.875976562 m 1
 360.388671875 873.875976562 l 1
 239.284179688 730.55078125 l 1
 163.684570312 730.55078125 l 1
 264.790039062 873.875976562 l 1
EndSplineSet
EndChar

StartChar: Ocircumflex
Encoding: 212 212 149
Width: 477
GlyphClass: 2
Flags: MW
HStem: -7.52539 81.9014<220.244 270.099 220.244 271.254> 617.451 81.8994<215.328 269.894>
VStem: 51.9131 88.7246<205.026 479.001> 345.388 88.7256<204.051 205.025 205.025 479.001 479.001 485.825>
LayerCount: 2
Fore
SplineSet
51.9130859375 205.026367188 m 2
 51.9130859375 485.826171875 l 2
 51.9130859375 556.03125 68.783203125 609.959960938 104.1484375 646.018554688 c 0
 139.142578125 681.698242188 185.930664062 699.350585938 243.012695312 699.350585938 c 0
 300.094726562 699.350585938 346.883789062 681.698242188 381.876953125 646.018554688 c 0
 417.2421875 609.959960938 434.11328125 556.030273438 434.11328125 485.825195312 c 2
 434.11328125 205.025390625 l 2
 434.11328125 136.059570312 417.0234375 82.6220703125 381.388671875 46.2939453125 c 0
 346.111328125 10.3310546875 299.49609375 -7.525390625 243.012695312 -7.525390625 c 0
 185.91015625 -7.525390625 139.10546875 10.3095703125 104.119140625 46.3251953125 c 0
 68.82421875 82.658203125 51.9130859375 136.076171875 51.9130859375 205.026367188 c 2
243.98828125 74.3759765625 m 0
 296.208984375 74.3759765625 345.387695312 101.578125 345.387695312 204.05078125 c 2
 345.387695312 479.000976562 l 2
 345.387695312 590.689453125 295.798828125 617.451171875 243.98828125 617.451171875 c 0
 186.66796875 617.451171875 140.637695312 589.764648438 140.637695312 479.000976562 c 2
 140.637695312 204.05078125 l 2
 140.637695312 92.5595703125 196.5 74.3759765625 243.98828125 74.3759765625 c 0
277.80859375 879.725585938 m 1
 387.581054688 722.750976562 l 1
 300.844726562 722.750976562 l 1
 243.931640625 804.056640625 l 1
 186.114257812 722.750976562 l 1
 99.7080078125 722.750976562 l 1
 206.1875 879.725585938 l 1
 277.80859375 879.725585938 l 1
EndSplineSet
EndChar

StartChar: Otilde
Encoding: 213 213 150
Width: 477
GlyphClass: 2
Flags: MW
HStem: -7.52539 81.9014<220.244 270.099 220.244 271.254> 617.451 81.8994<215.328 269.894> 726.651 82.875<288.587 302.942 288.587 303.699> 760.776 83.8496<183.71 199.269>
VStem: 51.9131 88.7246<205.026 479.001> 345.388 88.7256<204.051 205.025 205.025 479.001 479.001 485.825>
LayerCount: 2
Fore
SplineSet
51.9130859375 205.026367188 m 2xcc
 51.9130859375 485.826171875 l 2
 51.9130859375 556.03125 68.783203125 609.959960938 104.1484375 646.018554688 c 0
 139.142578125 681.698242188 185.930664062 699.350585938 243.012695312 699.350585938 c 0
 300.094726562 699.350585938 346.883789062 681.698242188 381.876953125 646.018554688 c 0
 417.2421875 609.959960938 434.11328125 556.030273438 434.11328125 485.825195312 c 2
 434.11328125 205.025390625 l 2
 434.11328125 136.059570312 417.0234375 82.6220703125 381.388671875 46.2939453125 c 0
 346.111328125 10.3310546875 299.49609375 -7.525390625 243.012695312 -7.525390625 c 0
 185.91015625 -7.525390625 139.10546875 10.3095703125 104.119140625 46.3251953125 c 0
 68.82421875 82.658203125 51.9130859375 136.076171875 51.9130859375 205.026367188 c 2xcc
243.98828125 74.3759765625 m 0
 296.208984375 74.3759765625 345.387695312 101.578125 345.387695312 204.05078125 c 2
 345.387695312 479.000976562 l 2
 345.387695312 590.689453125 295.798828125 617.451171875 243.98828125 617.451171875 c 0
 186.66796875 617.451171875 140.637695312 589.764648438 140.637695312 479.000976562 c 2
 140.637695312 204.05078125 l 2
 140.637695312 92.5595703125 196.5 74.3759765625 243.98828125 74.3759765625 c 0
198.165039062 844.625976562 m 0xdc
 215.389648438 844.625976562 227.034179688 841.513671875 251.650390625 825.6875 c 0
 274.65234375 810.900390625 283.459960938 809.526367188 293.71484375 809.526367188 c 0
 312.169921875 809.526367188 317.864257812 816.120117188 356.114257812 860.409179688 c 1
 356.114257812 765.375 l 1
 335.248046875 740.598632812 319.533203125 726.651367188 287.864257812 726.651367188 c 0xec
 269.666992188 726.651367188 259.322265625 729.7734375 229.893554688 746.326171875 c 0
 205.81640625 760.083007812 203.298828125 760.776367188 195.23828125 760.776367188 c 0
 172.182617188 760.776367188 162.986328125 749.536132812 128.9375 707.919921875 c 1
 128.9375 806.1953125 l 1
 153.150390625 831.75390625 168.952148438 844.625976562 198.165039062 844.625976562 c 0xdc
EndSplineSet
EndChar

StartChar: Odieresis
Encoding: 214 214 151
Width: 477
GlyphClass: 2
Flags: MW
HStem: -7.52539 81.9014<220.244 270.099 220.244 271.254> 617.451 81.8994<215.328 269.894> 733.476 101.4<123.088 213.763 123.088 213.763 123.088 271.288 271.288 361.963>
VStem: 51.9131 88.7246<205.026 479.001> 123.088 90.6748<733.476 834.876 733.476 834.876> 271.288 90.6748<733.476 834.876 733.476 834.876> 345.388 88.7256<204.051 205.025 205.025 479.001 479.001 485.825>
LayerCount: 2
Fore
SplineSet
51.9130859375 205.026367188 m 2xf2
 51.9130859375 485.826171875 l 2
 51.9130859375 556.03125 68.783203125 609.959960938 104.1484375 646.018554688 c 0
 139.142578125 681.698242188 185.930664062 699.350585938 243.012695312 699.350585938 c 0
 300.094726562 699.350585938 346.883789062 681.698242188 381.876953125 646.018554688 c 0
 417.2421875 609.959960938 434.11328125 556.030273438 434.11328125 485.825195312 c 2
 434.11328125 205.025390625 l 2
 434.11328125 136.059570312 417.0234375 82.6220703125 381.388671875 46.2939453125 c 0
 346.111328125 10.3310546875 299.49609375 -7.525390625 243.012695312 -7.525390625 c 0
 185.91015625 -7.525390625 139.10546875 10.3095703125 104.119140625 46.3251953125 c 0
 68.82421875 82.658203125 51.9130859375 136.076171875 51.9130859375 205.026367188 c 2xf2
243.98828125 74.3759765625 m 0
 296.208984375 74.3759765625 345.387695312 101.578125 345.387695312 204.05078125 c 2
 345.387695312 479.000976562 l 2
 345.387695312 590.689453125 295.798828125 617.451171875 243.98828125 617.451171875 c 0
 186.66796875 617.451171875 140.637695312 589.764648438 140.637695312 479.000976562 c 2
 140.637695312 204.05078125 l 2
 140.637695312 92.5595703125 196.5 74.3759765625 243.98828125 74.3759765625 c 0
123.087890625 834.875976562 m 1xe8
 213.762695312 834.875976562 l 1
 213.762695312 733.475585938 l 1
 123.087890625 733.475585938 l 1
 123.087890625 834.875976562 l 1xe8
271.288085938 834.875976562 m 1xe4
 361.962890625 834.875976562 l 1
 361.962890625 733.475585938 l 1
 271.288085938 733.475585938 l 1
 271.288085938 834.875976562 l 1xe4
EndSplineSet
EndChar

StartChar: multiply
Encoding: 215 215 152
Width: 420
GlyphClass: 2
Flags: MW
HStem: 122.488 311.294<114.354 114.384>
VStem: 58.9336 311.507<176.679 176.72 176.72 379.622>
LayerCount: 2
Fore
SplineSet
215.682617188 223.788085938 m 1
 114.383789062 122.48828125 l 1
 58.93359375 176.678710938 l 1
 160.405273438 278.150390625 l 1
 58.93359375 379.622070312 l 1
 114.353515625 433.782226562 l 1
 215.682617188 333.427734375 l 1
 316.137695312 433.881835938 l 1
 370.440429688 379.580078125 l 1
 269.985351562 278.150390625 l 1
 370.440429688 176.719726562 l 1
 316.107421875 122.387695312 l 1
 215.682617188 223.788085938 l 1
EndSplineSet
EndChar

StartChar: Oslash
Encoding: 216 216 153
Width: 477
GlyphClass: 2
Flags: MW
HStem: -7.52441 81.9014<227.559 270.098 227.559 271.253> 617.452 81.8975<215.327 260.116>
VStem: 51.9121 88.7246<205.025 479.002> 345.387 88.7256<204.052 205.026 205.026 479.002 479.002 481.536>
LayerCount: 2
Fore
SplineSet
369.909179688 710.075195312 m 1
 440.743164062 710.075195312 l 1
 401.16015625 620.2109375 l 1
 423.37109375 585.100585938 434.112304688 540.129882812 434.112304688 485.826171875 c 2
 434.112304688 205.026367188 l 2
 434.112304688 136.060546875 417.022460938 82.623046875 381.387695312 46.294921875 c 0
 346.110351562 10.33203125 299.495117188 -7.5244140625 243.01171875 -7.5244140625 c 0
 202.622070312 -7.5244140625 166.995117188 1.7197265625 136.65625 20.4111328125 c 1
 119.041015625 -19.2236328125 l 1
 48.224609375 -19.2236328125 l 1
 86.779296875 68.5947265625 l 1
 63.2998046875 104.33984375 51.912109375 150.017578125 51.912109375 205.025390625 c 2
 51.912109375 485.825195312 l 2
 51.912109375 556.030273438 68.7822265625 609.958984375 104.147460938 646.017578125 c 0
 139.141601562 681.697265625 185.930664062 699.349609375 243.01171875 699.349609375 c 0
 285.625 699.349609375 322.282226562 689.909179688 352.381835938 670.639648438 c 1
 369.909179688 710.075195312 l 1
243.987304688 617.452148438 m 0
 186.666992188 617.452148438 140.63671875 589.765625 140.63671875 479.001953125 c 2
 140.63671875 204.051757812 l 2
 140.63671875 199.374023438 140.719726562 194.913085938 140.883789062 190.671875 c 1
 315.7421875 587.9140625 l 1
 299.5 607.485351562 276.244140625 617.452148438 243.987304688 617.452148438 c 0
243.987304688 74.376953125 m 0
 296.208007812 74.376953125 345.38671875 101.579101562 345.38671875 204.051757812 c 2
 345.38671875 479.001953125 l 2
 345.38671875 484.0703125 345.294921875 488.877929688 345.116210938 493.419921875 c 1
 171.408203125 100.33984375 l 1
 187.537109375 83.3203125 211.129882812 74.376953125 243.987304688 74.376953125 c 0
EndSplineSet
EndChar

StartChar: Ugrave
Encoding: 217 217 154
Width: 478
GlyphClass: 2
Flags: MW
HStem: -7.52539 81.9004<228.681 270.942> 670.575 20G<59.7119 148.437 148.437 148.437 339.537 428.262 428.262 428.262>
VStem: 59.7119 88.7246<180.65 184.55 184.55 690.575> 339.537 88.7246<184.55 690.575>
LayerCount: 2
Fore
SplineSet
243.98828125 -7.525390625 m 0
 136.00390625 -7.525390625 59.7119140625 68.9150390625 59.7119140625 180.650390625 c 2
 59.7119140625 690.575195312 l 1
 148.436523438 690.575195312 l 1
 148.436523438 184.549804688 l 2
 148.436523438 147.551757812 157.36328125 120.537109375 173.95703125 102.196289062 c 0
 190.611328125 83.7890625 213.374023438 74.375 243.987304688 74.375 c 0
 304.215820312 74.375 339.537109375 113.571289062 339.537109375 184.549804688 c 2
 339.537109375 690.575195312 l 1
 428.26171875 690.575195312 l 1
 428.26171875 180.650390625 l 2
 428.26171875 124.899414062 411.291015625 78.978515625 376.971679688 44.3154296875 c 0
 342.698242188 9.6982421875 297.896484375 -7.525390625 243.98828125 -7.525390625 c 0
116.860351562 873.875 m 1
 212.458007812 873.875 l 1
 313.563476562 730.549804688 l 1
 237.963867188 730.549804688 l 1
 116.860351562 873.875 l 1
EndSplineSet
EndChar

StartChar: Uacute
Encoding: 218 218 155
Width: 478
GlyphClass: 2
Flags: MW
HStem: -7.52539 81.9004<228.681 270.942> 670.575 20G<59.7119 148.437 148.437 148.437 339.537 428.262 428.262 428.262>
VStem: 59.7119 88.7246<180.65 184.55 184.55 690.575> 339.537 88.7246<184.55 690.575>
LayerCount: 2
Fore
SplineSet
243.98828125 -7.525390625 m 0
 136.00390625 -7.525390625 59.7119140625 68.9150390625 59.7119140625 180.650390625 c 2
 59.7119140625 690.575195312 l 1
 148.436523438 690.575195312 l 1
 148.436523438 184.549804688 l 2
 148.436523438 147.551757812 157.36328125 120.537109375 173.95703125 102.196289062 c 0
 190.611328125 83.7890625 213.374023438 74.375 243.987304688 74.375 c 0
 304.215820312 74.375 339.537109375 113.571289062 339.537109375 184.549804688 c 2
 339.537109375 690.575195312 l 1
 428.26171875 690.575195312 l 1
 428.26171875 180.650390625 l 2
 428.26171875 124.899414062 411.291015625 78.978515625 376.971679688 44.3154296875 c 0
 342.698242188 9.6982421875 297.896484375 -7.525390625 243.98828125 -7.525390625 c 0
265.763671875 873.875 m 1
 361.361328125 873.875 l 1
 240.2578125 730.549804688 l 1
 164.658203125 730.549804688 l 1
 265.763671875 873.875 l 1
EndSplineSet
EndChar

StartChar: Ucircumflex
Encoding: 219 219 156
Width: 478
GlyphClass: 2
Flags: MW
HStem: -7.52539 81.9004<228.681 270.942> 670.575 20G<59.7119 148.437 148.437 148.437 339.537 428.262 428.262 428.262>
VStem: 59.7119 88.7246<180.65 184.55 184.55 690.575> 339.537 88.7246<184.55 690.575>
LayerCount: 2
Fore
SplineSet
243.98828125 -7.525390625 m 0
 136.00390625 -7.525390625 59.7119140625 68.9150390625 59.7119140625 180.650390625 c 2
 59.7119140625 690.575195312 l 1
 148.436523438 690.575195312 l 1
 148.436523438 184.549804688 l 2
 148.436523438 147.551757812 157.36328125 120.537109375 173.95703125 102.196289062 c 0
 190.611328125 83.7890625 213.374023438 74.375 243.987304688 74.375 c 0
 304.215820312 74.375 339.537109375 113.571289062 339.537109375 184.549804688 c 2
 339.537109375 690.575195312 l 1
 428.26171875 690.575195312 l 1
 428.26171875 180.650390625 l 2
 428.26171875 124.899414062 411.291015625 78.978515625 376.971679688 44.3154296875 c 0
 342.698242188 9.6982421875 297.896484375 -7.525390625 243.98828125 -7.525390625 c 0
207.16015625 879.724609375 m 1
 278.78125 879.724609375 l 1
 388.553710938 722.75 l 1
 301.818359375 722.75 l 1
 244.904296875 804.055664062 l 1
 187.086914062 722.75 l 1
 100.680664062 722.75 l 1
 207.16015625 879.724609375 l 1
EndSplineSet
EndChar

StartChar: Udieresis
Encoding: 220 220 157
Width: 478
GlyphClass: 2
Flags: MW
HStem: -7.52539 81.9004<228.681 270.942> 670.575 20G<59.7119 148.437 148.437 148.437 339.537 428.262 428.262 428.262> 733.475 101.4<124.061 214.736 124.061 214.736 124.061 272.261 272.261 362.936>
VStem: 59.7119 88.7246<180.65 184.55 184.55 690.575> 124.061 90.6758<733.475 834.875 733.475 834.875> 272.261 90.6748<733.475 834.875 733.475 834.875> 339.537 88.7246<184.55 690.575>
LayerCount: 2
Fore
SplineSet
243.98828125 -7.525390625 m 0xf2
 136.00390625 -7.525390625 59.7119140625 68.9150390625 59.7119140625 180.650390625 c 2
 59.7119140625 690.575195312 l 1
 148.436523438 690.575195312 l 1
 148.436523438 184.549804688 l 2
 148.436523438 147.551757812 157.36328125 120.537109375 173.95703125 102.196289062 c 0
 190.611328125 83.7890625 213.374023438 74.375 243.987304688 74.375 c 0
 304.215820312 74.375 339.537109375 113.571289062 339.537109375 184.549804688 c 2
 339.537109375 690.575195312 l 1
 428.26171875 690.575195312 l 1
 428.26171875 180.650390625 l 2
 428.26171875 124.899414062 411.291015625 78.978515625 376.971679688 44.3154296875 c 0
 342.698242188 9.6982421875 297.896484375 -7.525390625 243.98828125 -7.525390625 c 0xf2
124.060546875 834.875 m 1xe8
 214.736328125 834.875 l 1
 214.736328125 733.474609375 l 1
 124.060546875 733.474609375 l 1
 124.060546875 834.875 l 1xe8
272.260742188 834.875 m 1xe4
 362.935546875 834.875 l 1
 362.935546875 733.474609375 l 1
 272.260742188 733.474609375 l 1
 272.260742188 834.875 l 1xe4
EndSplineSet
EndChar

StartChar: Yacute
Encoding: 221 221 158
Width: 393
GlyphClass: 2
Flags: MW
HStem: 0.275391 21G<157.213 244.963 157.213 157.213> 670.575 20G<6.10254 103.058 103.058 103.058 299.118 396.073 396.073 396.073>
VStem: 157.213 87.75<0.275391 287.28 0.275391 287.28>
LayerCount: 2
Fore
SplineSet
396.073242188 690.575195312 m 1
 244.962890625 287.280273438 l 1
 244.962890625 0.275390625 l 1
 157.212890625 0.275390625 l 1
 157.212890625 287.280273438 l 1
 6.1025390625 690.575195312 l 1
 103.057617188 690.575195312 l 1
 201.087890625 401.065429688 l 1
 299.118164062 690.575195312 l 1
 396.073242188 690.575195312 l 1
322.36328125 873.875 m 1
 201.259765625 730.549804688 l 1
 125.66015625 730.549804688 l 1
 226.765625 873.875 l 1
 322.36328125 873.875 l 1
EndSplineSet
EndChar

StartChar: Thorn
Encoding: 222 222 159
Width: 439
GlyphClass: 2
Flags: MW
HStem: 0.275391 21G<59.7129 147.463 59.7129 59.7129> 162.125 79.9512<147.463 235.213 235.213 239.113 147.463 235.213> 486.801 80.9238<147.463 235.213 147.463 239.113> 670.575 20G<59.7129 147.463 147.463 147.463>
VStem: 59.7129 87.75<0.275391 162.125 0.275391 242.076 242.076 486.801 567.725 690.575> 332.713 88.7246<325.246 409.888>
LayerCount: 2
Fore
SplineSet
239.11328125 567.724609375 m 2
 324.49609375 567.724609375 421.4375 536.209960938 421.4375 362.974609375 c 0
 421.4375 287.517578125 402.68359375 162.125 239.11328125 162.125 c 2
 147.462890625 162.125 l 1
 147.462890625 0.275390625 l 1
 59.712890625 0.275390625 l 1
 59.712890625 690.575195312 l 1
 147.462890625 690.575195312 l 1
 147.462890625 567.724609375 l 1
 239.11328125 567.724609375 l 2
235.212890625 242.076171875 m 2
 299.93359375 242.076171875 332.712890625 273.80859375 332.712890625 362.975585938 c 0
 332.712890625 456.799804688 297.19921875 486.80078125 235.212890625 486.80078125 c 2
 147.462890625 486.80078125 l 1
 147.462890625 242.076171875 l 1
 235.212890625 242.076171875 l 2
EndSplineSet
EndChar

StartChar: germandbls
Encoding: 223 223 160
Width: 413
GlyphClass: 2
Flags: MW
HStem: -3.625 78<205.963 233.261 233.261 241.062 205.963 233.261> 366.875 77.0254<203.037 232.287 203.037 232.287> 621.35 78<196.56 238.402 188.632 238.854>
VStem: 58.7373 84.8242<0.275391 518 518 540.425 0.275391 546.829> 287.861 84.8262<195.13 279.104>
LayerCount: 2
Fore
SplineSet
317.544921875 411.978515625 m 1
 363.862304688 381.711914062 372.6875 338.43359375 372.6875 223.548828125 c 0
 372.6875 166.711914062 370.11328125 123.30859375 364.754882812 92.833984375 c 0
 349.5390625 6.291015625 288.06640625 -3.625 241.0625 -3.625 c 2
 205.962890625 -3.625 l 1
 205.962890625 74.375 l 1
 233.260742188 74.375 l 2
 252.165039062 74.375 263.745117188 79.0029296875 270.125 86.091796875 c 0
 282.698242188 100.061523438 287.861328125 121.446289062 287.861328125 223.549804688 c 0
 287.861328125 334.659179688 281.928710938 366.875 232.287109375 366.875 c 2
 203.037109375 366.875 l 1
 203.037109375 443.900390625 l 1
 232.287109375 443.900390625 l 2
 253.66015625 443.900390625 265.3984375 450.770507812 271.720703125 463.416015625 c 0
 278.786132812 477.548828125 282.987304688 501.743164062 282.987304688 535.549804688 c 0
 282.987304688 593.545898438 262.969726562 621.349609375 214.737304688 621.349609375 c 0
 178.3828125 621.349609375 143.561523438 607.4921875 143.561523438 540.424804688 c 2
 143.561523438 0.275390625 l 1
 58.7373046875 0.275390625 l 1
 58.7373046875 518 l 2
 58.7373046875 575.657226562 70.40625 620.66015625 95.2314453125 652.12890625 c 0
 120.530273438 684.196289062 161.552734375 699.349609375 215.711914062 699.349609375 c 0
 261.092773438 699.349609375 298.46875 685.270507812 326.318359375 656.7265625 c 0
 354.243164062 628.103515625 367.8125 588.84375 367.8125 540.424804688 c 0
 367.8125 469.301757812 354.15625 437.349609375 317.544921875 411.978515625 c 1
EndSplineSet
EndChar

StartChar: agrave
Encoding: 224 224 161
Width: 401
GlyphClass: 2
Flags: MW
HStem: -7.52539 75.0742<177.39 196.893> 0.275391 21G<271.288 352.213 271.288 271.288> 238.174 67.2764<199.137 205.963 205.963 268.362 199.137 268.363> 453.65 76.0498<185.387 217.764>
VStem: 40.2119 83.8506<127.019 174.974> 52.8867 79.9502<371.75 388.325 371.75 389.3 371.75 410.684> 268.363 83.8496<153.349 238.174 238.174 238.174>
LayerCount: 2
Fore
SplineSet
199.13671875 453.650390625 m 0xba
 171.63671875 453.650390625 132.836914062 443.817382812 132.836914062 388.325195312 c 2
 132.836914062 371.75 l 1
 52.88671875 371.75 l 1
 52.88671875 389.299804688 l 2
 52.88671875 432.068359375 66.1552734375 466.9375 93.208984375 492.234375 c 0
 120.126953125 517.405273438 155.87890625 529.700195312 199.137695312 529.700195312 c 0
 247.505859375 529.700195312 285.9375 516.325195312 312.7109375 488.494140625 c 0
 339.359375 460.793945312 352.212890625 422.366210938 352.212890625 374.674804688 c 2
 352.212890625 0.275390625 l 1
 271.288085938 0.275390625 l 1x76
 271.288085938 30.0751953125 l 1
 247.715820312 5.12109375 216.09765625 -7.525390625 177.6875 -7.525390625 c 0
 134.20703125 -7.525390625 99.439453125 6.482421875 75.4140625 35.1005859375 c 0
 51.56640625 63.5068359375 40.2119140625 102.637695312 40.2119140625 151.400390625 c 0
 40.2119140625 198.546875 53.6474609375 236.717773438 81.2958984375 264.366210938 c 0
 109.077148438 292.1484375 148.895507812 305.450195312 199.13671875 305.450195312 c 2
 268.362304688 305.450195312 l 1
 268.362304688 377.599609375 l 2
 268.362304688 439.046875 236.391601562 453.650390625 199.13671875 453.650390625 c 0xba
193.288085938 67.548828125 m 0xba
 221.575195312 67.548828125 268.36328125 78.814453125 268.36328125 153.348632812 c 2
 268.36328125 238.173828125 l 1
 205.962890625 238.173828125 l 2
 158.310546875 238.173828125 124.0625 218.271484375 124.0625 152.374023438 c 0
 124.0625 78.822265625 161.491210938 67.548828125 193.288085938 67.548828125 c 0xba
78.8369140625 705.19921875 m 1
 174.435546875 705.19921875 l 1
 275.541015625 561.874023438 l 1
 199.94140625 561.874023438 l 1
 78.8369140625 705.19921875 l 1
EndSplineSet
EndChar

StartChar: aacute
Encoding: 225 225 162
Width: 401
GlyphClass: 2
Flags: MW
HStem: -7.52539 75.0742<177.39 196.893> 0.275391 21G<271.288 352.213 271.288 271.288> 238.174 67.2764<199.137 205.963 205.963 268.362 199.137 268.363> 453.65 76.0498<185.387 217.764>
VStem: 40.2119 83.8506<127.019 174.974> 52.8867 79.9502<371.75 388.325 371.75 389.3 371.75 410.684> 268.363 83.8496<153.349 238.174 238.174 238.174>
LayerCount: 2
Fore
SplineSet
199.13671875 453.650390625 m 0xba
 171.63671875 453.650390625 132.836914062 443.817382812 132.836914062 388.325195312 c 2
 132.836914062 371.75 l 1
 52.88671875 371.75 l 1
 52.88671875 389.299804688 l 2
 52.88671875 432.068359375 66.1552734375 466.9375 93.208984375 492.234375 c 0
 120.126953125 517.405273438 155.87890625 529.700195312 199.137695312 529.700195312 c 0
 247.505859375 529.700195312 285.9375 516.325195312 312.7109375 488.494140625 c 0
 339.359375 460.793945312 352.212890625 422.366210938 352.212890625 374.674804688 c 2
 352.212890625 0.275390625 l 1
 271.288085938 0.275390625 l 1x76
 271.288085938 30.0751953125 l 1
 247.715820312 5.12109375 216.09765625 -7.525390625 177.6875 -7.525390625 c 0
 134.20703125 -7.525390625 99.439453125 6.482421875 75.4140625 35.1005859375 c 0
 51.56640625 63.5068359375 40.2119140625 102.637695312 40.2119140625 151.400390625 c 0
 40.2119140625 198.546875 53.6474609375 236.717773438 81.2958984375 264.366210938 c 0
 109.077148438 292.1484375 148.895507812 305.450195312 199.13671875 305.450195312 c 2
 268.362304688 305.450195312 l 1
 268.362304688 377.599609375 l 2
 268.362304688 439.046875 236.391601562 453.650390625 199.13671875 453.650390625 c 0xba
193.288085938 67.548828125 m 0xba
 221.575195312 67.548828125 268.36328125 78.814453125 268.36328125 153.348632812 c 2
 268.36328125 238.173828125 l 1
 205.962890625 238.173828125 l 2
 158.310546875 238.173828125 124.0625 218.271484375 124.0625 152.374023438 c 0
 124.0625 78.822265625 161.491210938 67.548828125 193.288085938 67.548828125 c 0xba
227.740234375 705.19921875 m 1
 323.338867188 705.19921875 l 1
 202.234375 561.874023438 l 1
 126.634765625 561.874023438 l 1
 227.740234375 705.19921875 l 1
EndSplineSet
EndChar

StartChar: acircumflex
Encoding: 226 226 163
Width: 401
GlyphClass: 2
Flags: MW
HStem: -7.52539 75.0742<177.39 196.893> 0.275391 21G<271.288 352.213 271.288 271.288> 238.174 67.2764<199.137 205.963 205.963 268.362 199.137 268.363> 453.65 76.0498<185.387 217.764>
VStem: 40.2119 83.8506<127.019 174.974> 52.8867 79.9502<371.75 388.325 371.75 389.3 371.75 410.684> 268.363 83.8496<153.349 238.174 238.174 238.174>
LayerCount: 2
Fore
SplineSet
199.13671875 453.650390625 m 0xba
 171.63671875 453.650390625 132.836914062 443.817382812 132.836914062 388.325195312 c 2
 132.836914062 371.75 l 1
 52.88671875 371.75 l 1
 52.88671875 389.299804688 l 2
 52.88671875 432.068359375 66.1552734375 466.9375 93.208984375 492.234375 c 0
 120.126953125 517.405273438 155.87890625 529.700195312 199.137695312 529.700195312 c 0
 247.505859375 529.700195312 285.9375 516.325195312 312.7109375 488.494140625 c 0
 339.359375 460.793945312 352.212890625 422.366210938 352.212890625 374.674804688 c 2
 352.212890625 0.275390625 l 1
 271.288085938 0.275390625 l 1x76
 271.288085938 30.0751953125 l 1
 247.715820312 5.12109375 216.09765625 -7.525390625 177.6875 -7.525390625 c 0
 134.20703125 -7.525390625 99.439453125 6.482421875 75.4140625 35.1005859375 c 0
 51.56640625 63.5068359375 40.2119140625 102.637695312 40.2119140625 151.400390625 c 0
 40.2119140625 198.546875 53.6474609375 236.717773438 81.2958984375 264.366210938 c 0
 109.077148438 292.1484375 148.895507812 305.450195312 199.13671875 305.450195312 c 2
 268.362304688 305.450195312 l 1
 268.362304688 377.599609375 l 2
 268.362304688 439.046875 236.391601562 453.650390625 199.13671875 453.650390625 c 0xba
193.288085938 67.548828125 m 0xba
 221.575195312 67.548828125 268.36328125 78.814453125 268.36328125 153.348632812 c 2
 268.36328125 238.173828125 l 1
 205.962890625 238.173828125 l 2
 158.310546875 238.173828125 124.0625 218.271484375 124.0625 152.374023438 c 0
 124.0625 78.822265625 161.491210938 67.548828125 193.288085938 67.548828125 c 0xba
169.137695312 711.048828125 m 1
 240.7578125 711.048828125 l 1
 350.53125 554.07421875 l 1
 263.794921875 554.07421875 l 1
 206.880859375 635.37890625 l 1
 149.064453125 554.07421875 l 1
 62.658203125 554.07421875 l 1
 169.137695312 711.048828125 l 1
EndSplineSet
EndChar

StartChar: atilde
Encoding: 227 227 164
Width: 401
GlyphClass: 2
Flags: MW
HStem: -7.52539 75.0742<177.39 196.893> 0.275391 21G<271.288 352.213 271.288 271.288> 238.174 67.2764<199.137 205.963 205.963 268.362 199.137 268.363> 453.65 76.0498<185.387 217.764> 557.974 82.875<251.539 265.894 251.539 266.648> 592.099 83.8506<146.66 162.218> 671.732 20G<319.065 319.065>
VStem: 40.2119 83.8506<127.019 174.974> 52.8867 79.9502<371.75 388.325 371.75 389.3 371.75 410.684> 268.363 83.8496<153.349 238.174 238.174 238.174>
LayerCount: 2
Fore
SplineSet
199.13671875 453.650390625 m 0xb140
 171.63671875 453.650390625 132.836914062 443.817382812 132.836914062 388.325195312 c 2
 132.836914062 371.75 l 1
 52.88671875 371.75 l 1
 52.88671875 389.299804688 l 2
 52.88671875 432.068359375 66.1552734375 466.9375 93.208984375 492.234375 c 0
 120.126953125 517.405273438 155.87890625 529.700195312 199.137695312 529.700195312 c 0
 247.505859375 529.700195312 285.9375 516.325195312 312.7109375 488.494140625 c 0
 339.359375 460.793945312 352.212890625 422.366210938 352.212890625 374.674804688 c 2
 352.212890625 0.275390625 l 1
 271.288085938 0.275390625 l 1x70c0
 271.288085938 30.0751953125 l 1
 247.715820312 5.12109375 216.09765625 -7.525390625 177.6875 -7.525390625 c 0
 134.20703125 -7.525390625 99.439453125 6.482421875 75.4140625 35.1005859375 c 0
 51.56640625 63.5068359375 40.2119140625 102.637695312 40.2119140625 151.400390625 c 0
 40.2119140625 198.546875 53.6474609375 236.717773438 81.2958984375 264.366210938 c 0
 109.077148438 292.1484375 148.895507812 305.450195312 199.13671875 305.450195312 c 2
 268.362304688 305.450195312 l 1
 268.362304688 377.599609375 l 2
 268.362304688 439.046875 236.391601562 453.650390625 199.13671875 453.650390625 c 0xb140
193.288085938 67.548828125 m 0xb140
 221.575195312 67.548828125 268.36328125 78.814453125 268.36328125 153.348632812 c 2
 268.36328125 238.173828125 l 1
 205.962890625 238.173828125 l 2
 158.310546875 238.173828125 124.0625 218.271484375 124.0625 152.374023438 c 0
 124.0625 78.822265625 161.491210938 67.548828125 193.288085938 67.548828125 c 0xb140
161.115234375 675.94921875 m 0x3440
 178.340820312 675.94921875 189.985351562 672.8359375 214.6015625 657.010742188 c 0
 237.602539062 642.223632812 246.411132812 640.848632812 256.666015625 640.848632812 c 0
 275.12109375 640.848632812 280.815429688 647.443359375 319.065429688 691.732421875 c 1
 319.065429688 596.698242188 l 1
 298.198242188 571.920898438 282.482421875 557.973632812 250.814453125 557.973632812 c 0x3a40
 232.6171875 557.973632812 222.271484375 561.096679688 192.84375 577.649414062 c 0
 168.766601562 591.40625 166.249023438 592.098632812 158.1875 592.098632812 c 0
 135.131835938 592.098632812 125.936523438 580.859375 91.8876953125 539.243164062 c 1
 91.8876953125 637.518554688 l 1
 116.1015625 663.078125 131.904296875 675.94921875 161.115234375 675.94921875 c 0x3440
EndSplineSet
EndChar

StartChar: adieresis
Encoding: 228 228 165
Width: 401
GlyphClass: 2
Flags: MW
HStem: -7.52539 75.0742<177.39 196.893> 0.275391 21G<271.288 352.213 271.288 271.288> 238.174 67.2764<199.137 205.963 205.963 268.362 199.137 268.363> 453.65 76.0498<185.387 217.764> 564.799 101.4<86.0381 176.713 86.0381 176.713 86.0381 234.238 234.238 324.913>
VStem: 40.2119 83.8506<127.019 174.974> 52.8867 79.9502<371.75 388.325 371.75 389.3 371.75 410.684> 86.0381 90.6748<564.799 666.199 564.799 666.199> 234.238 90.6748<564.799 666.199 564.799 666.199> 268.363 83.8496<153.349 238.174 238.174 238.174>
LayerCount: 2
Fore
SplineSet
199.13671875 453.650390625 m 0xbc40
 171.63671875 453.650390625 132.836914062 443.817382812 132.836914062 388.325195312 c 2
 132.836914062 371.75 l 1
 52.88671875 371.75 l 1
 52.88671875 389.299804688 l 2
 52.88671875 432.068359375 66.1552734375 466.9375 93.208984375 492.234375 c 0
 120.126953125 517.405273438 155.87890625 529.700195312 199.137695312 529.700195312 c 0
 247.505859375 529.700195312 285.9375 516.325195312 312.7109375 488.494140625 c 0
 339.359375 460.793945312 352.212890625 422.366210938 352.212890625 374.674804688 c 2
 352.212890625 0.275390625 l 1
 271.288085938 0.275390625 l 1x7a40
 271.288085938 30.0751953125 l 1
 247.715820312 5.12109375 216.09765625 -7.525390625 177.6875 -7.525390625 c 0
 134.20703125 -7.525390625 99.439453125 6.482421875 75.4140625 35.1005859375 c 0
 51.56640625 63.5068359375 40.2119140625 102.637695312 40.2119140625 151.400390625 c 0
 40.2119140625 198.546875 53.6474609375 236.717773438 81.2958984375 264.366210938 c 0
 109.077148438 292.1484375 148.895507812 305.450195312 199.13671875 305.450195312 c 2
 268.362304688 305.450195312 l 1
 268.362304688 377.599609375 l 2
 268.362304688 439.046875 236.391601562 453.650390625 199.13671875 453.650390625 c 0xbc40
193.288085938 67.548828125 m 0xbc40
 221.575195312 67.548828125 268.36328125 78.814453125 268.36328125 153.348632812 c 2
 268.36328125 238.173828125 l 1
 205.962890625 238.173828125 l 2
 158.310546875 238.173828125 124.0625 218.271484375 124.0625 152.374023438 c 0
 124.0625 78.822265625 161.491210938 67.548828125 193.288085938 67.548828125 c 0xbc40
86.0380859375 666.19921875 m 1x39
 176.712890625 666.19921875 l 1
 176.712890625 564.798828125 l 1
 86.0380859375 564.798828125 l 1
 86.0380859375 666.19921875 l 1x39
234.23828125 666.19921875 m 1x3880
 324.913085938 666.19921875 l 1
 324.913085938 564.798828125 l 1
 234.23828125 564.798828125 l 1
 234.23828125 666.19921875 l 1x3880
EndSplineSet
EndChar

